<?xml version="1.0" encoding="UTF-8" standalone="no"?>
<!-- Created with Inkscape (http://www.inkscape.org/) -->

<svg
   xmlns:dc="http://purl.org/dc/elements/1.1/"
   xmlns:cc="http://creativecommons.org/ns#"
   xmlns:rdf="http://www.w3.org/1999/02/22-rdf-syntax-ns#"
   xmlns:svg="http://www.w3.org/2000/svg"
   xmlns="http://www.w3.org/2000/svg"
   xmlns:sodipodi="http://sodipodi.sourceforge.net/DTD/sodipodi-0.dtd"
   xmlns:inkscape="http://www.inkscape.org/namespaces/inkscape"
   width="210mm"
   height="297mm"
   viewBox="0 0 210 297"
   version="1.1"
   id="svg8"
   inkscape:version="0.92.1 r15371"
   sodipodi:docname="kawaii-expressions.svg">
  <defs
     id="defs2" />
  <sodipodi:namedview
     id="base"
     pagecolor="#ffffff"
     bordercolor="#666666"
     borderopacity="1.0"
     inkscape:pageopacity="0.0"
     inkscape:pageshadow="2"
     inkscape:zoom="0.49497475"
     inkscape:cx="-530.87322"
     inkscape:cy="828.82325"
     inkscape:document-units="mm"
     inkscape:current-layer="layer1"
     showgrid="false"
     inkscape:window-width="1920"
     inkscape:window-height="1027"
     inkscape:window-x="-8"
     inkscape:window-y="-8"
     inkscape:window-maximized="1" />
  <metadata
     id="metadata5">
    <rdf:RDF>
      <cc:Work
         rdf:about="">
        <dc:format>image/svg+xml</dc:format>
        <dc:type
           rdf:resource="http://purl.org/dc/dcmitype/StillImage" />
        <dc:title></dc:title>
      </cc:Work>
    </rdf:RDF>
  </metadata>
  <g
     inkscape:label="Calque 1"
     inkscape:groupmode="layer"
     id="layer1">
    <circle
       id="path10"
       cx="-107.97689"
       cy="7.1461968"
       r="2.271791"
       style="stroke-width:0.26458332" />
    <circle
       style="stroke-width:0.26458332"
       r="2.271791"
       cy="7.1461968"
       cx="-100.15926"
       id="circle12" />
    <text
       xml:space="preserve"
       style="font-style:normal;font-weight:normal;font-size:10.58333302px;line-height:1.25;font-family:sans-serif;letter-spacing:0px;word-spacing:0px;fill:#000000;fill-opacity:1;stroke:none;stroke-width:0.26458332"
       x="-117.19769"
       y="-1.6736972"
       id="text16"><tspan
         sodipodi:role="line"
         id="tspan14"
         x="-117.19769"
         y="-1.6736972"
         style="stroke-width:0.26458332">Eyes</tspan></text>
    <text
       xml:space="preserve"
       style="font-style:normal;font-weight:normal;font-size:10.58333302px;line-height:1.25;font-family:sans-serif;letter-spacing:0px;word-spacing:0px;fill:#000000;fill-opacity:1;stroke:none;stroke-width:0.26458332"
       x="-55.191154"
       y="-1.6736972"
       id="text20"><tspan
         sodipodi:role="line"
         id="tspan18"
         x="-55.191154"
         y="-1.6736972"
         style="stroke-width:0.26458332">Mouths</tspan></text>
    <path
       style="fill:none;stroke:#000000;stroke-width:3;stroke-linecap:round;stroke-linejoin:round;stroke-miterlimit:4;stroke-dasharray:none;stroke-opacity:1"
       d="m -37.743473,4.9012678 c -2.640366,9.8539802 9.43718,9.5414402 6.880559,0"
       id="path22"
       inkscape:connector-curvature="0"
       sodipodi:nodetypes="cc" />
    <g
       id="g4637">
      <path
         sodipodi:nodetypes="ccc"
         inkscape:connector-curvature="0"
         id="path4499"
         d="m -119.54208,21.082466 11.66774,5.863476 -11.6458,6.723704"
         style="fill:none;stroke:#000000;stroke-width:3;stroke-linecap:round;stroke-linejoin:round;stroke-miterlimit:4;stroke-dasharray:none;stroke-opacity:1" />
      <path
         style="fill:none;stroke:#000000;stroke-width:3;stroke-linecap:round;stroke-linejoin:round;stroke-miterlimit:4;stroke-dasharray:none;stroke-opacity:1"
         d="m -90.387454,21.216101 -11.667746,5.863476 11.645802,6.723704"
         id="path4501"
         inkscape:connector-curvature="0"
         sodipodi:nodetypes="ccc" />
    </g>
    <g
       id="g4587">
      <path
         d="m -117.13236,48.040737 c 0.0113,0.498529 -0.66642,0.26123 -0.82859,0.01883 -0.43947,-0.656884 0.1536,-1.457072 0.79092,-1.676008 1.14003,-0.391625 2.26618,0.510978 2.52343,1.600681 0.37753,1.599184 -0.86971,3.089599 -2.41044,3.370847 -2.05354,0.37486 -3.91853,-1.228469 -4.21826,-3.220193 -0.37718,-2.506382 1.58712,-4.750215 4.02995,-5.065687 2.95858,-0.382078 5.58345,1.945703 5.9131,4.839706 0.38849,3.410483 -2.30422,6.417672 -5.64946,6.760526 -3.8622,0.395839 -7.25254,-2.662717 -7.60794,-6.459218 -0.40384,-4.313827 3.02118,-8.087869 7.26897,-8.455366 4.76538,-0.412275 8.92353,3.379632 9.30279,8.078731 0.42104,5.216891 -3.73807,9.75944 -8.88849,10.150205"
         sodipodi:t0="0"
         sodipodi:argument="-17.301483"
         sodipodi:radius="9.9456234"
         sodipodi:revolution="3"
         sodipodi:expansion="1"
         sodipodi:cy="48.040737"
         sodipodi:cx="-117.13236"
         id="path4511"
         style="fill:none;fill-rule:evenodd;stroke:#000000;stroke-width:1.69101596;stroke-miterlimit:4;stroke-dasharray:none"
         sodipodi:type="spiral" />
      <path
         transform="rotate(165,-93.063345,48.363787)"
         sodipodi:type="spiral"
         style="fill:none;fill-rule:evenodd;stroke:#000000;stroke-width:1.69101596;stroke-miterlimit:4;stroke-dasharray:none"
         id="path4513"
         sodipodi:cx="-93.345375"
         sodipodi:cy="48.575275"
         sodipodi:expansion="1"
         sodipodi:revolution="3"
         sodipodi:radius="9.9456234"
         sodipodi:argument="-17.301483"
         sodipodi:t0="0"
         d="m -93.345375,48.575275 c 0.01133,0.498529 -0.666417,0.26123 -0.828588,0.01883 -0.439473,-0.656883 0.153598,-1.457072 0.790925,-1.676008 1.140027,-0.391625 2.266178,0.510978 2.523427,1.600681 0.377523,1.599184 -0.869712,3.089599 -2.410437,3.370847 -2.053545,0.37486 -3.918538,-1.228468 -4.218267,-3.220193 -0.377178,-2.506382 1.587125,-4.750215 4.02995,-5.065686 2.958587,-0.382079 5.583454,1.945702 5.913106,4.839705 0.388483,3.410483 -2.304227,6.417672 -5.649462,6.760526 -3.862206,0.395839 -7.252539,-2.662716 -7.607949,-6.459218 -0.40383,-4.313827 3.021185,-8.087869 7.268978,-8.455365 4.765381,-0.412276 8.923529,3.379631 9.302785,8.078731 0.421045,5.216891 -3.738069,9.759439 -8.888488,10.150204" />
    </g>
    <g
       id="g4577"
       style="stroke-width:2;stroke-miterlimit:4;stroke-dasharray:none">
      <path
         sodipodi:nodetypes="ccsc"
         inkscape:connector-curvature="0"
         id="path4515"
         d="m -109.13775,82.023091 -15.31678,-16.644819 c 0,0 -4.0382,14.584092 0.88537,18.061401 4.35468,3.075532 14.43141,-1.416582 14.43141,-1.416582 z"
         style="fill:none;stroke:#000000;stroke-width:2;stroke-linecap:butt;stroke-linejoin:miter;stroke-miterlimit:4;stroke-dasharray:none;stroke-opacity:1" />
      <path
         style="fill:none;stroke:#000000;stroke-width:2;stroke-linecap:butt;stroke-linejoin:miter;stroke-miterlimit:4;stroke-dasharray:none;stroke-opacity:1"
         d="m -102.72251,82.023091 15.31677,-16.644819 c 0,0 4.0382,14.584092 -0.88536,18.061401 -4.35468,3.075532 -14.43141,-1.416582 -14.43141,-1.416582 z"
         id="path4517"
         inkscape:connector-curvature="0"
         sodipodi:nodetypes="ccsc" />
    </g>
    <path
       style="fill:none;stroke:#000000;stroke-width:2;stroke-linecap:round;stroke-linejoin:miter;stroke-opacity:1;stroke-miterlimit:4;stroke-dasharray:none"
       d="m -128.55664,111.51495 c 0.80181,-1.06908 18.54658,-18.546588 18.54658,-18.546588"
       id="path4519"
       inkscape:connector-curvature="0" />
    <path
       inkscape:connector-curvature="0"
       id="path4521"
       d="m -110.00847,111.51495 c -0.80181,-1.06908 -18.54658,-18.546588 -18.54658,-18.546588"
       style="fill:none;stroke:#000000;stroke-width:2;stroke-linecap:round;stroke-linejoin:miter;stroke-miterlimit:4;stroke-dasharray:none;stroke-opacity:1" />
    <path
       inkscape:connector-curvature="0"
       id="path4523"
       d="m -101.34235,111.51495 c 0.80181,-1.06908 18.546576,-18.546588 18.546576,-18.546588"
       style="fill:none;stroke:#000000;stroke-width:2;stroke-linecap:round;stroke-linejoin:miter;stroke-miterlimit:4;stroke-dasharray:none;stroke-opacity:1" />
    <path
       style="fill:none;stroke:#000000;stroke-width:2;stroke-linecap:round;stroke-linejoin:miter;stroke-miterlimit:4;stroke-dasharray:none;stroke-opacity:1"
       d="m -82.794184,111.51495 c -0.80181,-1.06908 -18.546576,-18.546588 -18.546576,-18.546588"
       id="path4525"
       inkscape:connector-curvature="0" />
    <g
       id="g4603">
      <g
         id="g4539">
        <path
           style="fill:none;stroke:#000000;stroke-width:1.79478085;stroke-linecap:round;stroke-linejoin:miter;stroke-miterlimit:4;stroke-dasharray:none;stroke-opacity:1"
           d="m -135.91212,125.05648 h 25.30365"
           id="path4527"
           inkscape:connector-curvature="0" />
        <path
           style="fill:#000000;fill-opacity:1;stroke:none;stroke-width:3.16944599;stroke-linecap:round;stroke-linejoin:round;stroke-miterlimit:4;stroke-dasharray:none;stroke-opacity:1"
           id="path4531"
           sodipodi:type="arc"
           sodipodi:cx="-116.79474"
           sodipodi:cy="125.51212"
           sodipodi:rx="5.5061259"
           sodipodi:ry="5.5061259"
           sodipodi:start="0"
           sodipodi:end="3.1415927"
           d="m -111.28861,125.51212 a 5.5061259,5.5061259 0 0 1 -2.75307,4.76845 5.5061259,5.5061259 0 0 1 -5.50612,0 5.5061259,5.5061259 0 0 1 -2.75306,-4.76845 l 5.50612,0 z" />
      </g>
      <g
         transform="translate(32.694941)"
         id="g4545">
        <path
           inkscape:connector-curvature="0"
           id="path4541"
           d="m -135.91212,125.05648 h 25.30365"
           style="fill:none;stroke:#000000;stroke-width:1.79478085;stroke-linecap:round;stroke-linejoin:miter;stroke-miterlimit:4;stroke-dasharray:none;stroke-opacity:1" />
        <path
           d="m -111.28861,125.51212 a 5.5061259,5.5061259 0 0 1 -2.75307,4.76845 5.5061259,5.5061259 0 0 1 -5.50612,0 5.5061259,5.5061259 0 0 1 -2.75306,-4.76845 l 5.50612,0 z"
           sodipodi:end="3.1415927"
           sodipodi:start="0"
           sodipodi:ry="5.5061259"
           sodipodi:rx="5.5061259"
           sodipodi:cy="125.51212"
           sodipodi:cx="-116.79474"
           sodipodi:type="arc"
           id="path4543"
           style="fill:#000000;fill-opacity:1;stroke:none;stroke-width:3.16944599;stroke-linecap:round;stroke-linejoin:round;stroke-miterlimit:4;stroke-dasharray:none;stroke-opacity:1" />
      </g>
    </g>
    <g
       id="g4623">
      <path
         style="fill:none;stroke:#000000;stroke-width:3;stroke-linecap:round;stroke-linejoin:round;stroke-miterlimit:4;stroke-dasharray:none;stroke-opacity:1"
         d="m -125.62294,152.91517 c 0,-12.00344 12.36121,-11.83636 12.36121,0"
         id="path4547"
         inkscape:connector-curvature="0"
         sodipodi:nodetypes="cc" />
      <path
         sodipodi:nodetypes="cc"
         inkscape:connector-curvature="0"
         id="path4549"
         d="m -98.40865,153.67113 c 0,-12.00344 12.36121,-11.83636 12.36121,0"
         style="fill:none;stroke:#000000;stroke-width:3;stroke-linecap:round;stroke-linejoin:round;stroke-miterlimit:4;stroke-dasharray:none;stroke-opacity:1" />
    </g>
    <circle
       style="stroke-width:0.26458332"
       r="2.271791"
       cy="6.5792327"
       cx="10.70763"
       id="circle4551" />
    <circle
       id="circle4553"
       cx="18.525257"
       cy="6.5792327"
       r="2.271791"
       style="stroke-width:0.26458332" />
    <path
       sodipodi:nodetypes="cc"
       inkscape:connector-curvature="0"
       id="path4557"
       d="m 11.015456,12.64978 c -2.6403661,9.85398 9.43718,9.54144 6.880559,0"
       style="fill:none;stroke:#000000;stroke-width:3;stroke-linecap:round;stroke-linejoin:round;stroke-miterlimit:4;stroke-dasharray:none;stroke-opacity:1" />
    <path
       style="fill:none;stroke:#000000;stroke-width:2;stroke-linecap:round;stroke-linejoin:round;stroke-miterlimit:4;stroke-dasharray:none;stroke-opacity:1"
       d="m -53.018158,21.876092 c 0,0 2.92976,15.22347 8.78928,15.22347 5.74379,0 8.61568,-14.92279 8.61568,-14.92279 0,0 2.87023,14.91419 8.6107,14.91419 5.562186,0 8.343285,-14.45098 8.343285,-14.45098"
       id="path4559"
       inkscape:connector-curvature="0"
       sodipodi:nodetypes="cscsc" />
    <path
       style="fill:none;stroke:#000000;stroke-width:2;stroke-linecap:round;stroke-linejoin:round;stroke-miterlimit:4;stroke-dasharray:none;stroke-opacity:1"
       d="m -38.397066,46.36047 c 0,0 7.219707,-2.30728 7.349913,0.267269 0.130444,2.579253 -3.60814,4.610398 -3.60814,4.610398 0,0 3.207235,2.359411 3.207235,4.409949 0,2.627961 -6.681738,1.536799 -6.681738,1.536799"
       id="path4563"
       inkscape:connector-curvature="0"
       sodipodi:nodetypes="cscsc" />
    <path
       style="fill:none;stroke:#000000;stroke-width:2;stroke-linecap:round;stroke-linejoin:miter;stroke-miterlimit:4;stroke-dasharray:none;stroke-opacity:1"
       d="m -48.664435,66.481769 c 0,0 2.797719,2.230231 4.488467,2.551339 1.517703,0.288243 3.059598,-2.728406 4.967834,-3.257153 1.405748,-0.389514 3.119794,2.039612 4.907183,2.325464 1.038114,0.166023 2.247495,-1.798879 3.602755,-2.129652 1.162615,-0.283754 2.758168,2.243522 4.39959,2.213607 1.897822,-0.03459 4.990198,-2.74304 4.990198,-2.74304"
       id="path4565"
       inkscape:connector-curvature="0"
       sodipodi:nodetypes="cssssac" />
    <path
       style="fill:none;stroke:#000000;stroke-width:2;stroke-linecap:round;stroke-linejoin:round;stroke-miterlimit:4;stroke-dasharray:none;stroke-opacity:1"
       d="m -52.358712,87.908305 c -0.123956,-3.808251 4.771865,-6.965329 8.526667,-7.613095 3.708923,-0.639852 6.705569,4.587218 10.455318,4.263332 3.93778,-0.340126 6.102337,-6.501804 10.049285,-6.293492 3.778475,0.199421 8.704992,3.227173 8.932698,7.004049 0.244775,4.059988 -4.637867,7.840219 -8.628174,8.628174 -3.705071,0.731629 -6.706394,-4.821353 -10.455318,-4.364842 -3.553654,0.432734 -7.484762,5.832398 -11.064364,5.785952 -4.3383,-0.05629 -7.674966,-3.07371 -7.816112,-7.410078 z"
       id="path4567"
       inkscape:connector-curvature="0"
       sodipodi:nodetypes="sssssasss" />
    <path
       style="fill:none;stroke:#000000;stroke-width:2;stroke-linecap:butt;stroke-linejoin:miter;stroke-miterlimit:4;stroke-dasharray:none;stroke-opacity:1"
       d="m -40.590767,128.4546 v -18.44796 l 6.046831,6.86674 3.997057,-7.68665 5.226921,7.17421 6.14932,-7.78913 v 19.67781 z"
       id="path4569"
       inkscape:connector-curvature="0" />
    <path
       style="fill:none;stroke:#000000;stroke-width:2;stroke-linecap:round;stroke-linejoin:round;stroke-miterlimit:4;stroke-dasharray:none;stroke-opacity:1"
       d="m -42.161767,147.8636 6.214016,-7.75081 6.080382,7.81763"
       id="path4571"
       inkscape:connector-curvature="0"
       sodipodi:nodetypes="ccc" />
    <g
       id="g4593"
       transform="translate(148.60186,21.381562)">
      <path
         sodipodi:type="spiral"
         style="fill:none;fill-rule:evenodd;stroke:#000000;stroke-width:1.69101596;stroke-miterlimit:4;stroke-dasharray:none"
         id="path4589"
         sodipodi:cx="-117.13236"
         sodipodi:cy="48.040737"
         sodipodi:expansion="1"
         sodipodi:revolution="3"
         sodipodi:radius="9.9456234"
         sodipodi:argument="-17.301483"
         sodipodi:t0="0"
         d="m -117.13236,48.040737 c 0.0113,0.498529 -0.66642,0.26123 -0.82859,0.01883 -0.43947,-0.656884 0.1536,-1.457072 0.79092,-1.676008 1.14003,-0.391625 2.26618,0.510978 2.52343,1.600681 0.37753,1.599184 -0.86971,3.089599 -2.41044,3.370847 -2.05354,0.37486 -3.91853,-1.228469 -4.21826,-3.220193 -0.37718,-2.506382 1.58712,-4.750215 4.02995,-5.065687 2.95858,-0.382078 5.58345,1.945703 5.9131,4.839706 0.38849,3.410483 -2.30422,6.417672 -5.64946,6.760526 -3.8622,0.395839 -7.25254,-2.662717 -7.60794,-6.459218 -0.40384,-4.313827 3.02118,-8.087869 7.26897,-8.455366 4.76538,-0.412275 8.92353,3.379632 9.30279,8.078731 0.42104,5.216891 -3.73807,9.75944 -8.88849,10.150205" />
      <path
         d="m -93.345375,48.575275 c 0.01133,0.498529 -0.666417,0.26123 -0.828588,0.01883 -0.439473,-0.656883 0.153598,-1.457072 0.790925,-1.676008 1.140027,-0.391625 2.266178,0.510978 2.523427,1.600681 0.377523,1.599184 -0.869712,3.089599 -2.410437,3.370847 -2.053545,0.37486 -3.918538,-1.228468 -4.218267,-3.220193 -0.377178,-2.506382 1.587125,-4.750215 4.02995,-5.065686 2.958587,-0.382079 5.583454,1.945702 5.913106,4.839705 0.388483,3.410483 -2.304227,6.417672 -5.649462,6.760526 -3.862206,0.395839 -7.252539,-2.662716 -7.607949,-6.459218 -0.40383,-4.313827 3.021185,-8.087869 7.268978,-8.455365 4.765381,-0.412276 8.923529,3.379631 9.302785,8.078731 0.421045,5.216891 -3.738069,9.759439 -8.888488,10.150204"
         sodipodi:t0="0"
         sodipodi:argument="-17.301483"
         sodipodi:radius="9.9456234"
         sodipodi:revolution="3"
         sodipodi:expansion="1"
         sodipodi:cy="48.575275"
         sodipodi:cx="-93.345375"
         id="path4591"
         style="fill:none;fill-rule:evenodd;stroke:#000000;stroke-width:1.69101596;stroke-miterlimit:4;stroke-dasharray:none"
         sodipodi:type="spiral"
         transform="rotate(165,-93.063345,48.363787)" />
    </g>
    <path
       sodipodi:nodetypes="cssssac"
       inkscape:connector-curvature="0"
       id="path4595"
       d="m 30.447345,91.070566 c 0,0 2.797719,2.230231 4.488467,2.551339 1.517703,0.288243 3.059598,-2.728406 4.967834,-3.257153 1.405748,-0.389514 3.119794,2.039612 4.907183,2.325464 1.038114,0.166023 2.247495,-1.798879 3.602755,-2.129652 1.162615,-0.283754 2.758168,2.243522 4.39959,2.213607 1.897822,-0.03459 4.990198,-2.74304 4.990198,-2.74304"
       style="fill:none;stroke:#000000;stroke-width:2;stroke-linecap:round;stroke-linejoin:miter;stroke-miterlimit:4;stroke-dasharray:none;stroke-opacity:1" />
    <g
       id="g4617"
       transform="translate(225.04094,-36.883195)">
      <g
         id="g4609">
        <path
           inkscape:connector-curvature="0"
           id="path4605"
           d="m -135.91212,125.05648 h 25.30365"
           style="fill:none;stroke:#000000;stroke-width:1.79478085;stroke-linecap:round;stroke-linejoin:miter;stroke-miterlimit:4;stroke-dasharray:none;stroke-opacity:1" />
        <path
           d="m -111.28861,125.51212 a 5.5061259,5.5061259 0 0 1 -2.75307,4.76845 5.5061259,5.5061259 0 0 1 -5.50612,0 5.5061259,5.5061259 0 0 1 -2.75306,-4.76845 l 5.50612,0 z"
           sodipodi:end="3.1415927"
           sodipodi:start="0"
           sodipodi:ry="5.5061259"
           sodipodi:rx="5.5061259"
           sodipodi:cy="125.51212"
           sodipodi:cx="-116.79474"
           sodipodi:type="arc"
           id="path4607"
           style="fill:#000000;fill-opacity:1;stroke:none;stroke-width:3.16944599;stroke-linecap:round;stroke-linejoin:round;stroke-miterlimit:4;stroke-dasharray:none;stroke-opacity:1" />
      </g>
      <g
         id="g4615"
         transform="translate(32.694941)">
        <path
           style="fill:none;stroke:#000000;stroke-width:1.79478085;stroke-linecap:round;stroke-linejoin:miter;stroke-miterlimit:4;stroke-dasharray:none;stroke-opacity:1"
           d="m -135.91212,125.05648 h 25.30365"
           id="path4611"
           inkscape:connector-curvature="0" />
        <path
           style="fill:#000000;fill-opacity:1;stroke:none;stroke-width:3.16944599;stroke-linecap:round;stroke-linejoin:round;stroke-miterlimit:4;stroke-dasharray:none;stroke-opacity:1"
           id="path4613"
           sodipodi:type="arc"
           sodipodi:cx="-116.79474"
           sodipodi:cy="125.51212"
           sodipodi:rx="5.5061259"
           sodipodi:ry="5.5061259"
           sodipodi:start="0"
           sodipodi:end="3.1415927"
           d="m -111.28861,125.51212 a 5.5061259,5.5061259 0 0 1 -2.75307,4.76845 5.5061259,5.5061259 0 0 1 -5.50612,0 5.5061259,5.5061259 0 0 1 -2.75306,-4.76845 l 5.50612,0 z" />
      </g>
    </g>
    <path
       sodipodi:nodetypes="ccc"
       inkscape:connector-curvature="0"
       id="path4619"
       d="m 114.45818,108.84225 6.21401,-7.75081 6.08039,7.81763"
       style="fill:none;stroke:#000000;stroke-width:2;stroke-linecap:round;stroke-linejoin:round;stroke-miterlimit:4;stroke-dasharray:none;stroke-opacity:1" />
    <g
       id="g4629"
       transform="translate(172.12158,12.294398)">
      <path
         sodipodi:nodetypes="cc"
         inkscape:connector-curvature="0"
         id="path4625"
         d="m -125.62294,152.91517 c 0,-12.00344 12.36121,-11.83636 12.36121,0"
         style="fill:none;stroke:#000000;stroke-width:3;stroke-linecap:round;stroke-linejoin:round;stroke-miterlimit:4;stroke-dasharray:none;stroke-opacity:1" />
      <path
         style="fill:none;stroke:#000000;stroke-width:3;stroke-linecap:round;stroke-linejoin:round;stroke-miterlimit:4;stroke-dasharray:none;stroke-opacity:1"
         d="m -98.40865,153.67113 c 0,-12.00344 12.36121,-11.83636 12.36121,0"
         id="path4627"
         inkscape:connector-curvature="0"
         sodipodi:nodetypes="cc" />
    </g>
    <path
       sodipodi:nodetypes="cscsc"
       inkscape:connector-curvature="0"
       id="path4631"
       d="m 62.630815,176.25346 c 0,0 7.219707,-2.30728 7.349913,0.26727 0.130444,2.57925 -3.60814,4.6104 -3.60814,4.6104 0,0 3.207235,2.35941 3.207235,4.40995 0,2.62796 -6.681738,1.5368 -6.681738,1.5368"
       style="fill:none;stroke:#000000;stroke-width:2;stroke-linecap:round;stroke-linejoin:round;stroke-miterlimit:4;stroke-dasharray:none;stroke-opacity:1" />
    <g
       id="g4643"
       transform="translate(273.14946,124.5476)">
      <path
         style="fill:none;stroke:#000000;stroke-width:3;stroke-linecap:round;stroke-linejoin:round;stroke-miterlimit:4;stroke-dasharray:none;stroke-opacity:1"
         d="m -119.54208,21.082466 11.66774,5.863476 -11.6458,6.723704"
         id="path4639"
         inkscape:connector-curvature="0"
         sodipodi:nodetypes="ccc" />
      <path
         sodipodi:nodetypes="ccc"
         inkscape:connector-curvature="0"
         id="path4641"
         d="m -90.387454,21.216101 -11.667746,5.863476 11.645802,6.723704"
         style="fill:none;stroke:#000000;stroke-width:3;stroke-linecap:round;stroke-linejoin:round;stroke-miterlimit:4;stroke-dasharray:none;stroke-opacity:1" />
    </g>
    <path
       sodipodi:nodetypes="sssssasss"
       inkscape:connector-curvature="0"
       id="path4645"
       d="m 149.16252,172.90001 c -0.12395,-3.80825 4.77187,-6.96533 8.52667,-7.61309 3.70892,-0.63985 6.70557,4.58722 10.45532,4.26333 3.93778,-0.34013 6.10233,-6.5018 10.04928,-6.29349 3.77848,0.19942 8.70499,3.22717 8.9327,7.00405 0.24477,4.05999 -4.63787,7.84022 -8.62817,8.62817 -3.70508,0.73163 -6.7064,-4.82135 -10.45532,-4.36484 -3.55366,0.43273 -7.48476,5.8324 -11.06437,5.78595 -4.3383,-0.0563 -7.67496,-3.07371 -7.81611,-7.41008 z"
       style="fill:none;stroke:#000000;stroke-width:2;stroke-linecap:round;stroke-linejoin:round;stroke-miterlimit:4;stroke-dasharray:none;stroke-opacity:1" />
    <path
       inkscape:connector-curvature="0"
       id="path4647"
       d="m 161.12495,60.537812 v -18.44796 l 6.04683,6.86674 3.99706,-7.68665 5.22692,7.17421 6.14932,-7.78913 v 19.67781 z"
       style="fill:none;stroke:#000000;stroke-width:2;stroke-linecap:butt;stroke-linejoin:miter;stroke-miterlimit:4;stroke-dasharray:none;stroke-opacity:1" />
    <g
       style="stroke-width:2;stroke-miterlimit:4;stroke-dasharray:none"
       id="g4653"
       transform="translate(277.42577,-52.919367)">
      <path
         style="fill:none;stroke:#000000;stroke-width:2;stroke-linecap:butt;stroke-linejoin:miter;stroke-miterlimit:4;stroke-dasharray:none;stroke-opacity:1"
         d="m -109.13775,82.023091 -15.31678,-16.644819 c 0,0 -4.0382,14.584092 0.88537,18.061401 4.35468,3.075532 14.43141,-1.416582 14.43141,-1.416582 z"
         id="path4649"
         inkscape:connector-curvature="0"
         sodipodi:nodetypes="ccsc" />
      <path
         sodipodi:nodetypes="ccsc"
         inkscape:connector-curvature="0"
         id="path4651"
         d="m -102.72251,82.023091 15.31677,-16.644819 c 0,0 4.0382,14.584092 -0.88536,18.061401 -4.35468,3.075532 -14.43141,-1.416582 -14.43141,-1.416582 z"
         style="fill:none;stroke:#000000;stroke-width:2;stroke-linecap:butt;stroke-linejoin:miter;stroke-miterlimit:4;stroke-dasharray:none;stroke-opacity:1" />
    </g>
  </g>
</svg>
