<?xml version="1.0" encoding="UTF-8" standalone="no"?>
<!-- Created with Inkscape (http://www.inkscape.org/) -->

<svg
   xmlns:dc="http://purl.org/dc/elements/1.1/"
   xmlns:cc="http://creativecommons.org/ns#"
   xmlns:rdf="http://www.w3.org/1999/02/22-rdf-syntax-ns#"
   xmlns:svg="http://www.w3.org/2000/svg"
   xmlns="http://www.w3.org/2000/svg"
   xmlns:sodipodi="http://sodipodi.sourceforge.net/DTD/sodipodi-0.dtd"
   xmlns:inkscape="http://www.inkscape.org/namespaces/inkscape"
   width="210mm"
   height="297mm"
   viewBox="0 0 744.09448819 1052.3622047"
   id="svg6530"
   version="1.1"
   inkscape:version="0.91 r13725"
   sodipodi:docname="xmas-gift.svg">
  <defs
     id="defs6532" />
  <sodipodi:namedview
     id="base"
     pagecolor="#ffffff"
     bordercolor="#666666"
     borderopacity="1.0"
     inkscape:pageopacity="0.0"
     inkscape:pageshadow="2"
     inkscape:zoom="0.49497475"
     inkscape:cx="167.04725"
     inkscape:cy="579.4636"
     inkscape:document-units="px"
     inkscape:current-layer="layer1"
     showgrid="false"
     inkscape:window-width="1920"
     inkscape:window-height="1027"
     inkscape:window-x="1912"
     inkscape:window-y="-8"
     inkscape:window-maximized="1"
     showguides="false" />
  <metadata
     id="metadata6535">
    <rdf:RDF>
      <cc:Work
         rdf:about="">
        <dc:format>image/svg+xml</dc:format>
        <dc:type
           rdf:resource="http://purl.org/dc/dcmitype/StillImage" />
        <dc:title></dc:title>
      </cc:Work>
    </rdf:RDF>
  </metadata>
  <g
     inkscape:label="Calque 1"
     inkscape:groupmode="layer"
     id="layer1">
    <rect
       style="opacity:1;fill:#cd640a;fill-opacity:1;fill-rule:evenodd;stroke:#000000;stroke-width:10;stroke-linecap:round;stroke-miterlimit:4;stroke-dasharray:none;stroke-opacity:1"
       id="rect7078"
       width="382.97589"
       height="291.22552"
       x="176.39012"
       y="414.58557" />
    <rect
       style="opacity:1;fill:#b25508;fill-opacity:1;fill-rule:evenodd;stroke:#000000;stroke-width:10;stroke-linecap:round;stroke-miterlimit:4;stroke-dasharray:none;stroke-opacity:1"
       id="rect7088"
       width="420.22345"
       height="69.70047"
       x="159.6041"
       y="351.31631" />
    <rect
       style="opacity:1;fill:#ffe86f;fill-opacity:1;fill-rule:evenodd;stroke:none;stroke-width:10;stroke-linecap:round;stroke-miterlimit:4;stroke-dasharray:none;stroke-opacity:1"
       id="rect7092"
       width="46.109867"
       height="275.52652"
       x="344.81915"
       y="425.29208" />
    <rect
       y="-554.12469"
       x="540.00043"
       height="373.51147"
       width="46.109863"
       id="rect7094"
       style="opacity:1;fill:#ffe86f;fill-opacity:1;fill-rule:evenodd;stroke:none;stroke-width:10;stroke-linecap:round;stroke-miterlimit:4;stroke-dasharray:none;stroke-opacity:1"
       transform="matrix(0,1,-1,0,0,0)" />
    <rect
       y="356.24457"
       x="333.56915"
       height="59.504444"
       width="68.92321"
       id="rect7096"
       style="opacity:1;fill:#ffe86f;fill-opacity:1;fill-rule:evenodd;stroke:none;stroke-width:10;stroke-linecap:round;stroke-miterlimit:4;stroke-dasharray:none;stroke-opacity:1" />
    <g
       id="g7102"
       transform="translate(16.162441,7.0710677)">
      <circle
         r="25.253813"
         cy="541.22504"
         cx="273.75134"
         id="path7098"
         style="opacity:1;fill:#000000;fill-opacity:1;fill-rule:evenodd;stroke:none;stroke-width:10;stroke-linecap:round;stroke-miterlimit:4;stroke-dasharray:none;stroke-opacity:1" />
      <circle
         r="9.0913725"
         cy="532.63873"
         cx="266.1752"
         id="path7100"
         style="opacity:1;fill:#ffffff;fill-opacity:1;fill-rule:evenodd;stroke:none;stroke-width:10;stroke-linecap:round;stroke-miterlimit:4;stroke-dasharray:none;stroke-opacity:1" />
    </g>
    <g
       transform="translate(172.73609,7.0710677)"
       id="g7106">
      <circle
         style="opacity:1;fill:#000000;fill-opacity:1;fill-rule:evenodd;stroke:none;stroke-width:10;stroke-linecap:round;stroke-miterlimit:4;stroke-dasharray:none;stroke-opacity:1"
         id="circle7108"
         cx="273.75134"
         cy="541.22504"
         r="25.253813" />
      <circle
         style="opacity:1;fill:#ffffff;fill-opacity:1;fill-rule:evenodd;stroke:none;stroke-width:10;stroke-linecap:round;stroke-miterlimit:4;stroke-dasharray:none;stroke-opacity:1"
         id="circle7110"
         cx="266.1752"
         cy="532.63873"
         r="9.0913725" />
    </g>
    <path
       style="fill:none;fill-rule:evenodd;stroke:#000000;stroke-width:15;stroke-linecap:round;stroke-linejoin:miter;stroke-miterlimit:4;stroke-dasharray:none;stroke-opacity:1"
       d="m 326.27927,588.70219 c 0,0 11.80657,44.73446 27.27412,43.43655 10.48255,-0.87961 20.20305,-24.24366 20.20305,-24.24366 0,0 15.13819,25.0673 27.27412,24.24366 15.48629,-1.05102 17.1726,-52.52793 17.1726,-52.52793"
       id="path7112"
       inkscape:connector-curvature="0"
       sodipodi:nodetypes="cscsc" />
    <g
       id="g5388"
       transform="matrix(2.6995818,0,0,2.6995818,-786.02642,-790.56414)"
       inkscape:export-xdpi="90"
       inkscape:export-ydpi="90"
       style="fill:#ffe86f;fill-opacity:1">
      <path
         sodipodi:nodetypes="cssscc"
         inkscape:connector-curvature="0"
         id="path5371"
         d="m 434.99998,438.86224 c 0,0 12.13928,32.52706 24,44.49999 3.16947,3.19946 1.0806,-12.23882 4.5,-16.99999 2.82459,-3.93296 25.54342,7.57502 24.06066,-0.30761 -3.2944,-17.51361 -46.97487,-36.18719 -46.97487,-36.18719 z"
         style="fill:#ffe86f;fill-opacity:1;fill-rule:evenodd;stroke:#000000;stroke-width:5;stroke-linecap:butt;stroke-linejoin:miter;stroke-miterlimit:4;stroke-dasharray:none;stroke-opacity:1" />
      <path
         sodipodi:nodetypes="cssscc"
         inkscape:connector-curvature="0"
         id="path5311"
         d="m 439.72057,414.42948 c 0,0 35.30948,-33.10348 50.96456,-22.99153 8.16853,5.27623 1.53169,17.02924 2.13982,28.90381 0.70987,13.86111 7.30324,28.02382 -2.13982,34.32289 -15.07654,10.05694 -50.19818,-20.88396 -50.19818,-20.88396 z"
         style="fill:#ffe86f;fill-opacity:1;fill-rule:evenodd;stroke:#000000;stroke-width:5;stroke-linecap:butt;stroke-linejoin:miter;stroke-miterlimit:4;stroke-dasharray:none;stroke-opacity:1" />
      <path
         sodipodi:nodetypes="csscc"
         inkscape:connector-curvature="0"
         id="path5313"
         d="m 440.8389,420.70573 c 0,0 20.7127,-15.39147 28.38903,-9.87245 6.49923,4.67272 4.84584,19.978 -1.5026,24.85362 -7.22394,5.548 -26.40053,-7.04996 -26.40053,-7.04996 z"
         style="fill:#ffe86f;fill-rule:evenodd;stroke:#000000;stroke-width:2.5;stroke-linecap:butt;stroke-linejoin:miter;stroke-miterlimit:4;stroke-dasharray:none;stroke-opacity:1;fill-opacity:1" />
      <path
         sodipodi:nodetypes="cssscc"
         inkscape:connector-curvature="0"
         id="path5371-2"
         d="m 420.97185,437.22677 c 0,0 -12.13928,32.52706 -24,44.49999 -3.16947,3.19946 -1.0806,-12.23882 -4.5,-16.99999 -2.82459,-3.93296 -25.54342,7.57502 -24.06066,-0.30761 3.2944,-17.51361 46.97487,-36.18719 46.97487,-36.18719 z"
         style="fill:#ffe86f;fill-opacity:1;fill-rule:evenodd;stroke:#000000;stroke-width:5;stroke-linecap:butt;stroke-linejoin:miter;stroke-miterlimit:4;stroke-dasharray:none;stroke-opacity:1" />
      <path
         style="fill:#ffe86f;fill-opacity:1;fill-rule:evenodd;stroke:#000000;stroke-width:5;stroke-linecap:butt;stroke-linejoin:miter;stroke-miterlimit:4;stroke-dasharray:none;stroke-opacity:1"
         d="m 416.03865,415.16363 c 0,0 -35.30948,-33.10348 -50.96456,-22.99153 -8.16853,5.27623 -1.53169,17.02924 -2.13982,28.90381 -0.70987,13.86111 -7.30324,28.02382 2.13982,34.32289 15.07654,10.05694 50.19818,-20.88396 50.19818,-20.88396 z"
         id="path5311-2"
         inkscape:connector-curvature="0"
         sodipodi:nodetypes="cssscc" />
      <path
         style="fill:#ffe86f;fill-rule:evenodd;stroke:#000000;stroke-width:2.5;stroke-linecap:butt;stroke-linejoin:miter;stroke-miterlimit:4;stroke-dasharray:none;stroke-opacity:1;fill-opacity:1"
         d="m 414.92032,421.43988 c 0,0 -20.7127,-15.39147 -28.38903,-9.87245 -6.49923,4.67272 -4.84584,19.978 1.5026,24.85362 7.22394,5.548 26.40053,-7.04996 26.40053,-7.04996 z"
         id="path5313-3"
         inkscape:connector-curvature="0"
         sodipodi:nodetypes="csscc" />
      <circle
         r="14.999999"
         cy="424.33051"
         cx="427.67001"
         id="path5307"
         style="opacity:1;fill:#ffe86f;fill-opacity:1;fill-rule:nonzero;stroke:#000000;stroke-width:5;stroke-miterlimit:4;stroke-dasharray:none;stroke-opacity:1" />
    </g>
  </g>
</svg>
