<?xml version="1.0" encoding="UTF-8" standalone="no"?>
<!-- Created with Inkscape (http://www.inkscape.org/) -->

<svg
   xmlns:dc="http://purl.org/dc/elements/1.1/"
   xmlns:cc="http://creativecommons.org/ns#"
   xmlns:rdf="http://www.w3.org/1999/02/22-rdf-syntax-ns#"
   xmlns:svg="http://www.w3.org/2000/svg"
   xmlns="http://www.w3.org/2000/svg"
   xmlns:sodipodi="http://sodipodi.sourceforge.net/DTD/sodipodi-0.dtd"
   xmlns:inkscape="http://www.inkscape.org/namespaces/inkscape"
   width="1080"
   height="1920"
   viewBox="0 0 285.74999 508.00001"
   version="1.1"
   id="svg2546"
   inkscape:version="0.92.2 (5c3e80d, 2017-08-06)"
   sodipodi:docname="splashscreen.svg"
   inkscape:export-filename="D:\Projets\Xmas-Hell\Xmas-Hell\Creations\Graphics\Menu\splashscreen.png"
   inkscape:export-xdpi="39.714352"
   inkscape:export-ydpi="39.714352">
  <defs
     id="defs2540" />
  <sodipodi:namedview
     id="base"
     pagecolor="#ffffff"
     bordercolor="#666666"
     borderopacity="1.0"
     inkscape:pageopacity="0.0"
     inkscape:pageshadow="2"
     inkscape:zoom="0.49497475"
     inkscape:cx="244.42852"
     inkscape:cy="624.60693"
     inkscape:document-units="mm"
     inkscape:current-layer="layer1"
     showgrid="false"
     inkscape:window-width="1920"
     inkscape:window-height="1027"
     inkscape:window-x="1912"
     inkscape:window-y="-8"
     inkscape:window-maximized="1"
     units="px" />
  <metadata
     id="metadata2543">
    <rdf:RDF>
      <cc:Work
         rdf:about="">
        <dc:format>image/svg+xml</dc:format>
        <dc:type
           rdf:resource="http://purl.org/dc/dcmitype/StillImage" />
        <dc:title />
      </cc:Work>
    </rdf:RDF>
  </metadata>
  <g
     inkscape:label="Calque 1"
     inkscape:groupmode="layer"
     id="layer1"
     transform="translate(0,211.00002)">
    <rect
       style="opacity:1;fill:#f5efef;fill-opacity:0;fill-rule:nonzero;stroke:#000000;stroke-width:1.38600004;stroke-linecap:round;stroke-linejoin:round;stroke-miterlimit:4;stroke-dasharray:none;stroke-opacity:0"
       id="rect3091"
       width="288.01785"
       height="510.26785"
       x="0.75595242"
       y="-210.24406" />
    <text
       xml:space="preserve"
       style="font-style:normal;font-variant:normal;font-weight:normal;font-stretch:normal;font-size:10.58333302px;line-height:125%;font-family:'Mf Fine Again';-inkscape-font-specification:'Mf Fine Again';letter-spacing:0px;word-spacing:0px;fill:#000000;fill-opacity:1;stroke:none;stroke-width:0.26458332px;stroke-linecap:butt;stroke-linejoin:miter;stroke-opacity:1;"
       x="-277.43451"
       y="-65.101204"
       id="text823"><tspan
         sodipodi:role="line"
         id="tspan821"
         x="-277.43451"
         y="-55.313686"
         style="stroke-width:0.26458332px;-inkscape-font-specification:'Mf Fine Again';font-family:'Mf Fine Again';font-weight:normal;font-style:normal;font-stretch:normal;font-variant:normal;" /></text>
    <g
       id="g22556"
       transform="matrix(1.2660272,0,0,1.2660272,-39.01413,-1.1828663)"
       inkscape:export-filename="D:\Projets\Xmas-Hell\Xmas-Hell\Creations\Graphics\Splashscreen\gift.png"
       inkscape:export-xdpi="31.77129"
       inkscape:export-ydpi="31.77129">
      <g
         style="stroke-width:14.87612343;stroke-miterlimit:4;stroke-dasharray:none"
         transform="matrix(0.34382732,0,0,0.34382732,-602.38932,13.011456)"
         id="g1502">
        <rect
           style="opacity:1;fill:#cd640a;fill-opacity:1;fill-rule:evenodd;stroke:#000000;stroke-width:14.87612343;stroke-linecap:round;stroke-miterlimit:4;stroke-dasharray:none;stroke-opacity:1"
           id="rect1492"
           width="382.97589"
           height="291.22552"
           x="1987.4293"
           y="-116.95656" />
        <g
           style="stroke-width:14.87612343;stroke-miterlimit:4;stroke-dasharray:none"
           id="g1500">
          <rect
             y="-111.69088"
             x="2155.8584"
             height="280.63254"
             width="46.109867"
             id="rect1494"
             style="opacity:1;fill:#ffe86f;fill-opacity:1;fill-rule:evenodd;stroke:none;stroke-width:14.87612343;stroke-linecap:round;stroke-miterlimit:4;stroke-dasharray:none;stroke-opacity:1" />
          <rect
             transform="rotate(90)"
             style="opacity:1;fill:#ffe86f;fill-opacity:1;fill-rule:evenodd;stroke:none;stroke-width:14.87612343;stroke-linecap:round;stroke-miterlimit:4;stroke-dasharray:none;stroke-opacity:1"
             id="rect1496"
             width="46.109863"
             height="372.04663"
             x="8.4583263"
             y="-2365.0383" />
          <rect
             style="opacity:1;fill:none;fill-opacity:1;fill-rule:evenodd;stroke:#000000;stroke-width:14.87612343;stroke-linecap:round;stroke-miterlimit:4;stroke-dasharray:none;stroke-opacity:1"
             id="rect1498"
             width="382.97589"
             height="291.22552"
             x="1987.4293"
             y="-116.95656" />
        </g>
      </g>
      <rect
         style="opacity:1;fill:#b25508;fill-opacity:1;fill-rule:evenodd;stroke:#000000;stroke-width:5.11481762;stroke-linecap:round;stroke-miterlimit:4;stroke-dasharray:none;stroke-opacity:1"
         id="rect1504"
         width="141.63068"
         height="23.491611"
         x="76.156891"
         y="-39.842857" />
      <rect
         y="-39.139397"
         x="134.78947"
         height="21.970257"
         width="23.229645"
         id="rect1506"
         style="opacity:1;fill:#ffe86f;fill-opacity:1;fill-rule:evenodd;stroke:none;stroke-width:5.11481762;stroke-linecap:round;stroke-miterlimit:4;stroke-dasharray:none;stroke-opacity:1" />
      <rect
         y="-39.842857"
         x="76.156891"
         height="23.491611"
         width="141.63068"
         id="rect1508"
         style="opacity:1;fill:none;fill-opacity:1;fill-rule:evenodd;stroke:#000000;stroke-width:5.11481762;stroke-linecap:round;stroke-miterlimit:4;stroke-dasharray:none;stroke-opacity:1" />
      <g
         transform="matrix(0.50450562,0,0,0.50450562,-21.922528,-249.90751)"
         id="g1516">
        <circle
           style="opacity:1;fill:#000000;fill-opacity:1;fill-rule:evenodd;stroke:none;stroke-width:10;stroke-linecap:round;stroke-miterlimit:4;stroke-dasharray:none;stroke-opacity:1"
           id="circle1512"
           cx="273.75134"
           cy="541.22504"
           r="25.253813" />
        <circle
           style="opacity:1;fill:#ffffff;fill-opacity:1;fill-rule:evenodd;stroke:none;stroke-width:10;stroke-linecap:round;stroke-miterlimit:4;stroke-dasharray:none;stroke-opacity:1"
           id="circle1514"
           cx="266.1752"
           cy="532.63873"
           r="9.0913725" />
      </g>
      <path
         sodipodi:nodetypes="cscsc"
         inkscape:connector-curvature="0"
         id="path1518"
         d="m 134.15403,37.645667 c 0,0 1.83113,14.160335 6.28608,14.134469 3.01919,-0.0174 6.96192,-7.21658 6.96192,-7.21658 0,0 4.3198,7.237033 7.81086,7.272449 4.45477,0.04523 5.53923,-14.373002 5.53923,-14.373002"
         style="fill:none;fill-rule:evenodd;stroke:#000000;stroke-width:4.30524015;stroke-linecap:round;stroke-linejoin:miter;stroke-miterlimit:4;stroke-dasharray:none;stroke-opacity:1" />
      <g
         id="g1592"
         transform="matrix(0.5611427,0,0,0.5611427,-2140.5855,-8.0283939)">
        <g
           transform="matrix(0.93706702,0,0,0.93706702,1454.763,95.024343)"
           id="g1590">
          <path
             style="fill:#f0ca00;fill-opacity:1;fill-rule:evenodd;stroke:#000000;stroke-width:5.95039988;stroke-linecap:butt;stroke-linejoin:miter;stroke-miterlimit:4;stroke-dasharray:none;stroke-opacity:1"
             d="m 2818.3503,-157.19971 c 8.2122,-0.85729 35.3938,79.949923 47.3562,82.650143 19.534,4.409346 75.9909,-18.942542 71.3411,-27.268143 -14.7773,-26.45912 -49.8022,-63.50808 -77.6825,-86.56053 l -40.9023,12.99994 z"
             id="path1520"
             inkscape:connector-curvature="0"
             sodipodi:nodetypes="cssccc" />
          <path
             sodipodi:nodetypes="cssccc"
             inkscape:connector-curvature="0"
             id="path1522"
             d="m 2832.8667,-147.92908 c 6.4809,-0.67656 27.9322,63.095194 37.3727,65.226165 15.4159,3.479785 59.9708,-14.94915 56.3013,-21.519575 -11.662,-20.88112 -39.3031,-50.11956 -61.3058,-68.31219 l -32.2795,10.25935 z"
             style="fill:#ffe86f;fill-opacity:1;fill-rule:evenodd;stroke:none;stroke-width:4.69596004;stroke-linecap:butt;stroke-linejoin:miter;stroke-miterlimit:4;stroke-dasharray:none;stroke-opacity:1" />
          <path
             style="fill:#f0ca00;fill-opacity:1;fill-rule:evenodd;stroke:#000000;stroke-width:5.95039988;stroke-linecap:butt;stroke-linejoin:miter;stroke-miterlimit:4;stroke-dasharray:none;stroke-opacity:1"
             d="m 2818.3503,-157.19971 c 10.3166,23.17887 32.9914,41.52889 56.5513,50.94299 7.2654,2.90312 16.7608,4.67033 23.4633,0.63415 20.6102,-12.41129 32.0242,-64.68259 32.0242,-64.68259 0,0 3.3176,-14.77906 -0.3171,-20.60963 -6.5263,-10.46925 -20.9677,-13.97399 -32.9754,-16.80482 -12.4478,-2.93457 -25.9435,-2.72386 -38.3657,0.31707 -14.6783,3.59321 -32.4889,7.72052 -40.3806,20.60797 -5.1517,8.41292 -4.0114,20.58231 0,29.59486 z"
             id="path1524"
             inkscape:connector-curvature="0"
             sodipodi:nodetypes="ssscsssss" />
          <path
             sodipodi:nodetypes="ssscsssss"
             inkscape:connector-curvature="0"
             id="path1526"
             d="m 2841.9521,-165.58989 c 7.5161,16.88698 24.0359,30.2559 41.2005,37.11455 5.2932,2.11507 12.2111,3.40257 17.0942,0.46201 15.0155,-9.04226 23.3312,-47.12454 23.3312,-47.12454 0,0 2.4171,-10.7673 -0.231,-15.01516 -4.7547,-7.62738 -15.276,-10.18076 -24.0243,-12.24317 -9.0688,-2.13798 -18.9011,-1.98447 -27.9513,0.23101 -10.6939,2.61783 -23.6698,5.62479 -29.4193,15.01395 -3.7533,6.12923 -2.9225,14.99525 0,21.56135 z"
             style="fill:#ffe86f;fill-opacity:1;fill-rule:evenodd;stroke:none;stroke-width:4.33516741;stroke-linecap:butt;stroke-linejoin:miter;stroke-miterlimit:4;stroke-dasharray:none;stroke-opacity:1" />
          <path
             style="fill:#f0ca00;fill-opacity:1;fill-rule:evenodd;stroke:#000000;stroke-width:5.95039988;stroke-linecap:round;stroke-linejoin:miter;stroke-miterlimit:4;stroke-dasharray:none;stroke-opacity:1"
             d="m 2818.3503,-157.19971 c 41.4608,1.60118 60.0299,24.7474 68.6,40.47964"
             id="path1528"
             inkscape:connector-curvature="0"
             sodipodi:nodetypes="cc" />
          <path
             style="fill:#83e255;fill-opacity:1;fill-rule:evenodd;stroke:#000000;stroke-width:5.95039988;stroke-linecap:round;stroke-linejoin:miter;stroke-miterlimit:4;stroke-dasharray:none;stroke-opacity:1"
             d="m 2818.4628,-175.3783 c 14.4107,-2.46768 23.0215,0.86456 30.756,5.07314"
             id="path1530"
             inkscape:connector-curvature="0"
             sodipodi:nodetypes="cc" />
          <ellipse
             transform="scale(-1,1)"
             style="opacity:0.79500002;fill:#ffffff;fill-opacity:1;fill-rule:nonzero;stroke:none;stroke-width:8.40931606;stroke-linecap:round;stroke-linejoin:round;stroke-miterlimit:4;stroke-dasharray:none;stroke-opacity:1"
             id="ellipse1532"
             cx="-2906.6956"
             cy="-183.29628"
             rx="11.718749"
             ry="9.2075891" />
          <ellipse
             transform="scale(-1,1)"
             ry="5.3571429"
             rx="6.818181"
             cy="-158.35207"
             cx="-2897.5334"
             id="ellipse1534"
             style="opacity:0.79500002;fill:#ffffff;fill-opacity:1;fill-rule:nonzero;stroke:none;stroke-width:4.89269304;stroke-linecap:round;stroke-linejoin:round;stroke-miterlimit:4;stroke-dasharray:none;stroke-opacity:1" />
          <path
             sodipodi:nodetypes="cssccc"
             inkscape:connector-curvature="0"
             id="path1536"
             d="m 2818.3503,-157.19971 c 8.2122,-0.85729 35.3938,79.949923 47.3562,82.650143 19.534,4.409346 75.9909,-18.942542 71.3411,-27.268143 -14.7773,-26.45912 -49.8022,-63.50808 -77.6825,-86.56053 l -40.9023,12.99994 z"
             style="fill:#f0ca00;fill-opacity:1;fill-rule:evenodd;stroke:#000000;stroke-width:5.95039988;stroke-linecap:butt;stroke-linejoin:miter;stroke-miterlimit:4;stroke-dasharray:none;stroke-opacity:1" />
          <path
             style="fill:#ffe86f;fill-opacity:1;fill-rule:evenodd;stroke:none;stroke-width:4.69596004;stroke-linecap:butt;stroke-linejoin:miter;stroke-miterlimit:4;stroke-dasharray:none;stroke-opacity:1"
             d="m 2832.8667,-147.92908 c 6.4809,-0.67656 27.9322,63.095194 37.3727,65.226165 15.4159,3.479785 59.9708,-14.94915 56.3013,-21.519575 -11.662,-20.88112 -39.3031,-50.11956 -61.3058,-68.31219 l -32.2795,10.25935 z"
             id="path1538"
             inkscape:connector-curvature="0"
             sodipodi:nodetypes="cssccc" />
          <path
             sodipodi:nodetypes="ssscsssss"
             inkscape:connector-curvature="0"
             id="path1540"
             d="m 2818.3503,-157.19971 c 10.3166,23.17887 32.9914,41.52889 56.5513,50.94299 7.2654,2.90312 16.7608,4.67033 23.4633,0.63415 20.6102,-12.41129 32.0242,-64.68259 32.0242,-64.68259 0,0 3.3176,-14.77906 -0.3171,-20.60963 -6.5263,-10.46925 -20.9677,-13.97399 -32.9754,-16.80482 -12.4478,-2.93457 -25.9435,-2.72386 -38.3657,0.31707 -14.6783,3.59321 -32.4889,7.72052 -40.3806,20.60797 -5.1517,8.41292 -4.0114,20.58231 0,29.59486 z"
             style="fill:#f0ca00;fill-opacity:1;fill-rule:evenodd;stroke:#000000;stroke-width:5.95039988;stroke-linecap:butt;stroke-linejoin:miter;stroke-miterlimit:4;stroke-dasharray:none;stroke-opacity:1" />
          <path
             style="fill:#ffe86f;fill-opacity:1;fill-rule:evenodd;stroke:none;stroke-width:4.33516741;stroke-linecap:butt;stroke-linejoin:miter;stroke-miterlimit:4;stroke-dasharray:none;stroke-opacity:1"
             d="m 2841.9521,-165.58989 c 7.5161,16.88698 24.0359,30.2559 41.2005,37.11455 5.2932,2.11507 12.2111,3.40257 17.0942,0.46201 15.0155,-9.04226 23.3312,-47.12454 23.3312,-47.12454 0,0 2.4171,-10.7673 -0.231,-15.01516 -4.7547,-7.62738 -15.276,-10.18076 -24.0243,-12.24317 -9.0688,-2.13798 -18.9011,-1.98447 -27.9513,0.23101 -10.6939,2.61783 -23.6698,5.62479 -29.4193,15.01395 -3.7533,6.12923 -2.9225,14.99525 0,21.56135 z"
             id="path1542"
             inkscape:connector-curvature="0"
             sodipodi:nodetypes="ssscsssss" />
          <path
             sodipodi:nodetypes="cc"
             inkscape:connector-curvature="0"
             id="path1544"
             d="m 2818.3503,-157.19971 c 41.4608,1.60118 60.0299,24.7474 68.6,40.47964"
             style="fill:#f0ca00;fill-opacity:1;fill-rule:evenodd;stroke:#000000;stroke-width:5.95039988;stroke-linecap:round;stroke-linejoin:miter;stroke-miterlimit:4;stroke-dasharray:none;stroke-opacity:1" />
          <path
             sodipodi:nodetypes="cc"
             inkscape:connector-curvature="0"
             id="path1546"
             d="m 2818.4628,-175.3783 c 14.4107,-2.46768 23.0215,0.86456 30.756,5.07314"
             style="fill:#83e255;fill-opacity:1;fill-rule:evenodd;stroke:#000000;stroke-width:5.95039988;stroke-linecap:round;stroke-linejoin:miter;stroke-miterlimit:4;stroke-dasharray:none;stroke-opacity:1" />
          <ellipse
             transform="scale(-1,1)"
             ry="9.2075891"
             rx="11.718749"
             cy="-183.29628"
             cx="-2906.6956"
             id="ellipse1548"
             style="opacity:0.79500002;fill:#ffffff;fill-opacity:1;fill-rule:nonzero;stroke:none;stroke-width:8.40931606;stroke-linecap:round;stroke-linejoin:round;stroke-miterlimit:4;stroke-dasharray:none;stroke-opacity:1" />
          <ellipse
             transform="scale(-1,1)"
             style="opacity:0.79500002;fill:#ffffff;fill-opacity:1;fill-rule:nonzero;stroke:none;stroke-width:4.89269304;stroke-linecap:round;stroke-linejoin:round;stroke-miterlimit:4;stroke-dasharray:none;stroke-opacity:1"
             id="ellipse1550"
             cx="-2897.5334"
             cy="-158.35207"
             rx="6.818181"
             ry="5.3571429" />
          <g
             id="g1584">
            <path
               style="fill:#f0ca00;fill-opacity:1;fill-rule:evenodd;stroke:#000000;stroke-width:5.95039988;stroke-linecap:butt;stroke-linejoin:miter;stroke-miterlimit:4;stroke-dasharray:none;stroke-opacity:1"
               d="m 2776.2914,-157.19971 c -8.2122,-0.85729 -35.3938,79.949923 -47.3562,82.650143 -19.534,4.409346 -75.9909,-18.942542 -71.3411,-27.268143 14.7773,-26.45912 49.8022,-63.50808 77.6825,-86.56053 l 40.9023,12.99994 z"
               id="path1552"
               inkscape:connector-curvature="0"
               sodipodi:nodetypes="cssccc" />
            <path
               sodipodi:nodetypes="cssccc"
               inkscape:connector-curvature="0"
               id="path1554"
               d="m 2761.775,-147.92908 c -6.4809,-0.67656 -27.9322,63.095194 -37.3727,65.226165 -15.4159,3.479785 -59.9708,-14.94915 -56.3013,-21.519575 11.662,-20.88112 39.3031,-50.11956 61.3058,-68.31219 l 32.2795,10.25935 z"
               style="fill:#ffe86f;fill-opacity:1;fill-rule:evenodd;stroke:none;stroke-width:4.69596004;stroke-linecap:butt;stroke-linejoin:miter;stroke-miterlimit:4;stroke-dasharray:none;stroke-opacity:1" />
            <path
               style="fill:#f0ca00;fill-opacity:1;fill-rule:evenodd;stroke:#000000;stroke-width:5.95039988;stroke-linecap:butt;stroke-linejoin:miter;stroke-miterlimit:4;stroke-dasharray:none;stroke-opacity:1"
               d="m 2776.2914,-157.19971 c -10.3166,23.17887 -32.9914,41.52889 -56.5513,50.94299 -7.2654,2.90312 -16.7608,4.67033 -23.4633,0.63415 -20.6102,-12.41129 -32.0242,-64.68259 -32.0242,-64.68259 0,0 -3.3176,-14.77906 0.3171,-20.60963 6.5263,-10.46925 20.9677,-13.97399 32.9754,-16.80482 12.4478,-2.93457 25.9435,-2.72386 38.3657,0.31707 14.6783,3.59321 32.4889,7.72052 40.3806,20.60797 5.1517,8.41292 4.0114,20.58231 0,29.59486 z"
               id="path1556"
               inkscape:connector-curvature="0"
               sodipodi:nodetypes="ssscsssss" />
            <path
               sodipodi:nodetypes="ssscsssss"
               inkscape:connector-curvature="0"
               id="path1558"
               d="m 2752.6896,-165.58989 c -7.5161,16.88698 -24.0359,30.2559 -41.2005,37.11455 -5.2932,2.11507 -12.2111,3.40257 -17.0942,0.46201 -15.0155,-9.04226 -23.3312,-47.12454 -23.3312,-47.12454 0,0 -2.4171,-10.7673 0.231,-15.01516 4.7547,-7.62738 15.276,-10.18076 24.0243,-12.24317 9.0688,-2.13798 18.9011,-1.98447 27.9513,0.23101 10.6939,2.61783 23.6698,5.62479 29.4193,15.01395 3.7533,6.12923 2.9225,14.99525 0,21.56135 z"
               style="fill:#ffe86f;fill-opacity:1;fill-rule:evenodd;stroke:none;stroke-width:4.33516741;stroke-linecap:butt;stroke-linejoin:miter;stroke-miterlimit:4;stroke-dasharray:none;stroke-opacity:1" />
            <path
               style="fill:#f0ca00;fill-opacity:1;fill-rule:evenodd;stroke:#000000;stroke-width:5.95039988;stroke-linecap:round;stroke-linejoin:miter;stroke-miterlimit:4;stroke-dasharray:none;stroke-opacity:1"
               d="m 2776.2914,-157.19971 c -41.4608,1.60118 -60.0299,24.7474 -68.6,40.47964"
               id="path1560"
               inkscape:connector-curvature="0"
               sodipodi:nodetypes="cc" />
            <path
               style="fill:#83e255;fill-opacity:1;fill-rule:evenodd;stroke:#000000;stroke-width:5.95039988;stroke-linecap:round;stroke-linejoin:miter;stroke-miterlimit:4;stroke-dasharray:none;stroke-opacity:1"
               d="m 2776.1789,-175.3783 c -14.4107,-2.46768 -23.0215,0.86456 -30.756,5.07314"
               id="path1562"
               inkscape:connector-curvature="0"
               sodipodi:nodetypes="cc" />
            <ellipse
               style="opacity:0.79500002;fill:#ffffff;fill-opacity:1;fill-rule:nonzero;stroke:none;stroke-width:8.40931606;stroke-linecap:round;stroke-linejoin:round;stroke-miterlimit:4;stroke-dasharray:none;stroke-opacity:1"
               id="ellipse1564"
               cx="2687.946"
               cy="-183.29628"
               rx="11.718749"
               ry="9.2075891" />
            <ellipse
               ry="5.3571429"
               rx="6.818181"
               cy="-158.35207"
               cx="2697.1082"
               id="ellipse1566"
               style="opacity:0.79500002;fill:#ffffff;fill-opacity:1;fill-rule:nonzero;stroke:none;stroke-width:4.89269304;stroke-linecap:round;stroke-linejoin:round;stroke-miterlimit:4;stroke-dasharray:none;stroke-opacity:1" />
            <path
               sodipodi:nodetypes="cssccc"
               inkscape:connector-curvature="0"
               id="path1568"
               d="m 2776.2914,-157.19971 c -8.2122,-0.85729 -35.3938,79.949923 -47.3562,82.650143 -19.534,4.409346 -75.9909,-18.942542 -71.3411,-27.268143 14.7773,-26.45912 49.8022,-63.50808 77.6825,-86.56053 l 40.9023,12.99994 z"
               style="fill:#f0ca00;fill-opacity:1;fill-rule:evenodd;stroke:#000000;stroke-width:5.95039988;stroke-linecap:butt;stroke-linejoin:miter;stroke-miterlimit:4;stroke-dasharray:none;stroke-opacity:1" />
            <path
               style="fill:#ffe86f;fill-opacity:1;fill-rule:evenodd;stroke:none;stroke-width:4.69596004;stroke-linecap:butt;stroke-linejoin:miter;stroke-miterlimit:4;stroke-dasharray:none;stroke-opacity:1"
               d="m 2761.775,-147.92908 c -6.4809,-0.67656 -27.9322,63.095194 -37.3727,65.226165 -15.4159,3.479785 -59.9708,-14.94915 -56.3013,-21.519575 11.662,-20.88112 39.3031,-50.11956 61.3058,-68.31219 l 32.2795,10.25935 z"
               id="path1570"
               inkscape:connector-curvature="0"
               sodipodi:nodetypes="cssccc" />
            <path
               sodipodi:nodetypes="ssscsssss"
               inkscape:connector-curvature="0"
               id="path1572"
               d="m 2776.2914,-157.19971 c -10.3166,23.17887 -32.9914,41.52889 -56.5513,50.94299 -7.2654,2.90312 -16.7608,4.67033 -23.4633,0.63415 -20.6102,-12.41129 -32.0242,-64.68259 -32.0242,-64.68259 0,0 -3.3176,-14.77906 0.3171,-20.60963 6.5263,-10.46925 20.9677,-13.97399 32.9754,-16.80482 12.4478,-2.93457 25.9435,-2.72386 38.3657,0.31707 14.6783,3.59321 32.4889,7.72052 40.3806,20.60797 5.1517,8.41292 4.0114,20.58231 0,29.59486 z"
               style="fill:#f0ca00;fill-opacity:1;fill-rule:evenodd;stroke:#000000;stroke-width:5.95039988;stroke-linecap:butt;stroke-linejoin:miter;stroke-miterlimit:4;stroke-dasharray:none;stroke-opacity:1" />
            <path
               style="fill:#ffe86f;fill-opacity:1;fill-rule:evenodd;stroke:none;stroke-width:4.33516741;stroke-linecap:butt;stroke-linejoin:miter;stroke-miterlimit:4;stroke-dasharray:none;stroke-opacity:1"
               d="m 2752.6896,-165.58989 c -7.5161,16.88698 -24.0359,30.2559 -41.2005,37.11455 -5.2932,2.11507 -12.2111,3.40257 -17.0942,0.46201 -15.0155,-9.04226 -23.3312,-47.12454 -23.3312,-47.12454 0,0 -2.4171,-10.7673 0.231,-15.01516 4.7547,-7.62738 15.276,-10.18076 24.0243,-12.24317 9.0688,-2.13798 18.9011,-1.98447 27.9513,0.23101 10.6939,2.61783 23.6698,5.62479 29.4193,15.01395 3.7533,6.12923 2.9225,14.99525 0,21.56135 z"
               id="path1574"
               inkscape:connector-curvature="0"
               sodipodi:nodetypes="ssscsssss" />
            <path
               sodipodi:nodetypes="cc"
               inkscape:connector-curvature="0"
               id="path1576"
               d="m 2776.2914,-157.19971 c -41.4608,1.60118 -60.0299,24.7474 -68.6,40.47964"
               style="fill:#f0ca00;fill-opacity:1;fill-rule:evenodd;stroke:#000000;stroke-width:5.95039988;stroke-linecap:round;stroke-linejoin:miter;stroke-miterlimit:4;stroke-dasharray:none;stroke-opacity:1" />
            <path
               sodipodi:nodetypes="cc"
               inkscape:connector-curvature="0"
               id="path1578"
               d="m 2776.1789,-175.3783 c -14.4107,-2.46768 -23.0215,0.86456 -30.756,5.07314"
               style="fill:#83e255;fill-opacity:1;fill-rule:evenodd;stroke:#000000;stroke-width:5.95039988;stroke-linecap:round;stroke-linejoin:miter;stroke-miterlimit:4;stroke-dasharray:none;stroke-opacity:1" />
            <ellipse
               ry="9.2075891"
               rx="11.718749"
               cy="-183.29628"
               cx="2687.946"
               id="ellipse1580"
               style="opacity:0.79500002;fill:#ffffff;fill-opacity:1;fill-rule:nonzero;stroke:none;stroke-width:8.40931606;stroke-linecap:round;stroke-linejoin:round;stroke-miterlimit:4;stroke-dasharray:none;stroke-opacity:1" />
            <ellipse
               style="opacity:0.79500002;fill:#ffffff;fill-opacity:1;fill-rule:nonzero;stroke:none;stroke-width:4.89269304;stroke-linecap:round;stroke-linejoin:round;stroke-miterlimit:4;stroke-dasharray:none;stroke-opacity:1"
               id="ellipse1582"
               cx="2697.1082"
               cy="-158.35207"
               rx="6.818181"
               ry="5.3571429" />
          </g>
          <path
             style="fill:#f0ca00;fill-opacity:1;fill-rule:evenodd;stroke:#000000;stroke-width:5.95039988;stroke-linecap:round;stroke-linejoin:round;stroke-miterlimit:4;stroke-dasharray:none;stroke-opacity:1"
             d="m 2815.7513,-186.79455 c 2.4299,9.45032 6.9756,22.61927 0,29.59484 -9.3008,9.30077 -30.159,9.30077 -39.4598,0 -7.0813,-7.08126 -2.1108,-20.30906 0,-30.04324 0.5604,-2.58433 3.3589,-4.43754 5.8293,-5.38089 8.7981,-3.35967 19.5776,-3.22453 28.2496,0.44841 2.3357,0.98927 4.7492,2.92422 5.3809,5.38088 z"
             id="path1586"
             inkscape:connector-curvature="0"
             sodipodi:nodetypes="ssssaas" />
          <path
             sodipodi:nodetypes="ssssaas"
             inkscape:connector-curvature="0"
             id="path1588"
             d="m 2808.9865,-182.52059 c 1.6198,6.29987 4.6502,15.07869 0,19.72883 -6.2002,6.20018 -20.105,6.20018 -26.3051,0 -4.7206,-4.72059 -1.4071,-13.53864 0,-20.02775 0.3736,-1.72279 2.2391,-2.9582 3.886,-3.58707 5.8651,-2.23966 13.051,-2.14957 18.832,0.29893 1.5571,0.65948 3.1659,1.94937 3.5871,3.58706 z"
             style="fill:#ffe86f;fill-opacity:1;fill-rule:evenodd;stroke:none;stroke-width:3.9667201;stroke-linecap:round;stroke-linejoin:round;stroke-miterlimit:4;stroke-dasharray:none;stroke-opacity:1" />
        </g>
      </g>
      <g
         id="g1598"
         transform="matrix(0.50450562,0,0,0.50450562,39.213503,-250.64133)">
        <circle
           r="25.253813"
           cy="541.22504"
           cx="273.75134"
           id="circle1594"
           style="opacity:1;fill:#000000;fill-opacity:1;fill-rule:evenodd;stroke:none;stroke-width:10;stroke-linecap:round;stroke-miterlimit:4;stroke-dasharray:none;stroke-opacity:1" />
        <circle
           r="9.0913725"
           cy="532.63873"
           cx="266.1752"
           id="circle1596"
           style="opacity:1;fill:#ffffff;fill-opacity:1;fill-rule:evenodd;stroke:none;stroke-width:10;stroke-linecap:round;stroke-miterlimit:4;stroke-dasharray:none;stroke-opacity:1" />
      </g>
    </g>
    <g
       id="g22501"
       transform="matrix(1.5464023,0,0,1.5464023,-400.47217,3.2169372)">
      <text
         id="text827"
         y="108.50739"
         x="146.05695"
         style="font-style:normal;font-variant:normal;font-weight:normal;font-stretch:normal;font-size:33.0532341px;line-height:75%;font-family:'Mf Fine Again';-inkscape-font-specification:'Mf Fine Again';text-align:center;letter-spacing:0px;word-spacing:0px;text-anchor:middle;fill:#000000;fill-opacity:1;stroke:#000000;stroke-width:1.32291663;stroke-linecap:butt;stroke-linejoin:miter;stroke-miterlimit:4;stroke-dasharray:none;stroke-opacity:1"
         xml:space="preserve"><tspan
           id="tspan22479"
           style="line-height:75%;text-align:center;letter-spacing:0px;text-anchor:middle;fill:#008000;stroke:#000000;stroke-width:1.32291663;stroke-miterlimit:4;stroke-dasharray:none;stroke-opacity:1"
           y="108.50739"
           x="146.05695"
           sodipodi:role="line"><tspan
   style="line-height:75%;text-align:center;letter-spacing:0px;text-anchor:middle;fill:#000000;stroke:#000000;stroke-width:1.32291663;stroke-miterlimit:4;stroke-dasharray:none;stroke-opacity:1"
   id="tspan22475"><tspan
     dy="0"
     id="tspan22354"
     style="line-height:75%;text-align:center;letter-spacing:0px;text-anchor:middle;fill:#ff0000;stroke:#000000;stroke-width:1.32291663;stroke-miterlimit:4;stroke-dasharray:none;stroke-opacity:1">Ka<tspan
   id="tspan22440"
   style="line-height:75%;text-align:center;letter-spacing:0px;text-anchor:middle;fill:#000000;stroke:none;stroke-width:1.32291663;stroke-miterlimit:4;stroke-dasharray:none;stroke-opacity:1">w</tspan>aii</tspan></tspan></tspan><tspan
           id="tspan22489"
           style="line-height:75%;text-align:center;letter-spacing:0px;text-anchor:middle;fill:#008000;stroke:#000000;stroke-width:1.32291663;stroke-miterlimit:4;stroke-dasharray:none;stroke-opacity:1"
           y="133.29732"
           x="146.05695"
           sodipodi:role="line">Games</tspan></text>
      <ellipse
         style="opacity:1;fill:#e37676;fill-opacity:1;fill-rule:nonzero;stroke:none;stroke-width:1.24636364;stroke-linecap:round;stroke-linejoin:round;stroke-miterlimit:4;stroke-dasharray:none;stroke-opacity:1"
         id="ellipse22438"
         cx="160.02026"
         cy="90.004631"
         rx="2.5660386"
         ry="1.0997308"
         inkscape:export-filename="..\..\..\..\..\Xmas-Hell\Xmas-Hell-Core\Content\Graphics\Sprites\Bosses\XmasSanta\cheek.png"
         inkscape:export-xdpi="100"
         inkscape:export-ydpi="100" />
      <ellipse
         inkscape:export-ydpi="100"
         inkscape:export-xdpi="100"
         inkscape:export-filename="..\..\..\..\..\Xmas-Hell\Xmas-Hell-Core\Content\Graphics\Sprites\Bosses\XmasSanta\cheek.png"
         ry="1.0997308"
         rx="2.5660386"
         cy="89.737358"
         cx="135.29784"
         id="ellipse22442"
         style="opacity:1;fill:#e37676;fill-opacity:1;fill-rule:nonzero;stroke:none;stroke-width:1.24636364;stroke-linecap:round;stroke-linejoin:round;stroke-miterlimit:4;stroke-dasharray:none;stroke-opacity:1" />
      <path
         style="fill:none;fill-rule:evenodd;stroke:#000000;stroke-width:3;stroke-linecap:round;stroke-linejoin:miter;stroke-miterlimit:4;stroke-dasharray:none;stroke-opacity:1"
         d="m 150.78821,86.868138 c 0,-5.71016 6.19168,-5.683285 6.19168,0"
         id="path22448"
         inkscape:connector-curvature="0"
         sodipodi:nodetypes="cc" />
      <path
         sodipodi:nodetypes="cc"
         inkscape:connector-curvature="0"
         id="path22450"
         d="m 139.2288,86.868138 c 0,-5.71016 6.19168,-5.683285 6.19168,0"
         style="fill:none;fill-rule:evenodd;stroke:#000000;stroke-width:3;stroke-linecap:round;stroke-linejoin:miter;stroke-miterlimit:4;stroke-dasharray:none;stroke-opacity:1" />
    </g>
    <text
       xml:space="preserve"
       style="font-style:normal;font-variant:normal;font-weight:normal;font-stretch:normal;font-size:37.84607315px;line-height:125%;font-family:'Mf Fine Again';-inkscape-font-specification:'Mf Fine Again';letter-spacing:0px;word-spacing:0px;fill:#000000;fill-opacity:1;stroke:none;stroke-width:0.50686711px;stroke-linecap:butt;stroke-linejoin:miter;stroke-opacity:1"
       x="86.594025"
       y="268.5282"
       id="text22560"
       inkscape:export-filename="D:\Projets\Xmas-Hell\Xmas-Hell\Creations\Graphics\Splashscreen\loading.png"
       inkscape:export-xdpi="31"
       inkscape:export-ydpi="31"><tspan
         sodipodi:role="line"
         id="tspan22558"
         x="86.594025"
         y="268.5282"
         style="stroke-width:0.50686711px">Loading</tspan></text>
    <text
       xml:space="preserve"
       style="font-style:normal;font-variant:normal;font-weight:normal;font-stretch:normal;font-size:28.27190781px;line-height:125%;font-family:'Mf Fine Again';-inkscape-font-specification:'Mf Fine Again';letter-spacing:0px;word-spacing:0px;fill:#000000;fill-opacity:1;stroke:none;stroke-width:0.37864164px;stroke-linecap:butt;stroke-linejoin:miter;stroke-opacity:1"
       x="208.34348"
       y="269.11737"
       id="text22564"
       inkscape:export-filename="D:\Projets\Xmas-Hell\Xmas-Hell\Creations\Graphics\Splashscreen\dot.png"
       inkscape:export-xdpi="50"
       inkscape:export-ydpi="50"><tspan
         sodipodi:role="line"
         id="tspan22562"
         x="208.34348"
         y="269.11737"
         style="stroke-width:0.37864164px">.</tspan></text>
    <text
       id="text22568"
       y="269.11737"
       x="212.26511"
       style="font-style:normal;font-variant:normal;font-weight:normal;font-stretch:normal;font-size:28.27190781px;line-height:125%;font-family:'Mf Fine Again';-inkscape-font-specification:'Mf Fine Again';letter-spacing:0px;word-spacing:0px;fill:#000000;fill-opacity:1;stroke:none;stroke-width:0.37864164px;stroke-linecap:butt;stroke-linejoin:miter;stroke-opacity:1"
       xml:space="preserve"><tspan
         style="stroke-width:0.37864164px"
         y="269.11737"
         x="212.26511"
         id="tspan22566"
         sodipodi:role="line">.</tspan></text>
    <text
       xml:space="preserve"
       style="font-style:normal;font-variant:normal;font-weight:normal;font-stretch:normal;font-size:28.27190781px;line-height:125%;font-family:'Mf Fine Again';-inkscape-font-specification:'Mf Fine Again';letter-spacing:0px;word-spacing:0px;fill:#000000;fill-opacity:1;stroke:none;stroke-width:0.37864164px;stroke-linecap:butt;stroke-linejoin:miter;stroke-opacity:1"
       x="216.32199"
       y="269.11737"
       id="text22572"><tspan
         sodipodi:role="line"
         id="tspan22570"
         x="216.32199"
         y="269.11737"
         style="stroke-width:0.37864164px">.</tspan></text>
  </g>
</svg>
