<?xml version="1.0" encoding="UTF-8" standalone="no"?>
<!-- Created with Inkscape (http://www.inkscape.org/) -->

<svg
   xmlns:dc="http://purl.org/dc/elements/1.1/"
   xmlns:cc="http://creativecommons.org/ns#"
   xmlns:rdf="http://www.w3.org/1999/02/22-rdf-syntax-ns#"
   xmlns:svg="http://www.w3.org/2000/svg"
   xmlns="http://www.w3.org/2000/svg"
   xmlns:sodipodi="http://sodipodi.sourceforge.net/DTD/sodipodi-0.dtd"
   xmlns:inkscape="http://www.inkscape.org/namespaces/inkscape"
   width="1080"
   height="1920"
   viewBox="0 0 1080 1920.0001"
   id="svg4195"
   version="1.1"
   inkscape:version="0.91 r13725"
   sodipodi:docname="xmas-log.svg">
  <defs
     id="defs4197" />
  <sodipodi:namedview
     id="base"
     pagecolor="#ffffff"
     bordercolor="#666666"
     borderopacity="1.0"
     inkscape:pageopacity="0.0"
     inkscape:pageshadow="2"
     inkscape:zoom="0.7"
     inkscape:cx="252.68207"
     inkscape:cy="1481.324"
     inkscape:document-units="px"
     inkscape:current-layer="layer1"
     showgrid="false"
     inkscape:window-width="1920"
     inkscape:window-height="1027"
     inkscape:window-x="1912"
     inkscape:window-y="-8"
     inkscape:window-maximized="1"
     units="px"
     showguides="false" />
  <metadata
     id="metadata4200">
    <rdf:RDF>
      <cc:Work
         rdf:about="">
        <dc:format>image/svg+xml</dc:format>
        <dc:type
           rdf:resource="http://purl.org/dc/dcmitype/StillImage" />
        <dc:title></dc:title>
      </cc:Work>
    </rdf:RDF>
  </metadata>
  <g
     inkscape:label="Calque 1"
     inkscape:groupmode="layer"
     id="layer1"
     transform="translate(0,867.63859)">
    <ellipse
       style="opacity:1;fill:#f9ecd9;fill-opacity:1;fill-rule:nonzero;stroke:#000000;stroke-width:10.00000095;stroke-linecap:round;stroke-linejoin:round;stroke-miterlimit:4;stroke-dasharray:none;stroke-opacity:1"
       id="path4743"
       cx="-306.32959"
       cy="-304.78149"
       rx="40.074467"
       ry="103.54679" />
    <path
       style="fill:#644515;fill-opacity:1;fill-rule:evenodd;stroke:#000000;stroke-width:10.00000095;stroke-linecap:round;stroke-linejoin:round;stroke-miterlimit:4;stroke-dasharray:none;stroke-opacity:1"
       d="m 166.59496,-268.32824 c 0,0 30.7734,-12.74473 47.05227,-13.13198 24.3508,-0.57927 46.89408,15.44718 71.23771,16.27454 29.05086,0.98734 57.11425,-15.25304 86.13511,-13.60473 16.64047,0.94513 31.52751,12.89158 48.18868,13.3431 23.03719,0.6243 44.55908,-16.6521 67.53127,-14.81359 14.14291,1.13188 25.44748,14.55904 39.59615,15.61638 21.98471,1.64294 42.40622,-15.22318 64.44909,-14.85107 14.46474,0.24419 29.58628,10.27488 41.93907,11.16734 75.67269,5.46714 55.03951,203.574571 0.5273,207.09359 l -465.07476,3e-6 c 48.6821,-11.1886 48.8613,-200.925553 -1.58189,-207.093583 z"
       id="path4747"
       inkscape:connector-curvature="0"
       sodipodi:nodetypes="caaaaaaasccc" />
    <path
       sodipodi:type="spiral"
       style="fill:none;fill-opacity:1;fill-rule:evenodd;stroke:#483526;stroke-width:10.00000095;stroke-linecap:round;stroke-linejoin:miter;stroke-miterlimit:4;stroke-dasharray:none;stroke-opacity:1"
       id="path4761"
       sodipodi:cx="118.57137"
       sodipodi:cy="-161.92435"
       sodipodi:expansion="1"
       sodipodi:revolution="3"
       sodipodi:radius="89.099808"
       sodipodi:argument="-17.488733"
       sodipodi:t0="0"
       d="m 118.57137,-161.92435 c 0.93115,4.36921 -5.4302,3.41078 -7.2619,1.54762 -4.96379,-5.04902 -1.07802,-13.08144 4.16666,-16.07143 9.38151,-5.34838 20.79929,0.7183 24.88096,9.88095 5.99,13.44656 -2.50267,28.64539 -15.59524,33.69048 -17.45033,6.72431 -36.5401,-4.27803 -42.5,-21.30951 -7.499925,-21.43239 6.047949,-44.45875 27.0238,-51.30953 25.40457,-8.29722 52.39101,7.81456 60.11906,32.73808 9.10723,29.37151 -9.57908,60.33179 -38.45237,68.92858 -33.33536,9.925331 -68.278266,-11.3422 -77.738108,-44.16665 -10.748874,-37.29724 13.104345,-76.22872 49.880938,-86.54763 41.25778,-11.57626 84.18207,14.86579 95.35715,55.59522 12.40646,45.21738 -16.62672,92.137612 -61.3095,104.166678"
       transform="matrix(0.31513083,0,0,0.94550627,-350.15139,-154.93089)" />
    <ellipse
       ry="102.64542"
       rx="56.315948"
       cy="-164.78148"
       cx="165.09903"
       id="ellipse4775"
       style="opacity:1;fill:#f9ecd9;fill-opacity:1;fill-rule:nonzero;stroke:#000000;stroke-width:11.80275345;stroke-linecap:round;stroke-linejoin:round;stroke-miterlimit:4;stroke-dasharray:none;stroke-opacity:1" />
    <path
       transform="matrix(0.48548305,0,0,0.93776103,104.10262,-16.13932)"
       d="m 118.57137,-161.92435 c 0.93115,4.36921 -5.4302,3.41078 -7.2619,1.54762 -4.96379,-5.04902 -1.07802,-13.08144 4.16666,-16.07143 9.38151,-5.34838 20.79929,0.7183 24.88096,9.88095 5.99,13.44656 -2.50267,28.64539 -15.59524,33.69048 -17.45033,6.72431 -36.5401,-4.27803 -42.5,-21.30951 -7.499925,-21.43239 6.047949,-44.45875 27.0238,-51.30953 25.40457,-8.29722 52.39101,7.81456 60.11906,32.73808 9.10723,29.37151 -9.57908,60.33179 -38.45237,68.92858 -33.33536,9.925331 -68.278266,-11.3422 -77.738108,-44.16665 -10.748874,-37.29724 13.104345,-76.22872 49.880938,-86.54763 41.25778,-11.57626 84.18207,14.86579 95.35715,55.59522 12.40646,45.21738 -16.62672,92.137612 -61.3095,104.166678"
       sodipodi:t0="0"
       sodipodi:argument="-17.488733"
       sodipodi:radius="89.099808"
       sodipodi:revolution="3"
       sodipodi:expansion="1"
       sodipodi:cy="-161.92435"
       sodipodi:cx="118.57137"
       id="path4777"
       style="fill:none;fill-opacity:1;fill-rule:evenodd;stroke:#483526;stroke-width:10.00000095;stroke-linecap:round;stroke-linejoin:miter;stroke-miterlimit:4;stroke-dasharray:none;stroke-opacity:1"
       sodipodi:type="spiral" />
    <path
       style="fill:none;fill-opacity:1;fill-rule:evenodd;stroke:#f9ecd9;stroke-width:10.00000095;stroke-linecap:round;stroke-linejoin:round;stroke-miterlimit:4;stroke-dasharray:none;stroke-opacity:1"
       d="m 245.8578,-237.42322 c 5.71429,0 58.20043,18.24789 88.29659,18.9924 42.29505,1.04629 82.96157,-21.67662 125.25382,-20.5225 34.19947,0.93328 66.0575,23.73775 100.23023,22.09465 27.35028,-1.31505 78.15301,-25.29842 78.15301,-25.29842"
       id="path4867"
       inkscape:connector-curvature="0"
       sodipodi:nodetypes="caaac" />
    <path
       sodipodi:nodetypes="caasc"
       inkscape:connector-curvature="0"
       id="path4869"
       d="m 242.82734,-160.14655 c 5.71429,0 66.92359,-34.68412 103.44888,-36.56599 37.53119,-1.9337 72.09882,23.94824 109.59645,26.4496 34.529,2.30333 72.69993,-16.25027 103.26069,-10.73531 26.67439,4.81363 77.14286,25.71428 77.14286,25.71428"
       style="fill:none;fill-opacity:1;fill-rule:evenodd;stroke:#f9ecd9;stroke-width:10.00000095;stroke-linecap:round;stroke-linejoin:round;stroke-miterlimit:4;stroke-dasharray:none;stroke-opacity:1" />
    <path
       style="fill:none;fill-opacity:1;fill-rule:evenodd;stroke:#f9ecd9;stroke-width:10.00000095;stroke-linecap:round;stroke-linejoin:round;stroke-miterlimit:4;stroke-dasharray:none;stroke-opacity:1"
       d="m 241.31212,-122.7709 c 5.71429,0 60.19835,-26.34022 92.33719,-28.48477 41.04675,-2.73896 81.04198,14.24246 121.71828,20.38868 33.33376,5.03675 66.52214,14.03024 100.23024,13.50836 25.72359,-0.39826 76.13271,-12.67152 76.13271,-12.67152"
       id="path4871"
       inkscape:connector-curvature="0"
       sodipodi:nodetypes="caaac" />
    <path
       sodipodi:nodetypes="caaac"
       inkscape:connector-curvature="0"
       id="path4873"
       d="m 239.79689,-86.910481 c 5.71429,0 66.19977,-31.419699 101.42857,-29.999999 35.69801,1.4386 64.39944,35.568509 100,38.571429 38.24702,3.226139 74.54559,-25.195549 112.85714,-22.857139 27.05489,1.651329 77.14286,25.714279 77.14286,25.714279"
       style="fill:none;fill-opacity:1;fill-rule:evenodd;stroke:#f9ecd9;stroke-width:10.00000095;stroke-linecap:round;stroke-linejoin:round;stroke-miterlimit:4;stroke-dasharray:none;stroke-opacity:1" />
  </g>
</svg>
