<?xml version="1.0" encoding="UTF-8" standalone="no"?>
<!-- Created with Inkscape (http://www.inkscape.org/) -->

<svg
   xmlns:dc="http://purl.org/dc/elements/1.1/"
   xmlns:cc="http://creativecommons.org/ns#"
   xmlns:rdf="http://www.w3.org/1999/02/22-rdf-syntax-ns#"
   xmlns:svg="http://www.w3.org/2000/svg"
   xmlns="http://www.w3.org/2000/svg"
   xmlns:sodipodi="http://sodipodi.sourceforge.net/DTD/sodipodi-0.dtd"
   xmlns:inkscape="http://www.inkscape.org/namespaces/inkscape"
   width="210mm"
   height="297mm"
   viewBox="0 0 744.09448819 1052.3622047"
   id="svg5397"
   version="1.1"
   inkscape:version="0.91 r13725"
   sodipodi:docname="xmas-snowflake.svg">
  <defs
     id="defs5399" />
  <sodipodi:namedview
     id="base"
     pagecolor="#ffffff"
     bordercolor="#666666"
     borderopacity="1.0"
     inkscape:pageopacity="0.0"
     inkscape:pageshadow="2"
     inkscape:zoom="0.7"
     inkscape:cx="86.824711"
     inkscape:cy="803.22403"
     inkscape:document-units="px"
     inkscape:current-layer="layer1"
     showgrid="false"
     inkscape:window-width="1920"
     inkscape:window-height="1027"
     inkscape:window-x="1912"
     inkscape:window-y="-8"
     inkscape:window-maximized="1" />
  <metadata
     id="metadata5402">
    <rdf:RDF>
      <cc:Work
         rdf:about="">
        <dc:format>image/svg+xml</dc:format>
        <dc:type
           rdf:resource="http://purl.org/dc/dcmitype/StillImage" />
        <dc:title></dc:title>
      </cc:Work>
    </rdf:RDF>
  </metadata>
  <g
     inkscape:label="Calque 1"
     inkscape:groupmode="layer"
     id="layer1">
    <path
       style="fill:#b3e5fc;fill-opacity:1;fill-rule:evenodd;stroke:#000000;stroke-width:10;stroke-linecap:butt;stroke-linejoin:miter;stroke-miterlimit:4;stroke-dasharray:none;stroke-opacity:1"
       d="m 370.54245,503.16813 0,76.77149 c 0,0 -36.08029,10.92114 -44.70704,25.81054 -3.45163,5.95736 -4.92352,15.78036 -0.0625,20.65626 4.59317,4.60721 13.23164,1.68379 19.51563,0 9.60569,-2.57384 25.83789,-14.91797 25.83789,-14.91797 l 0,27.48242 c 0,0 -36.55982,10.37332 -45.31836,25.29101 -3.77167,6.42397 -5.26749,17.08017 0,22.34766 4.77753,4.77753 13.7623,1.81809 20.26953,0 9.3263,-2.60572 24.84375,-15.05859 24.84375,-15.05859 l 0,32.91601 c 0,10.13195 30.86324,9.73976 30.86324,-0.0234 l 0,-32.91601 c 0,0 15.51745,12.45287 24.84375,15.05859 6.50723,1.81809 15.492,4.77753 20.26953,0 5.26749,-5.26749 3.77167,-15.92368 0,-22.34765 -8.75854,-14.91769 -45.31835,-25.29102 -45.31835,-25.29102 l 0,-27.48242 c 0,0 16.2322,12.34413 25.83789,14.91797 6.28399,1.68379 14.9244,4.60722 19.51757,0 4.86102,-4.87589 3.38718,-14.69889 -0.0644,-20.65625 -8.62675,-14.8894 -44.70703,-25.81055 -44.70703,-25.81055 l 0,-76.77344 c 0,-10.54039 -31.6211,-10.54298 -31.6211,0.0254 z"
       id="path5999"
       inkscape:connector-curvature="0"
       sodipodi:nodetypes="ccsssccssscsscsssccssscssc" />
    <path
       style="fill:#b3e5fc;fill-opacity:1;fill-rule:evenodd;stroke:#000000;stroke-width:10;stroke-linecap:butt;stroke-linejoin:miter;stroke-miterlimit:4;stroke-dasharray:none;stroke-opacity:1"
       d="m 405.03698,338.73523 0,-76.77149 c 0,0 36.08029,-10.92114 44.70704,-25.81054 3.45163,-5.95736 4.92352,-15.78036 0.0625,-20.65626 -4.59317,-4.60721 -13.23164,-1.68379 -19.51563,0 -9.60569,2.57384 -25.83789,14.91797 -25.83789,14.91797 l 0,-27.48242 c 0,0 36.55982,-10.37332 45.31836,-25.29101 3.77167,-6.42397 5.26749,-17.08017 0,-22.34766 -4.77753,-4.77753 -13.7623,-1.81809 -20.26953,0 -9.3263,2.60572 -24.84375,15.05859 -24.84375,15.05859 l 0,-32.91601 c 0,-10.13195 -30.86324,-9.73976 -30.86324,0.0234 l 0,32.91601 c 0,0 -15.51745,-12.45287 -24.84375,-15.05859 -6.50723,-1.81809 -15.492,-4.77753 -20.26953,0 -5.26749,5.26749 -3.77167,15.92368 0,22.34765 8.75854,14.91769 45.31835,25.29102 45.31835,25.29102 l 0,27.48242 c 0,0 -16.2322,-12.34413 -25.83789,-14.91797 -6.28399,-1.68379 -14.9244,-4.60722 -19.51757,0 -4.86102,4.87589 -3.38718,14.69889 0.0644,20.65625 8.62675,14.8894 44.70703,25.81055 44.70703,25.81055 l 0,76.77344 c 0,10.54039 31.6211,10.54298 31.6211,-0.0254 z"
       id="path5999-7"
       inkscape:connector-curvature="0"
       sodipodi:nodetypes="ccsssccssscsscsssccssscssc" />
    <path
       style="fill:#b3e5fc;fill-opacity:1;fill-rule:evenodd;stroke:#000000;stroke-width:10;stroke-linecap:butt;stroke-linejoin:miter;stroke-miterlimit:4;stroke-dasharray:none;stroke-opacity:1"
       d="m 300.25621,401.64635 -76.77149,0 c 0,0 -10.92114,-36.08029 -25.81054,-44.70704 -5.95736,-3.45163 -15.78036,-4.92352 -20.65626,-0.0625 -4.60721,4.59317 -1.68379,13.23164 0,19.51563 2.57384,9.60569 14.91797,25.83789 14.91797,25.83789 l -27.48242,0 c 0,0 -10.37332,-36.55982 -25.29101,-45.31836 -6.42397,-3.77167 -17.08017,-5.26749 -22.34766,0 -4.77753,4.77753 -1.81809,13.7623 0,20.26953 2.60572,9.3263 15.05859,24.84375 15.05859,24.84375 l -32.916006,0 c -10.13195,0 -9.73976,30.86324 0.0234,30.86324 l 32.916006,0 c 0,0 -12.45287,15.51745 -15.05859,24.84375 -1.81809,6.50723 -4.77753,15.492 0,20.26953 5.26749,5.26749 15.92368,3.77167 22.34765,0 14.91769,-8.75854 25.29102,-45.31835 25.29102,-45.31835 l 27.48242,0 c 0,0 -12.34413,16.2322 -14.91797,25.83789 -1.68379,6.28399 -4.60722,14.9244 0,19.51757 4.87589,4.86102 14.69889,3.38718 20.65625,-0.0644 14.8894,-8.62675 25.81055,-44.70703 25.81055,-44.70703 l 76.77344,0 c 10.54039,0 10.54298,-31.6211 -0.0254,-31.6211 z"
       id="path5999-7-8"
       inkscape:connector-curvature="0"
       sodipodi:nodetypes="ccsssccssscsscsssccssscssc" />
    <path
       style="fill:#b3e5fc;fill-opacity:1;fill-rule:evenodd;stroke:#000000;stroke-width:10;stroke-linecap:butt;stroke-linejoin:miter;stroke-miterlimit:4;stroke-dasharray:none;stroke-opacity:1"
       d="m 621.17748,559.01534 c 0,5.79043 -1.78599,11.58091 -5.35742,15.15234 -9.76191,9.76191 -41.41601,0 -41.41601,0 l 37.88867,31.47071 c 10.41101,8.64749 -21.10459,38.44618 -28.97461,28.9707 L 551.8474,596.71846 c 0,0 9.76192,31.65411 0,41.41602 -7.14286,7.14286 -23.16182,7.14286 -30.30468,0 -17.14286,-17.14286 0,-72.73047 0,-72.73047 l -89.9043,-89.90234 c -7.06481,-7.06465 14.83366,-28.2562 21.54688,-21.54298 l 89.90429,89.9043 c 0,0 55.58761,-17.14285 72.73047,0 3.57143,3.57144 5.35742,9.36192 5.35742,15.15235 z"
       id="path6070-9-5"
       inkscape:connector-curvature="0"
       sodipodi:nodetypes="sscsscsscsscss" />
    <path
       style="fill:#b3e5fc;fill-opacity:1;fill-rule:evenodd;stroke:#000000;stroke-width:10;stroke-linecap:butt;stroke-linejoin:miter;stroke-miterlimit:4;stroke-dasharray:none;stroke-opacity:1"
       d="m 477.54166,431.89807 76.77149,0 c 0,0 10.92114,36.08029 25.81054,44.70704 5.95736,3.45163 15.78036,4.92352 20.65626,0.0625 4.60721,-4.59317 1.68379,-13.23164 0,-19.51563 -2.57384,-9.60569 -14.91797,-25.83789 -14.91797,-25.83789 l 27.48242,0 c 0,0 10.37332,36.55982 25.29101,45.31836 6.42397,3.77167 17.08017,5.26749 22.34766,0 4.77753,-4.77753 1.81809,-13.7623 0,-20.26953 -2.60572,-9.3263 -15.05859,-24.84375 -15.05859,-24.84375 l 32.91601,0 c 10.13194,0 9.73975,-30.86324 -0.0234,-30.86324 l -32.91601,0 c 0,0 12.45287,-15.51745 15.05859,-24.84375 1.81809,-6.50723 4.77753,-15.492 0,-20.26953 -5.26749,-5.26749 -15.92368,-3.77167 -22.34765,0 C 623.69433,364.30119 613.321,400.861 613.321,400.861 l -27.48242,0 c 0,0 12.34413,-16.2322 14.91797,-25.83789 1.68379,-6.28399 4.60722,-14.9244 0,-19.51757 -4.87589,-4.86102 -14.69889,-3.38718 -20.65625,0.0644 -14.8894,8.62675 -25.81055,44.70703 -25.81055,44.70703 l -76.77344,0 c -10.54039,0 -10.54298,31.6211 0.0254,31.6211 z"
       id="path5999-7-0"
       inkscape:connector-curvature="0"
       sodipodi:nodetypes="ccsssccssscsscsssccssscssc" />
    <path
       style="fill:#b3e5fc;fill-opacity:1;fill-rule:evenodd;stroke:#000000;stroke-width:10;stroke-linecap:butt;stroke-linejoin:miter;stroke-miterlimit:4;stroke-dasharray:none;stroke-opacity:1"
       d="m 246.43403,198.99696 c -5.79043,0 -11.58091,1.78599 -15.15234,5.35742 -9.76191,9.76191 0,41.41601 0,41.41601 l -31.47071,-37.88867 c -8.64749,-10.41101 -38.44618,21.10459 -28.9707,28.97461 l 37.89063,31.47071 c 0,0 -31.65411,-9.76192 -41.41602,0 -7.14286,7.14286 -7.14286,23.16182 0,30.30468 17.14286,17.14286 72.73047,0 72.73047,0 l 89.90234,89.9043 c 7.06465,7.06481 28.2562,-14.83366 21.54297,-21.54688 l -89.9043,-89.90429 c 0,0 17.14286,-55.58761 0,-72.73047 -3.57143,-3.57143 -9.36191,-5.35742 -15.15234,-5.35742 z"
       id="path6070"
       inkscape:connector-curvature="0"
       sodipodi:nodetypes="sscsscsscsscss" />
    <path
       style="fill:#b3e5fc;fill-opacity:1;fill-rule:evenodd;stroke:#000000;stroke-width:10;stroke-linecap:butt;stroke-linejoin:miter;stroke-miterlimit:4;stroke-dasharray:none;stroke-opacity:1"
       d="m 165.96552,557.58597 c 0,5.79043 1.78599,11.58091 5.35742,15.15234 9.76191,9.76191 41.41601,0 41.41601,0 l -37.88867,31.47071 c -10.41101,8.64749 21.10459,38.44618 28.97461,28.9707 l 31.47071,-37.89063 c 0,0 -9.76192,31.65411 0,41.41602 7.14286,7.14286 23.16182,7.14286 30.30468,0 17.14286,-17.14286 0,-72.73047 0,-72.73047 l 89.9043,-89.90234 c 7.06481,-7.06465 -14.83366,-28.2562 -21.54688,-21.54298 l -89.90429,89.9043 c 0,0 -55.58761,-17.14285 -72.73047,0 -3.57143,3.57144 -5.35742,9.36192 -5.35742,15.15235 z"
       id="path6070-9"
       inkscape:connector-curvature="0"
       sodipodi:nodetypes="sscsscsscsscss" />
    <path
       style="fill:#b3e5fc;fill-opacity:1;fill-rule:evenodd;stroke:#000000;stroke-width:10;stroke-linecap:butt;stroke-linejoin:miter;stroke-miterlimit:4;stroke-dasharray:none;stroke-opacity:1"
       d="m 614.03462,269.99478 c 0,-5.79043 -1.78599,-11.58091 -5.35742,-15.15234 -9.76191,-9.76191 -41.41601,0 -41.41601,0 l 37.88867,-31.47071 c 10.41101,-8.64749 -21.10459,-38.44618 -28.97461,-28.9707 l -31.47071,37.89063 c 0,0 9.76192,-31.65411 0,-41.41602 -7.14286,-7.14286 -23.16182,-7.14286 -30.30468,0 -17.14286,17.14286 0,72.73047 0,72.73047 l -89.9043,89.90234 c -7.06481,7.06465 14.83366,28.2562 21.54688,21.54298 l 89.90429,-89.9043 c 0,0 55.58761,17.14285 72.73047,0 3.57143,-3.57144 5.35742,-9.36192 5.35742,-15.15235 z"
       id="path6070-9-5-2"
       inkscape:connector-curvature="0"
       sodipodi:nodetypes="sscsscsscsscss" />
    <circle
       style="opacity:1;fill:#b3e5fc;fill-opacity:1;fill-rule:nonzero;stroke:#000000;stroke-width:10;stroke-miterlimit:4;stroke-dasharray:none;stroke-opacity:1"
       id="path5945"
       cx="388.57144"
       cy="421.64792"
       r="97.85714" />
    <path
       style="fill:none;fill-rule:evenodd;stroke:#000000;stroke-width:10;stroke-linecap:round;stroke-linejoin:miter;stroke-miterlimit:4;stroke-dasharray:none;stroke-opacity:1"
       d="m 364.28571,434.04204 c 0,0 12.60769,-23.21429 23.21429,-23.21429 10.6066,0 22.79586,22.79586 22.79586,22.79586"
       id="path5947"
       inkscape:connector-curvature="0"
       sodipodi:nodetypes="czc" />
    <circle
       style="opacity:1;fill:#000000;fill-opacity:1;fill-rule:nonzero;stroke:none;stroke-width:10;stroke-miterlimit:4;stroke-dasharray:none;stroke-opacity:1"
       id="path5953"
       cx="366.68539"
       cy="389.70212"
       r="10.606602" />
    <circle
       style="opacity:1;fill:#ffffff;fill-opacity:1;fill-rule:nonzero;stroke:none;stroke-width:10;stroke-miterlimit:4;stroke-dasharray:none;stroke-opacity:1"
       id="path5955"
       cx="366.7485"
       cy="396.96262"
       r="3.2829959" />
    <path
       style="fill:none;fill-rule:evenodd;stroke:#000000;stroke-width:10;stroke-linecap:butt;stroke-linejoin:round;stroke-miterlimit:4;stroke-dasharray:none;stroke-opacity:1"
       d="m 353.61104,371.52536 29.64131,12.1565"
       id="path5957"
       inkscape:connector-curvature="0"
       sodipodi:nodetypes="cc" />
    <circle
       style="opacity:1;fill:#000000;fill-opacity:1;fill-rule:nonzero;stroke:none;stroke-width:10;stroke-miterlimit:4;stroke-dasharray:none;stroke-opacity:1"
       id="path5953-3"
       cx="-408.17487"
       cy="389.88889"
       r="10.606602"
       transform="scale(-1,1)" />
    <circle
       style="opacity:1;fill:#ffffff;fill-opacity:1;fill-rule:nonzero;stroke:none;stroke-width:10;stroke-miterlimit:4;stroke-dasharray:none;stroke-opacity:1"
       id="path5955-1"
       cx="-408.11176"
       cy="397.14938"
       r="3.2829959"
       transform="scale(-1,1)" />
    <path
       style="fill:none;fill-rule:evenodd;stroke:#000000;stroke-width:10;stroke-linecap:butt;stroke-linejoin:round;stroke-miterlimit:4;stroke-dasharray:none;stroke-opacity:1"
       d="m 421.24923,371.71213 -29.64131,12.1565"
       id="path5957-2"
       inkscape:connector-curvature="0"
       sodipodi:nodetypes="cc" />
  </g>
</svg>
