<?xml version="1.0" encoding="UTF-8" standalone="no"?>
<!-- Created with Inkscape (http://www.inkscape.org/) -->

<svg
   xmlns:dc="http://purl.org/dc/elements/1.1/"
   xmlns:cc="http://creativecommons.org/ns#"
   xmlns:rdf="http://www.w3.org/1999/02/22-rdf-syntax-ns#"
   xmlns:svg="http://www.w3.org/2000/svg"
   xmlns="http://www.w3.org/2000/svg"
   xmlns:sodipodi="http://sodipodi.sourceforge.net/DTD/sodipodi-0.dtd"
   xmlns:inkscape="http://www.inkscape.org/namespaces/inkscape"
   width="210mm"
   height="297mm"
   viewBox="0 0 744.09448819 1052.3622047"
   id="svg4857"
   version="1.1"
   inkscape:version="0.91 r13725"
   sodipodi:docname="xmas-bell.svg"
   inkscape:export-filename="D:\Projets\Xmas-Hell\Creations\Graphics\Sprites\Bosses\XmasBell\xmas-bell.png"
   inkscape:export-xdpi="45.207443"
   inkscape:export-ydpi="45.207443">
  <defs
     id="defs4859">
    <inkscape:path-effect
       effect="spiro"
       id="path-effect5421"
       is_visible="true" />
  </defs>
  <sodipodi:namedview
     id="base"
     pagecolor="#ffffff"
     bordercolor="#666666"
     borderopacity="1.0"
     inkscape:pageopacity="0.0"
     inkscape:pageshadow="2"
     inkscape:zoom="0.50000001"
     inkscape:cx="-8.2500569"
     inkscape:cy="548.31408"
     inkscape:document-units="px"
     inkscape:current-layer="layer1"
     showgrid="false"
     inkscape:window-width="1920"
     inkscape:window-height="1027"
     inkscape:window-x="1912"
     inkscape:window-y="-8"
     inkscape:window-maximized="1"
     showguides="false" />
  <metadata
     id="metadata4862">
    <rdf:RDF>
      <cc:Work
         rdf:about="">
        <dc:format>image/svg+xml</dc:format>
        <dc:type
           rdf:resource="http://purl.org/dc/dcmitype/StillImage" />
      </cc:Work>
    </rdf:RDF>
  </metadata>
  <g
     inkscape:label="Calque 1"
     inkscape:groupmode="layer"
     id="layer1">
    <path
       style="fill:none;fill-rule:evenodd;stroke:#000000;stroke-width:18.3005867;stroke-linecap:butt;stroke-linejoin:miter;stroke-miterlimit:4;stroke-dasharray:none;stroke-opacity:1"
       d="m 360.12465,297.34833 0,432.2116"
       id="path4704"
       inkscape:connector-curvature="0"
       sodipodi:nodetypes="cc"
       inkscape:export-xdpi="41.012386"
       inkscape:export-ydpi="41.012386"
       inkscape:export-filename="D:\Projets\Xmas-Hell\Creations\Graphics\Sprites\Bosses\XmasBell\clapper.png" />
    <circle
       style="opacity:1;fill:#ffd800;fill-opacity:1;fill-rule:nonzero;stroke:#000000;stroke-width:18.3005867;stroke-miterlimit:4;stroke-dasharray:none;stroke-opacity:1"
       id="path4712"
       cx="355.65332"
       cy="772.25647"
       r="34.167412"
       inkscape:export-xdpi="41"
       inkscape:export-ydpi="41"
       inkscape:export-filename="D:\Projets\Xmas-Hell\Creations\Graphics\Sprites\Bosses\XmasBell\clapper-ball.png" />
    <g
       id="g4707"
       inkscape:export-filename="D:\Projets\Xmas-Hell\Creations\Graphics\Sprites\Bosses\XmasBell\body.png"
       inkscape:export-xdpi="41.02"
       inkscape:export-ydpi="41.02"
       transform="matrix(1.5130639,0,0,1.5130639,-189.7386,-287.54749)">
      <path
         inkscape:export-ydpi="90"
         inkscape:export-xdpi="90"
         sodipodi:nodetypes="ccsccscccccsccscccc"
         inkscape:connector-curvature="0"
         id="path5470"
         d="m 367.0284,388.10804 0,0.004 c -40.28447,-0.004 -31.73494,-0.0699 -53.97314,0.59532 -9.76581,0.29217 -54.10479,4.40817 -78.57839,37.95936 -41.53658,59.4847 -35.6524,139.66001 -38.2763,217.0789 -1.83164,25.86816 -59.13671,40.25927 -30.68272,40.25927 67.25498,0 201.76325,0.83089 201.76325,0.83089 l 0,0.009 0.84371,-0.004 0.83945,0.004 0,-0.009 c 0,0 82.7877,-0.83089 201.76324,-0.83089 16.87285,0 -28.85107,-14.39111 -30.6827,-40.25927 -2.62391,-77.41889 3.26027,-157.5942 -38.27631,-217.0789 -24.47361,-33.55119 -68.81258,-37.66719 -78.57839,-37.95936 -22.23829,-0.66533 -13.68816,-0.59953 -53.97314,-0.59532 l 0,-0.004 c -0.67481,0 -0.4426,4e-5 -1.09215,0 -0.65191,4e-5 -0.41904,0 -1.09641,0 z"
         style="opacity:1;fill:#c4a300;fill-opacity:1;fill-rule:evenodd;stroke:#000000;stroke-width:10.96399975;stroke-linecap:butt;stroke-linejoin:miter;stroke-miterlimit:4;stroke-dasharray:none;stroke-opacity:1" />
      <path
         inkscape:export-ydpi="90"
         inkscape:export-xdpi="90"
         inkscape:connector-curvature="0"
         style="opacity:1;fill:#ffd800;fill-opacity:1;fill-rule:evenodd;stroke:none;stroke-width:5;stroke-linecap:butt;stroke-linejoin:miter;stroke-miterlimit:4;stroke-dasharray:none;stroke-opacity:1"
         d="m 367.23358,405.93966 0,0.004 c -32.73099,-0.004 -25.78451,-0.0616 -43.85297,0.52376 -7.9347,0.25707 -43.95997,3.87838 -63.84469,33.39724 -33.74831,52.33553 -28.96745,122.87499 -31.09936,190.98929 -1.48819,22.7592 -24.92958,35.42071 -24.92958,35.42071 l 163.93192,0.73104 0,0.006 0.68553,-0.004 0.68203,0.004 0,-0.006 163.93192,-0.73104 c 0,0 -23.44139,-12.66151 -24.92958,-35.42071 -2.13191,-68.1143 2.64895,-138.65376 -31.09937,-190.98929 -19.88473,-29.51886 -55.90998,-33.14017 -63.84468,-33.39724 -18.06852,-0.58536 -11.12157,-0.52747 -43.85297,-0.52376 l 0,-0.004 c -0.54827,0 -0.3596,5e-5 -0.88735,0 -0.52968,5e-5 -0.34049,0 -0.89085,0 z"
         id="path5527" />
    </g>
    <g
       id="g5388"
       transform="matrix(3.3279446,0,0,3.3279446,-1064.6072,-1156.9676)"
       inkscape:export-xdpi="40.929317"
       inkscape:export-ydpi="40.929317"
       inkscape:export-filename="D:\Projets\Xmas-Hell\Creations\Graphics\Sprites\Bosses\XmasBell\ribbon.png">
      <path
         sodipodi:nodetypes="cssscc"
         inkscape:connector-curvature="0"
         id="path5371"
         d="m 434.99998,438.86224 c 0,0 12.13928,32.52706 24,44.49999 3.16947,3.19946 1.0806,-12.23882 4.5,-16.99999 2.82459,-3.93296 25.54342,7.57502 24.06066,-0.30761 -3.2944,-17.51361 -46.97487,-36.18719 -46.97487,-36.18719 z"
         style="fill:#df4b4b;fill-opacity:1;fill-rule:evenodd;stroke:#000000;stroke-width:5;stroke-linecap:butt;stroke-linejoin:miter;stroke-miterlimit:4;stroke-dasharray:none;stroke-opacity:1" />
      <path
         sodipodi:nodetypes="cssscc"
         inkscape:connector-curvature="0"
         id="path5311"
         d="m 439.72057,414.42948 c 0,0 35.30948,-33.10348 50.96456,-22.99153 8.16853,5.27623 1.53169,17.02924 2.13982,28.90381 0.70987,13.86111 7.30324,28.02382 -2.13982,34.32289 -15.07654,10.05694 -50.19818,-20.88396 -50.19818,-20.88396 z"
         style="fill:#df4b4b;fill-opacity:1;fill-rule:evenodd;stroke:#000000;stroke-width:5;stroke-linecap:butt;stroke-linejoin:miter;stroke-miterlimit:4;stroke-dasharray:none;stroke-opacity:1" />
      <path
         sodipodi:nodetypes="csscc"
         inkscape:connector-curvature="0"
         id="path5313"
         d="m 440.8389,420.70573 c 0,0 20.7127,-15.39147 28.38903,-9.87245 6.49923,4.67272 4.84584,19.978 -1.5026,24.85362 -7.22394,5.548 -26.40053,-7.04996 -26.40053,-7.04996 z"
         style="fill:none;fill-rule:evenodd;stroke:#000000;stroke-width:2.5;stroke-linecap:butt;stroke-linejoin:miter;stroke-miterlimit:4;stroke-dasharray:none;stroke-opacity:1" />
      <path
         sodipodi:nodetypes="cssscc"
         inkscape:connector-curvature="0"
         id="path5371-2"
         d="m 420.97185,437.22677 c 0,0 -12.13928,32.52706 -24,44.49999 -3.16947,3.19946 -1.0806,-12.23882 -4.5,-16.99999 -2.82459,-3.93296 -25.54342,7.57502 -24.06066,-0.30761 3.2944,-17.51361 46.97487,-36.18719 46.97487,-36.18719 z"
         style="fill:#df4b4b;fill-opacity:1;fill-rule:evenodd;stroke:#000000;stroke-width:5;stroke-linecap:butt;stroke-linejoin:miter;stroke-miterlimit:4;stroke-dasharray:none;stroke-opacity:1" />
      <path
         style="fill:#df4b4b;fill-opacity:1;fill-rule:evenodd;stroke:#000000;stroke-width:5;stroke-linecap:butt;stroke-linejoin:miter;stroke-miterlimit:4;stroke-dasharray:none;stroke-opacity:1"
         d="m 416.03865,415.16363 c 0,0 -35.30948,-33.10348 -50.96456,-22.99153 -8.16853,5.27623 -1.53169,17.02924 -2.13982,28.90381 -0.70987,13.86111 -7.30324,28.02382 2.13982,34.32289 15.07654,10.05694 50.19818,-20.88396 50.19818,-20.88396 z"
         id="path5311-2"
         inkscape:connector-curvature="0"
         sodipodi:nodetypes="cssscc" />
      <path
         style="fill:none;fill-rule:evenodd;stroke:#000000;stroke-width:2.5;stroke-linecap:butt;stroke-linejoin:miter;stroke-miterlimit:4;stroke-dasharray:none;stroke-opacity:1"
         d="m 414.92032,421.43988 c 0,0 -20.7127,-15.39147 -28.38903,-9.87245 -6.49923,4.67272 -4.84584,19.978 1.5026,24.85362 7.22394,5.548 26.40053,-7.04996 26.40053,-7.04996 z"
         id="path5313-3"
         inkscape:connector-curvature="0"
         sodipodi:nodetypes="csscc" />
      <circle
         r="14.999999"
         cy="424.33051"
         cx="427.67001"
         id="path5307"
         style="opacity:1;fill:#df4b4b;fill-opacity:1;fill-rule:nonzero;stroke:#000000;stroke-width:5;stroke-miterlimit:4;stroke-dasharray:none;stroke-opacity:1" />
    </g>
  </g>
  <g
     inkscape:groupmode="layer"
     id="layer2"
     inkscape:label="Calque 2"
     style="display:inline">
    <circle
       style="opacity:1;fill:#000000;fill-opacity:1;fill-rule:nonzero;stroke:none;stroke-width:5;stroke-miterlimit:4;stroke-dasharray:none;stroke-opacity:1"
       id="path5531"
       cx="272.06985"
       cy="494.9281"
       r="23.292843"
       inkscape:export-xdpi="41.919903"
       inkscape:export-ydpi="41.919903"
       inkscape:export-filename="D:\Projets\Xmas-Hell\Creations\Graphics\Sprites\Bosses\XmasBell\eye.png" />
    <circle
       r="23.292843"
       cy="494.9281"
       cx="424.76736"
       id="circle5533"
       style="opacity:1;fill:#000000;fill-opacity:1;fill-rule:nonzero;stroke:none;stroke-width:5;stroke-miterlimit:4;stroke-dasharray:none;stroke-opacity:1"
       inkscape:export-xdpi="90"
       inkscape:export-ydpi="90" />
    <path
       style="fill:none;fill-rule:evenodd;stroke:#000000;stroke-width:18.3005867;stroke-linecap:butt;stroke-linejoin:miter;stroke-miterlimit:4;stroke-dasharray:none;stroke-opacity:1"
       d="m 328.55044,523.98383 c 0,0 -8.87089,48.12603 0,69.54225 4.70451,11.35767 13.78693,26.30175 26.07832,26.07832 11.86798,-0.21557 19.92416,-15.02403 24.24829,-26.07832 8.41688,-21.51695 -0.22875,-69.31348 -0.22875,-69.31348"
       id="path4698"
       inkscape:connector-curvature="0"
       sodipodi:nodetypes="csssc"
       inkscape:export-xdpi="40.931202"
       inkscape:export-ydpi="40.931202"
       inkscape:export-filename="D:\Projets\Xmas-Hell\Creations\Graphics\Sprites\Bosses\XmasBell\mouth.png" />
  </g>
  <g
     inkscape:groupmode="layer"
     id="layer3"
     inkscape:label="Calque 3"
     style="display:none">
    <path
       style="fill:none;fill-rule:evenodd;stroke:#000000;stroke-width:10;stroke-linecap:round;stroke-linejoin:miter;stroke-miterlimit:4;stroke-dasharray:none;stroke-opacity:1"
       d="m 302.64169,575.77225 c 45.25483,-17.44197 45.25483,-33.94113 0,-49.49748"
       id="path4718"
       inkscape:connector-curvature="0"
       sodipodi:nodetypes="cc"
       inkscape:export-filename="D:\Projets\Xmas-Hell\Creations\Graphics\Sprites\Bosses\XmasBell\path4718.png"
       inkscape:export-xdpi="40.808186"
       inkscape:export-ydpi="40.808186" />
    <path
       style="fill:none;fill-rule:evenodd;stroke:#000000;stroke-width:10;stroke-linecap:round;stroke-linejoin:miter;stroke-miterlimit:4;stroke-dasharray:none;stroke-opacity:1"
       d="m 412.91666,573.6497 c -45.25483,-17.44197 -45.25483,-33.94113 0,-49.49748"
       id="path4718-4"
       inkscape:connector-curvature="0"
       sodipodi:nodetypes="cc"
       inkscape:export-filename="D:\Projets\Xmas-Hell\Creations\Graphics\Sprites\Bosses\XmasBell\eye2.png"
       inkscape:export-xdpi="40.808186"
       inkscape:export-ydpi="40.808186" />
    <path
       style="fill:none;fill-rule:evenodd;stroke:#000000;stroke-width:10;stroke-linecap:round;stroke-linejoin:miter;stroke-miterlimit:4;stroke-dasharray:none;stroke-opacity:1"
       d="m 324.20846,604.9404 c 0,0 9.05929,9.4688 14.90245,9.25304 5.15085,-0.1902 8.64155,-9.11879 12.49945,-9.10335 4.59732,0.0184 7.78604,9.15557 13.09888,9.08311 5.99409,-0.0817 8.50094,-10.49097 14.49355,-10.64702 6.43445,-0.16755 9.73283,11.26169 16.13603,10.6066 4.8484,-0.49603 10.33856,-10.33883 10.33856,-10.33883"
       id="path4735"
       inkscape:connector-curvature="0"
       sodipodi:nodetypes="casaaac"
       inkscape:export-filename="D:\Projets\Xmas-Hell\Creations\Graphics\Sprites\Bosses\XmasBell\mouth2.png"
       inkscape:export-xdpi="39.177021"
       inkscape:export-ydpi="39.177021" />
  </g>
</svg>
