<?xml version="1.0" encoding="UTF-8" standalone="no"?>
<!-- Created with Inkscape (http://www.inkscape.org/) -->

<svg
   xmlns:dc="http://purl.org/dc/elements/1.1/"
   xmlns:cc="http://creativecommons.org/ns#"
   xmlns:rdf="http://www.w3.org/1999/02/22-rdf-syntax-ns#"
   xmlns:svg="http://www.w3.org/2000/svg"
   xmlns="http://www.w3.org/2000/svg"
   xmlns:xlink="http://www.w3.org/1999/xlink"
   xmlns:sodipodi="http://sodipodi.sourceforge.net/DTD/sodipodi-0.dtd"
   xmlns:inkscape="http://www.inkscape.org/namespaces/inkscape"
   width="210mm"
   height="297mm"
   viewBox="0 0 744.09448819 1052.3622047"
   id="svg2"
   version="1.1"
   inkscape:version="0.91 r13725"
   sodipodi:docname="xmas-candy.svg"
   inkscape:export-filename="D:\Projets\Xmas-Hell\Creations\Graphics\Sprites\xmas-candy.png"
   inkscape:export-xdpi="90"
   inkscape:export-ydpi="90">
  <defs
     id="defs4">
    <inkscape:path-effect
       effect="skeletal"
       id="path-effect4154"
       is_visible="true"
       pattern="m 553.66904,639.50586 a 19.533041,52.275394 0 0 0 -2.3292,24.70508 19.533041,52.275394 0 0 0 3.26308,28.86523 l 19.46307,0 a 19.533041,52.275394 0 0 1 -3.26307,-28.86523 19.533041,52.275394 0 0 1 2.3292,-24.70508 l -19.46308,0 z"
       copytype="repeated"
       prop_scale="1"
       scale_y_rel="false"
       spacing="0"
       normal_offset="0"
       tang_offset="0"
       prop_units="false"
       vertical_pattern="false"
       fuse_tolerance="0" />
  </defs>
  <sodipodi:namedview
     id="base"
     pagecolor="#ffffff"
     bordercolor="#666666"
     borderopacity="1.0"
     inkscape:pageopacity="0.0"
     inkscape:pageshadow="2"
     inkscape:zoom="1.4"
     inkscape:cx="141.12843"
     inkscape:cy="619.56199"
     inkscape:document-units="px"
     inkscape:current-layer="layer1"
     showgrid="false"
     inkscape:window-width="1920"
     inkscape:window-height="1027"
     inkscape:window-x="1912"
     inkscape:window-y="-8"
     inkscape:window-maximized="1" />
  <metadata
     id="metadata7">
    <rdf:RDF>
      <cc:Work
         rdf:about="">
        <dc:format>image/svg+xml</dc:format>
        <dc:type
           rdf:resource="http://purl.org/dc/dcmitype/StillImage" />
      </cc:Work>
    </rdf:RDF>
  </metadata>
  <g
     inkscape:label="Calque 1"
     inkscape:groupmode="layer"
     id="layer1">
    <path
       sodipodi:type="inkscape:offset"
       inkscape:radius="0"
       inkscape:original="M 369.92773 335.82812 C 329.41385 337.02132 290.71289 372.72099 290.71289 427.57031 L 290.71289 441.06641 A 19.452838 19.452838 0 1 0 329.61328 441.06641 L 329.61328 427.57031 C 329.61328 389.57525 351.25063 375.29673 371.07422 374.71289 C 380.98602 374.42097 390.40603 377.85507 397.86328 385.72461 C 405.32053 393.59414 411.38672 406.49609 411.38672 427.57031 L 411.38672 689.5625 A 19.452838 19.452838 0 1 0 450.28906 689.5625 L 450.28906 427.57031 C 450.28906 398.66826 441.27086 374.97475 426.10156 358.9668 C 410.93226 342.95884 390.18466 335.23153 369.92773 335.82812 z "
       xlink:href="#path4138"
       style="color:#000000;font-style:normal;font-variant:normal;font-weight:normal;font-stretch:normal;font-size:medium;line-height:normal;font-family:sans-serif;text-indent:0;text-align:start;text-decoration:none;text-decoration-line:none;text-decoration-style:solid;text-decoration-color:#000000;letter-spacing:normal;word-spacing:normal;text-transform:none;direction:ltr;block-progression:tb;writing-mode:lr-tb;baseline-shift:baseline;text-anchor:start;white-space:normal;clip-rule:nonzero;display:inline;overflow:visible;visibility:visible;opacity:1;isolation:auto;mix-blend-mode:normal;color-interpolation:sRGB;color-interpolation-filters:linearRGB;solid-color:#000000;solid-opacity:1;fill:#000000;fill-opacity:1;fill-rule:evenodd;stroke:none;stroke-width:38.9017868;stroke-linecap:round;stroke-linejoin:miter;stroke-miterlimit:4;stroke-dasharray:none;stroke-dashoffset:0;stroke-opacity:1;color-rendering:auto;image-rendering:auto;shape-rendering:auto;text-rendering:auto;enable-background:accumulate"
       id="path4225"
       inkscape:href="#path4138"
       d="m 102.78516,472.9707 c -40.513885,1.1932 -79.214848,36.89287 -79.214848,91.74219 l 0,13.49609 a 19.452838,19.452838 0 1 0 38.900391,0 l 0,-13.49609 c 0,-37.99506 21.637349,-52.27358 41.460937,-52.85742 9.9118,-0.29192 19.33181,3.14218 26.78906,11.01172 7.45725,7.86953 13.52344,20.77148 13.52344,41.8457 l 0,261.99219 a 19.452838,19.452838 0 1 0 38.90234,0 l 0,-261.99219 c 0,-28.90205 -9.0182,-52.59556 -24.1875,-68.60351 -15.1693,-16.00797 -35.91689,-23.73528 -56.17382,-23.13868 z"
       transform="translate(-2.9980953e-6,2.9295037e-6)" />
    <path
       sodipodi:type="inkscape:offset"
       inkscape:radius="10.476388"
       inkscape:original="M 369.92773 335.82812 C 329.41385 337.02132 290.71289 372.72099 290.71289 427.57031 L 290.71289 441.06641 A 19.452838 19.452838 0 1 0 329.61328 441.06641 L 329.61328 427.57031 C 329.61328 389.57525 351.25063 375.29673 371.07422 374.71289 C 380.98602 374.42097 390.40603 377.85507 397.86328 385.72461 C 405.32053 393.59414 411.38672 406.49609 411.38672 427.57031 L 411.38672 689.5625 A 19.452838 19.452838 0 1 0 450.28906 689.5625 L 450.28906 427.57031 C 450.28906 398.66826 441.27086 374.97475 426.10156 358.9668 C 410.93226 342.95884 390.18466 335.23153 369.92773 335.82812 z "
       xlink:href="#path4138"
       style="color:#000000;font-style:normal;font-variant:normal;font-weight:normal;font-stretch:normal;font-size:medium;line-height:normal;font-family:sans-serif;text-indent:0;text-align:start;text-decoration:none;text-decoration-line:none;text-decoration-style:solid;text-decoration-color:#000000;letter-spacing:normal;word-spacing:normal;text-transform:none;direction:ltr;block-progression:tb;writing-mode:lr-tb;baseline-shift:baseline;text-anchor:start;white-space:normal;clip-rule:nonzero;display:inline;overflow:visible;visibility:visible;opacity:1;isolation:auto;mix-blend-mode:normal;color-interpolation:sRGB;color-interpolation-filters:linearRGB;solid-color:#000000;solid-opacity:1;fill:#000000;fill-opacity:1;fill-rule:evenodd;stroke:none;stroke-width:38.9017868;stroke-linecap:round;stroke-linejoin:miter;stroke-miterlimit:4;stroke-dasharray:none;stroke-dashoffset:0;stroke-opacity:1;color-rendering:auto;image-rendering:auto;shape-rendering:auto;text-rendering:auto;enable-background:accumulate"
       id="path4229"
       inkscape:href="#path4138"
       d="m 102.47656,462.49805 c -46.463974,1.36844 -89.38281,42.43752 -89.38281,102.21484 l 0,13.49609 0.002,-0.17187 c -0.261002,15.8332 14.088481,30.42187 29.923828,30.42187 15.835347,0 30.186784,-14.58867 29.925781,-30.42187 l 0.002,0.17187 0,-13.49609 c 0,-17.00884 4.645917,-27.10439 10.453125,-33.2832 5.807207,-6.17881 13.327975,-8.88033 20.839839,-9.10157 7.2999,-0.21499 13.40288,1.96742 18.87696,7.74415 5.476,5.77875 10.65039,15.57681 10.65039,34.64062 l 0,261.99219 0.002,-0.13672 c -0.20692,15.8002 14.12423,30.32031 29.92578,30.32031 15.80156,0 30.13271,-14.52011 29.92578,-30.32031 l 0.002,0.13672 0,-261.99219 c 0,-31.08132 -9.76709,-57.55904 -27.06055,-75.80859 -17.29205,-18.24809 -40.95781,-27.08741 -64.08594,-26.40625 z"
       transform="translate(-2.9980953e-6,2.9295037e-6)" />
    <path
       style="color:#000000;font-style:normal;font-variant:normal;font-weight:normal;font-stretch:normal;font-size:medium;line-height:normal;font-family:sans-serif;text-indent:0;text-align:start;text-decoration:none;text-decoration-line:none;text-decoration-style:solid;text-decoration-color:#000000;letter-spacing:normal;word-spacing:normal;text-transform:none;direction:ltr;block-progression:tb;writing-mode:lr-tb;baseline-shift:baseline;text-anchor:start;white-space:normal;clip-rule:nonzero;display:inline;overflow:visible;visibility:visible;opacity:1;isolation:auto;mix-blend-mode:normal;color-interpolation:sRGB;color-interpolation-filters:linearRGB;solid-color:#000000;solid-opacity:1;fill:#ffffff;fill-opacity:1;fill-rule:evenodd;stroke:none;stroke-width:38.9017868;stroke-linecap:round;stroke-linejoin:miter;stroke-miterlimit:4;stroke-dasharray:none;stroke-dashoffset:0;stroke-opacity:1;color-rendering:auto;image-rendering:auto;shape-rendering:auto;text-rendering:auto;enable-background:accumulate"
       d="m 369.92802,335.82784 c -40.51388,1.1932 -79.21485,36.89287 -79.21485,91.74219 l 0,13.49609 a 19.452838,19.452838 0 1 0 38.90039,0 l 0,-13.49609 c 0,-37.99506 21.63735,-52.27358 41.46094,-52.85742 9.9118,-0.29192 19.33181,3.14218 26.78906,11.01172 7.45725,7.86953 13.52344,20.77148 13.52344,41.8457 l 0,261.99219 a 19.452838,19.452838 0 1 0 38.90234,0 l 0,-261.99219 c 0,-28.90205 -9.0182,-52.59556 -24.1875,-68.60351 -15.1693,-16.00796 -35.91689,-23.73528 -56.17382,-23.13868 z"
       id="path4138"
       inkscape:connector-curvature="0" />
    <path
       style="fill:#ff2a2a;fill-rule:evenodd;stroke:none;stroke-width:1;stroke-linecap:round;stroke-linejoin:miter;stroke-miterlimit:4;stroke-dasharray:none;stroke-opacity:1"
       d="m 372.74638,335.81808 c -0.93983,-0.008 -1.88004,-0.0179 -2.81836,0.01 -7.32655,0.21578 -14.59027,1.57513 -21.58008,3.95703 2.67956,5.08625 4.82266,10.7036 6.61718,16.61524 1.99242,6.58197 3.6296,13.75763 5.06055,20.11133 3.64604,-1.11075 7.37829,-1.69073 11.04883,-1.79883 0.13919,-0.004 0.27703,6.7e-4 0.41602,-0.002 0.75805,-6.49012 1.62278,-13.73302 1.96289,-20.62305 0.30649,-6.30855 0.17488,-12.46341 -0.70703,-18.26953 z m 32.51171,7.74218 c -1.86979,5.87994 -4.70714,11.71958 -8.04296,17.48047 -3.28896,5.66985 -7.13498,11.39273 -10.63868,16.62891 3.55899,1.58131 6.91589,3.80728 9.97266,6.73633 4.89128,-3.53863 10.07546,-7.31233 14.90234,-11.33594 5.40519,-4.5128 10.33549,-9.31048 14.2461,-14.51953 -6.06834,-6.30495 -13.00647,-11.30466 -20.43946,-14.99024 z m -84.79883,12.75782 c -5.87622,5.31892 -11.13469,11.58342 -15.53125,18.70898 5.49984,2.00419 10.97713,4.76587 16.39454,7.99219 5.64743,3.36929 11.31272,7.28935 16.4082,10.92773 2.34594,-3.8383 5.09804,-7.04151 8.12695,-9.65625 -3.86264,-5.07378 -8.18446,-10.70164 -12.63281,-15.74218 -4.03624,-4.5664 -8.27435,-8.74168 -12.76563,-12.23047 z m 122.70118,30.17383 c -5.93942,3.55844 -12.73295,6.35981 -19.89453,8.63867 -5.54112,1.75843 -11.24119,3.18301 -16.67188,4.41601 1.72561,4.23875 3.07065,9.17535 3.89258,14.89453 5.33108,-0.007 10.90352,-0.18021 16.45898,-0.69921 7.78911,-0.73389 15.32107,-2.09598 22.08204,-4.34961 -1.17854,-8.21012 -3.16376,-15.86712 -5.86719,-22.90039 z m -149.22266,18.06054 c -0.27005,-0.002 -0.53375,0.0126 -0.80273,0.0137 -1.53902,7.07297 -2.38276,14.59338 -2.41602,22.51758 6.367,-1.00056 13.21926,-1.53598 20.19141,-1.53906 6.4187,0.002 12.7607,0.44655 18.71679,1.30273 0.0425,-5.74844 0.57812,-10.95316 1.53711,-15.63671 -5.87594,-1.72812 -12.29299,-3.41966 -18.625,-4.64258 -6.35744,-1.22265 -12.60911,-1.97506 -18.60156,-2.01563 z m 156.35156,32.99219 c -7.09703,1.29471 -14.90578,1.98478 -22.86328,1.98828 -5.46593,-0.002 -10.87502,-0.32683 -16.03906,-0.95117 l 0,19.46484 c 5.16397,0.62429 10.57322,0.94723 16.03906,0.94922 7.95739,-0.004 15.76633,-0.69176 22.86328,-1.98633 l 0,-19.46484 z m 0,45.45312 c -7.09703,1.29472 -14.90578,1.98478 -22.86328,1.98829 -5.46593,-0.002 -10.87502,-0.32684 -16.03906,-0.95118 l 0,19.46289 c 5.16404,0.62431 10.57313,0.94918 16.03906,0.95118 7.9575,-0.004 15.76626,-0.69368 22.86328,-1.98828 l 0,-19.4629 z m 0,45.45313 c -7.09695,1.29468 -14.90589,1.98283 -22.86328,1.98633 -5.46584,-0.002 -10.87509,-0.3249 -16.03906,-0.94922 l 0,19.46289 c 5.16397,0.62429 10.57322,0.94918 16.03906,0.95117 7.95739,-0.004 15.76633,-0.69371 22.86328,-1.98828 l 0,-19.46289 z m 0,45.45117 c -7.09703,1.29471 -14.90578,1.98478 -22.86328,1.98828 -5.46593,-0.002 -10.87502,-0.32683 -16.03906,-0.95117 l 0,19.46289 c 5.16404,0.62431 10.57313,0.94918 16.03906,0.95117 7.9575,-0.004 15.76626,-0.69368 22.86328,-1.98828 l 0,-19.46289 z m 0,45.45313 c -7.09695,1.29467 -14.90589,1.98478 -22.86328,1.98828 -5.46584,-0.002 -10.87509,-0.32685 -16.03906,-0.95117 l 0,19.46289 c 5.16397,0.62428 10.57322,0.94917 16.03906,0.95117 7.95739,-0.004 15.76633,-0.69372 22.86328,-1.98828 l 0,-19.46289 z m 0,45.45117 c -7.09703,1.29471 -14.90578,1.98478 -22.86328,1.98828 -5.46593,-0.002 -10.87502,-0.32683 -16.03906,-0.95117 l 0,19.46289 c 5.16404,0.6243 10.57313,0.94917 16.03906,0.95117 7.9575,-0.004 15.76626,-0.69368 22.86328,-1.98828 l 0,-19.46289 z"
       id="path4138-1"
       inkscape:connector-curvature="0" />
    <g
       id="g4300"
       transform="matrix(0.372989,-0.92783575,0.92783575,0.372989,-265.39978,447.88989)">
      <path
         sodipodi:nodetypes="cccccc"
         inkscape:connector-curvature="0"
         id="path4245-2-2"
         d="m 293.14308,518.18085 c 3.68543,-7.426 8.10864,-14.71916 4.35714,-23.48415 12.92485,4.9037 21.74369,-0.61374 27.95151,-12.758 6.55857,7.67239 16.44664,8.89657 29.07395,4.81566 -10.66032,8.33943 -19.5662,17.30167 -18.33291,29.86314 -10.83894,-10.59608 -27.31868,-3.33093 -43.04969,1.56335 z"
         style="fill:#808000;fill-rule:evenodd;stroke:#000000;stroke-width:3.01999807;stroke-linecap:butt;stroke-linejoin:miter;stroke-miterlimit:4;stroke-dasharray:none;stroke-opacity:1" />
      <path
         sodipodi:nodetypes="cccccc"
         inkscape:connector-curvature="0"
         id="path4245-2"
         d="m 294.41378,517.80032 c -4.25918,-7.11247 -8.0081,-14.7741 -17.41089,-16.35085 11.10771,-8.22902 11.22733,-18.63093 4.35963,-30.41459 9.99938,-1.37579 16.37024,-9.03638 19.75582,-21.86761 1.26076,13.47586 3.99325,25.81157 15.23107,31.55815 -14.7718,3.39903 -17.55825,21.1923 -21.93563,37.0749 z"
         style="fill:#808000;fill-rule:evenodd;stroke:#000000;stroke-width:3.01999807;stroke-linecap:butt;stroke-linejoin:miter;stroke-miterlimit:4;stroke-dasharray:none;stroke-opacity:1" />
      <circle
         r="7.9347391"
         cy="506.3941"
         cx="301.71243"
         id="path4247-1"
         style="opacity:1;fill:#ff0000;fill-opacity:1;fill-rule:nonzero;stroke:#000000;stroke-width:3.01999807;stroke-linecap:round;stroke-miterlimit:4;stroke-dasharray:none;stroke-opacity:1" />
      <path
         sodipodi:nodetypes="cccccc"
         inkscape:connector-curvature="0"
         id="path4245"
         d="m 292.88758,512.73749 c -8.28917,0.13233 -16.79879,-0.45182 -22.8657,6.90286 -1.57269,-13.73407 -10.52119,-19.03863 -24.15999,-18.98285 3.80822,-9.34761 0.35939,-18.69523 -9.05999,-28.04284 12.30082,5.64607 24.3501,9.44752 34.94569,2.58857 -4.44225,14.49227 9.57395,25.80205 21.13999,37.53426 z"
         style="fill:#808000;fill-rule:evenodd;stroke:#000000;stroke-width:3.01999807;stroke-linecap:butt;stroke-linejoin:miter;stroke-miterlimit:4;stroke-dasharray:none;stroke-opacity:1" />
      <circle
         r="7.9347391"
         cy="517.77875"
         cx="289.76608"
         id="path4247"
         style="opacity:1;fill:#ff0000;fill-opacity:1;fill-rule:nonzero;stroke:#000000;stroke-width:3.01999807;stroke-linecap:round;stroke-miterlimit:4;stroke-dasharray:none;stroke-opacity:1" />
      <circle
         r="7.9347391"
         cy="501.20795"
         cx="286.76422"
         id="path4247-6"
         style="opacity:1;fill:#ff0000;fill-opacity:1;fill-rule:nonzero;stroke:#000000;stroke-width:3.01999807;stroke-linecap:round;stroke-miterlimit:4;stroke-dasharray:none;stroke-opacity:1" />
    </g>
    <circle
       style="opacity:1;fill:#000000;fill-opacity:1;fill-rule:nonzero;stroke:none;stroke-width:10;stroke-miterlimit:4;stroke-dasharray:none;stroke-opacity:1"
       id="path4237"
       cx="348.96521"
       cy="351.80679"
       r="7.8286824" />
    <circle
       r="7.8286824"
       cy="351.80679"
       cx="391.64417"
       id="circle4239"
       style="opacity:1;fill:#000000;fill-opacity:1;fill-rule:nonzero;stroke:none;stroke-width:10;stroke-miterlimit:4;stroke-dasharray:none;stroke-opacity:1" />
    <path
       style="fill:none;fill-rule:evenodd;stroke:#000000;stroke-width:5;stroke-linecap:round;stroke-linejoin:miter;stroke-miterlimit:4;stroke-dasharray:none;stroke-opacity:1"
       d="m 358.41899,359.22709 c 0,0 2.53745,12.30667 7.29296,12.26233 3.33022,-0.031 4.94616,-8.68084 4.94616,-8.68084 0,0 1.81143,8.28747 5.00481,8.17576 4.3242,-0.15126 5.98695,-11.51741 5.98695,-11.51741"
       id="path4243"
       inkscape:connector-curvature="0"
       sodipodi:nodetypes="cscsc" />
  </g>
</svg>
