<?xml version="1.0" encoding="UTF-8" standalone="no"?>
<!-- Created with Inkscape (http://www.inkscape.org/) -->

<svg
   xmlns:dc="http://purl.org/dc/elements/1.1/"
   xmlns:cc="http://creativecommons.org/ns#"
   xmlns:rdf="http://www.w3.org/1999/02/22-rdf-syntax-ns#"
   xmlns:svg="http://www.w3.org/2000/svg"
   xmlns="http://www.w3.org/2000/svg"
   xmlns:sodipodi="http://sodipodi.sourceforge.net/DTD/sodipodi-0.dtd"
   xmlns:inkscape="http://www.inkscape.org/namespaces/inkscape"
   width="210mm"
   height="297mm"
   viewBox="0 0 744.09448819 1052.3622047"
   id="svg2"
   version="1.1"
   inkscape:version="0.91 r13725"
   sodipodi:docname="xmas-reindeer.svg"
   inkscape:export-filename="D:\Projets\Xmas-Hell\Creations\Graphics\Sprites\Bosses\XmasReindeer\xmas-reindeer.png"
   inkscape:export-xdpi="50"
   inkscape:export-ydpi="50">
  <defs
     id="defs4" />
  <sodipodi:namedview
     id="base"
     pagecolor="#ffffff"
     bordercolor="#666666"
     borderopacity="1.0"
     inkscape:pageopacity="0.0"
     inkscape:pageshadow="2"
     inkscape:zoom="1.979899"
     inkscape:cx="298.90267"
     inkscape:cy="639.68865"
     inkscape:document-units="px"
     inkscape:current-layer="layer1"
     showgrid="false"
     inkscape:window-width="1920"
     inkscape:window-height="1027"
     inkscape:window-x="1912"
     inkscape:window-y="-8"
     inkscape:window-maximized="1" />
  <metadata
     id="metadata7">
    <rdf:RDF>
      <cc:Work
         rdf:about="">
        <dc:format>image/svg+xml</dc:format>
        <dc:type
           rdf:resource="http://purl.org/dc/dcmitype/StillImage" />
        <dc:title></dc:title>
      </cc:Work>
    </rdf:RDF>
  </metadata>
  <g
     inkscape:label="Calque 1"
     inkscape:groupmode="layer"
     id="layer1">
    <path
       style="fill:#dea472;fill-opacity:1;fill-rule:evenodd;stroke:#000000;stroke-width:8.96373653;stroke-linecap:butt;stroke-linejoin:round;stroke-miterlimit:4;stroke-dasharray:none;stroke-opacity:1"
       d="m 251.81662,671.85036 1e-5,81.31389 c 75.97833,-18.98454 175.96668,-17.35245 251.94501,-0.64027 l 2.24094,-80.03337 c -14.08324,7.16928 -29.34914,18.25351 -42.57774,39.05628 7.52777,-23.54698 5.35649,-55.86799 -28.81201,-113.9675 l -113.96752,0.32013 c -16.30577,36.78643 -33.03387,78.07871 -28.17174,107.2447 -13.91392,-20.77721 -30.12304,-30.0499 -40.65695,-33.29386 z"
       id="path4229"
       inkscape:connector-curvature="0"
       sodipodi:nodetypes="ccccccccc" />
    <g
       id="g4187"
       transform="matrix(-1,0,0,1,719.6965,71.72083)"
       style="fill:#dea472;fill-opacity:1">
      <path
         sodipodi:nodetypes="csssc"
         inkscape:connector-curvature="0"
         id="path4189"
         d="m 255,471.64792 c 0,0 -39.53684,-9.97344 -51.40794,-25.93095 -8.50988,-11.43926 -12.32087,-39.17604 -8.9492,-41.9262 6.10682,-4.98114 35.13251,-3.98247 51.01075,2.14235 11.80394,4.55321 30.41782,25.17909 30.41782,25.17909"
         style="fill:#dea472;fill-opacity:1;fill-rule:evenodd;stroke:#000000;stroke-width:10;stroke-linecap:butt;stroke-linejoin:miter;stroke-miterlimit:4;stroke-dasharray:none;stroke-opacity:1" />
      <path
         sodipodi:nodetypes="cc"
         inkscape:connector-curvature="0"
         id="path4191"
         d="m 264.82143,447.54077 c -10.93017,-10.60236 -23.48211,-16.3394 -36.78572,-19.82142"
         style="fill:#dea472;fill-opacity:1;fill-rule:evenodd;stroke:#000000;stroke-width:10;stroke-linecap:round;stroke-linejoin:miter;stroke-miterlimit:4;stroke-dasharray:none;stroke-opacity:1" />
    </g>
    <g
       id="g4181"
       style="fill:#dea472;fill-opacity:1"
       transform="translate(40.385797,70.710677)">
      <g
         id="g5359">
        <path
           sodipodi:nodetypes="csssc"
           inkscape:connector-curvature="0"
           id="path4183"
           d="m 255,471.64792 c 0,0 -39.53684,-9.97344 -51.40794,-25.93095 -8.50988,-11.43926 -12.32087,-39.17604 -8.9492,-41.9262 6.10682,-4.98114 35.13251,-3.98247 51.01075,2.14235 11.80394,4.55321 30.41782,25.17909 30.41782,25.17909"
           style="fill:#dea472;fill-opacity:1;fill-rule:evenodd;stroke:#000000;stroke-width:10;stroke-linecap:butt;stroke-linejoin:miter;stroke-miterlimit:4;stroke-dasharray:none;stroke-opacity:1" />
        <path
           sodipodi:nodetypes="cc"
           inkscape:connector-curvature="0"
           id="path4185"
           d="m 264.82143,447.54077 c -10.93017,-10.60236 -23.48211,-16.3394 -36.78572,-19.82142"
           style="fill:#dea472;fill-opacity:1;fill-rule:evenodd;stroke:#000000;stroke-width:10;stroke-linecap:round;stroke-linejoin:miter;stroke-miterlimit:4;stroke-dasharray:none;stroke-opacity:1" />
      </g>
    </g>
    <path
       sodipodi:nodetypes="csscsssssscasscc"
       inkscape:connector-curvature="0"
       id="path4253"
       d="m 414.38388,496.5889 c 27.89282,-40.34679 69.24533,-54.34561 119.98901,-66.70869 30.71741,-7.48391 35.08769,-53.80324 15.37766,-63.24331 -30.32043,-14.52188 -25.23949,55.2652 -72.55654,46.13296 -0.88794,-1.95707 1.02881,-8.71741 7.97971,-11.59973 27.61115,-11.44948 23.64349,-37.7635 16.27801,-35.83275 -11.58511,3.03686 -15.00983,1.83377 -26.20699,-4.76491 -6.04778,-3.56406 -15.48648,9.12684 -12.43507,19.9384 2.69372,9.54419 3.4543,20.89968 -0.77673,25.11164 -13.58807,13.52682 -23.57123,22.92425 -27.5065,12.12885 -4.50944,-12.37048 25.51819,-29.02805 14.07813,-44.18368 -8.07316,-3.77259 -12.46117,2.66667 -18.62645,1.73269 -6.14427,-0.93079 -12.15984,-7.91112 -17.21865,-7.14736 -2.17852,0.32891 -10.99873,8.26678 -6.42119,16.19532 20.65897,35.78239 -6.56426,94.88577 -14.04624,96.64634 z"
       style="fill:#98664b;fill-opacity:1;fill-rule:evenodd;stroke:#000000;stroke-width:8.57639408;stroke-linecap:round;stroke-linejoin:round;stroke-miterlimit:4;stroke-dasharray:none;stroke-opacity:1" />
    <path
       style="fill:#98664b;fill-opacity:1;fill-rule:evenodd;stroke:#000000;stroke-width:8.57639408;stroke-linecap:round;stroke-linejoin:round;stroke-miterlimit:4;stroke-dasharray:none;stroke-opacity:1"
       d="m 348.06509,497.49008 c -27.89282,-40.34679 -69.24533,-54.34561 -119.98902,-66.70868 -30.7174,-7.48392 -35.08769,-53.80325 -15.37766,-63.24332 30.32043,-14.52188 25.23949,55.2652 72.55654,46.13296 0.88794,-1.95707 -1.0288,-8.71741 -7.97971,-11.59973 -27.61115,-11.44947 -23.64349,-37.7635 -16.278,-35.83275 11.5851,3.03686 15.00982,1.83377 26.20698,-4.7649 6.04778,-3.56407 15.48648,9.12683 12.43507,19.93839 -2.69372,9.5442 -3.4543,20.89969 0.77673,25.11164 13.58807,13.52682 23.57123,22.92425 27.5065,12.12885 4.50945,-12.37048 -25.51818,-29.02804 -14.07813,-44.18368 8.07317,-3.77259 12.46118,2.66667 18.62645,1.73269 6.14428,-0.93079 12.15985,-7.91112 17.21865,-7.14736 2.17853,0.32891 10.99874,8.26678 6.4212,16.19532 -20.65897,35.78239 6.56425,94.88578 14.04624,96.64634 z"
       id="path4243"
       inkscape:connector-curvature="0"
       sodipodi:nodetypes="csscsssssscasscc" />
    <ellipse
       style="opacity:1;fill:#dea472;fill-opacity:1;fill-rule:nonzero;stroke:#000000;stroke-width:9.09757519;stroke-linecap:round;stroke-miterlimit:4;stroke-dasharray:none;stroke-opacity:1"
       id="path4151"
       cx="377.29196"
       cy="558.9433"
       rx="95.31942"
       ry="78.146828" />
    <circle
       style="opacity:1;fill:#000000;fill-opacity:1;fill-rule:nonzero;stroke:none;stroke-width:10;stroke-linecap:round;stroke-miterlimit:4;stroke-dasharray:none;stroke-opacity:1"
       id="path4157"
       cx="327.06021"
       cy="531.85321"
       r="14.285714" />
    <circle
       r="14.285714"
       cy="529.85321"
       cx="430.02176"
       id="circle4159"
       style="opacity:1;fill:#000000;fill-opacity:1;fill-rule:nonzero;stroke:none;stroke-width:10;stroke-linecap:round;stroke-miterlimit:4;stroke-dasharray:none;stroke-opacity:1" />
    <circle
       style="opacity:1;fill:#e70000;fill-opacity:1;fill-rule:nonzero;stroke:#000000;stroke-width:10;stroke-linecap:round;stroke-miterlimit:4;stroke-dasharray:none;stroke-opacity:1"
       id="path4161"
       cx="378.86731"
       cy="545.08594"
       r="15.98951" />
    <g
       id="g4169"
       style="stroke:#000000;stroke-width:10;stroke-linecap:round;stroke-miterlimit:4;stroke-dasharray:none;stroke-opacity:1"
       transform="translate(0,-22)">
      <path
         sodipodi:nodetypes="ccsc"
         inkscape:connector-curvature="0"
         id="path4165"
         d="m 379.31228,585.92427 0,19.06663 c 0,0 -7.48318,3.51173 -11.49049,3.53553 -4.1685,0.0248 -11.99556,-3.53553 -11.99556,-3.53553"
         style="fill:none;fill-rule:evenodd;stroke:#000000;stroke-width:10;stroke-linecap:round;stroke-linejoin:miter;stroke-miterlimit:4;stroke-dasharray:none;stroke-opacity:1" />
      <path
         sodipodi:nodetypes="csc"
         inkscape:connector-curvature="0"
         id="path4167"
         d="m 379.18601,604.86463 c 0,0 8.49187,3.90595 13.00572,3.78807 3.83232,-0.10008 10.85914,-3.78807 10.85914,-3.78807"
         style="fill:none;fill-rule:evenodd;stroke:#000000;stroke-width:10;stroke-linecap:round;stroke-linejoin:miter;stroke-miterlimit:4;stroke-dasharray:none;stroke-opacity:1" />
    </g>
    <g
       id="g4198"
       transform="matrix(0.89637366,0,0,0.89637366,39.248011,50.594835)">
      <path
         style="opacity:1;fill:#976348;fill-opacity:1;fill-rule:evenodd;stroke:#000000;stroke-width:7.55957222;stroke-linecap:butt;stroke-linejoin:miter;stroke-miterlimit:4;stroke-dasharray:none;stroke-opacity:1"
         d="m 252.54441,710.97846 c -16.55288,-0.78567 -25.09233,23.54401 -24.47702,38.67336 0.56017,13.77383 10.07788,34.9957 25.14492,35.13745 14.41412,0.1356 21.0683,-18.31732 21.47687,-31.46741 0.4657,-14.98869 -5.7123,-41.56344 -22.14477,-42.3434 z"
         id="path4195"
         inkscape:connector-curvature="0"
         sodipodi:nodetypes="sssss" />
      <path
         sodipodi:nodetypes="sssss"
         inkscape:connector-curvature="0"
         id="path4193"
         d="m 221.22341,686.68698 c -20.68009,3.21627 -25.53256,38.61581 -21.21321,59.09393 3.93235,18.64337 20.70701,45.12598 39.39595,41.41625 17.87907,-3.54897 21.77911,-30.44382 19.1929,-48.48732 -2.94781,-20.56627 -16.84599,-55.21573 -37.37564,-52.02286 z"
         style="opacity:1;fill:#976348;fill-opacity:1;fill-rule:evenodd;stroke:#000000;stroke-width:10;stroke-linecap:butt;stroke-linejoin:miter;stroke-miterlimit:4;stroke-dasharray:none;stroke-opacity:1" />
    </g>
    <g
       id="g4255"
       transform="matrix(0.89637366,0,0,0.89637366,39.248011,50.594835)">
      <path
         sodipodi:nodetypes="ccccc"
         inkscape:connector-curvature="0"
         id="path4202"
         d="m 325.01658,674.06008 c 5.80339,38.50871 5.13042,75.04636 -4.54568,108.84393 17.84603,9.59645 38.3858,10.10152 57.5787,1.51523 l 0.50507,-70.96321 c -6.34022,-0.18466 -12.4703,-0.73705 -16.16244,-5.55584"
         style="fill:#dea472;fill-opacity:1;fill-rule:evenodd;stroke:#000000;stroke-width:10;stroke-linecap:round;stroke-linejoin:miter;stroke-miterlimit:4;stroke-dasharray:none;stroke-opacity:1" />
      <path
         style="fill:#976348;fill-opacity:1;fill-rule:evenodd;stroke:#000000;stroke-width:10;stroke-linecap:round;stroke-linejoin:round;stroke-miterlimit:4;stroke-dasharray:none;stroke-opacity:1"
         d="m 320.17858,783.96935 c 28.35223,7.1114 43.86769,5.57498 57.67856,1.42856 0,0 1.81457,15.77364 -3.39285,20.17858 -13.86086,11.72485 -48.20274,12.53344 -54.46429,0 -3.04281,-6.09066 -1.78567,-11.13095 0.17858,-21.60714 z"
         id="path4208"
         inkscape:connector-curvature="0"
         sodipodi:nodetypes="ccasc" />
    </g>
    <g
       id="g4259"
       transform="matrix(0.89637366,0,0,0.89637366,39.248011,50.594835)">
      <path
         style="fill:#dea472;fill-opacity:1;fill-rule:evenodd;stroke:#000000;stroke-width:10;stroke-linecap:round;stroke-linejoin:miter;stroke-miterlimit:4;stroke-dasharray:none;stroke-opacity:1"
         d="m 433.12818,674.06008 c -5.80339,38.50871 -5.13042,75.04636 4.54568,108.84393 -17.84603,9.59645 -38.3858,10.10152 -57.5787,1.51523 l -0.50507,-70.96321 c 6.34022,-0.18466 12.4703,-0.73705 16.16244,-5.55584"
         id="path4204"
         inkscape:connector-curvature="0"
         sodipodi:nodetypes="ccccc" />
      <path
         sodipodi:nodetypes="ccasc"
         inkscape:connector-curvature="0"
         id="path4210"
         d="m 438.1463,783.90807 c -28.35223,7.1114 -43.86769,5.57498 -57.67856,1.42856 0,0 -1.81457,15.77364 3.39285,20.17858 13.86086,11.72485 48.20274,12.53344 54.46429,0 3.04281,-6.09066 1.78567,-11.13095 -0.17858,-21.60714 z"
         style="fill:#976348;fill-opacity:1;fill-rule:evenodd;stroke:#000000;stroke-width:10;stroke-linecap:round;stroke-linejoin:round;stroke-miterlimit:4;stroke-dasharray:none;stroke-opacity:1" />
    </g>
    <g
       id="g4223"
       transform="matrix(-0.89637366,0,0,0.89637366,719.42822,49.634435)">
      <path
         sodipodi:nodetypes="sssss"
         inkscape:connector-curvature="0"
         id="path4225"
         d="m 252.54441,710.97846 c -16.55288,-0.78567 -25.09233,23.54401 -24.47702,38.67336 0.56017,13.77383 10.07788,34.9957 25.14492,35.13745 14.41412,0.1356 21.0683,-18.31732 21.47687,-31.46741 0.4657,-14.98869 -5.7123,-41.56344 -22.14477,-42.3434 z"
         style="opacity:1;fill:#976348;fill-opacity:1;fill-rule:evenodd;stroke:#000000;stroke-width:7.55957222;stroke-linecap:butt;stroke-linejoin:miter;stroke-miterlimit:4;stroke-dasharray:none;stroke-opacity:1" />
      <path
         style="opacity:1;fill:#976348;fill-opacity:1;fill-rule:evenodd;stroke:#000000;stroke-width:10;stroke-linecap:butt;stroke-linejoin:miter;stroke-miterlimit:4;stroke-dasharray:none;stroke-opacity:1"
         d="m 221.22341,686.68698 c -20.68009,3.21627 -25.53256,38.61581 -21.21321,59.09393 3.93235,18.64337 20.70701,45.12598 39.39595,41.41625 17.87907,-3.54897 21.77911,-30.44382 19.1929,-48.48732 -2.94781,-20.56627 -16.84599,-55.21573 -37.37564,-52.02286 z"
         id="path4227"
         inkscape:connector-curvature="0"
         sodipodi:nodetypes="sssss" />
    </g>
  </g>
</svg>
