<?xml version="1.0" encoding="UTF-8" standalone="no"?>
<!-- Created with Inkscape (http://www.inkscape.org/) -->

<svg
   xmlns:dc="http://purl.org/dc/elements/1.1/"
   xmlns:cc="http://creativecommons.org/ns#"
   xmlns:rdf="http://www.w3.org/1999/02/22-rdf-syntax-ns#"
   xmlns:svg="http://www.w3.org/2000/svg"
   xmlns="http://www.w3.org/2000/svg"
   xmlns:sodipodi="http://sodipodi.sourceforge.net/DTD/sodipodi-0.dtd"
   xmlns:inkscape="http://www.inkscape.org/namespaces/inkscape"
   width="210mm"
   height="297mm"
   viewBox="0 0 744.09448819 1052.3622047"
   id="svg4811"
   version="1.1"
   inkscape:version="0.91 r13725"
   sodipodi:docname="xmas-tree.svg">
  <defs
     id="defs4813" />
  <sodipodi:namedview
     id="base"
     pagecolor="#ffffff"
     bordercolor="#666666"
     borderopacity="1.0"
     inkscape:pageopacity="0.0"
     inkscape:pageshadow="2"
     inkscape:zoom="0.35"
     inkscape:cx="66.897685"
     inkscape:cy="802.50049"
     inkscape:document-units="px"
     inkscape:current-layer="layer1"
     showgrid="false"
     inkscape:window-width="1920"
     inkscape:window-height="1027"
     inkscape:window-x="1912"
     inkscape:window-y="-8"
     inkscape:window-maximized="1" />
  <metadata
     id="metadata4816">
    <rdf:RDF>
      <cc:Work
         rdf:about="">
        <dc:format>image/svg+xml</dc:format>
        <dc:type
           rdf:resource="http://purl.org/dc/dcmitype/StillImage" />
        <dc:title></dc:title>
      </cc:Work>
    </rdf:RDF>
  </metadata>
  <g
     inkscape:label="Calque 1"
     inkscape:groupmode="layer"
     id="layer1">
    <path
       style="fill:#78c043;fill-rule:evenodd;stroke:#000000;stroke-width:10;stroke-linecap:butt;stroke-linejoin:round;stroke-miterlimit:4;stroke-dasharray:none;stroke-opacity:1;fill-opacity:1"
       d="m 851.09408,331.70503 c 6.34668,25.03061 49.9091,-1.29744 57.81771,12.80415 38.9357,69.42497 94.66281,8.5321 97.11941,13.54489 13.1368,26.80644 24.083,31.24959 35.0228,30.41395 15.0901,-1.15268 38.8874,-41.04104 38.8874,-41.04104 0,0 27.6966,38.15964 40.8399,37.93821 15.6978,-0.26447 39.8356,-25.53683 39.8356,-25.53683 47.6113,24.27719 83.8815,20.5109 97.1513,-14.40098 1.7513,-4.60758 38.5781,10.17573 56.9859,-8.6716 21.9614,-22.48577 -18.3194,-74.53214 -62.1244,-108.5914 -94.2955,-73.3166 -281.23205,-42.77802 -344.46201,2.02031 -47.51257,33.66258 -67.51685,60.33331 -57.07361,101.52034 z"
       id="path5374"
       inkscape:connector-curvature="0"
       sodipodi:nodetypes="sssscsssssss" />
    <path
       style="fill:#956b34;fill-rule:evenodd;stroke:#000000;stroke-width:10;stroke-linecap:butt;stroke-linejoin:miter;stroke-opacity:1;stroke-miterlimit:4;stroke-dasharray:none;fill-opacity:1"
       d="m 327.28942,854.87738 c -8.39208,-63.75204 15.54342,-174.23536 14.14214,-188.39345 -1.73681,-17.54822 66.96108,-12.69009 69.70053,-4.04061 9.98781,31.53525 11.26404,138.78216 12.12183,185.86807 0.46351,25.44299 -92.75762,30.92763 -95.9645,6.56599 z"
       id="path5535"
       inkscape:connector-curvature="0"
       sodipodi:nodetypes="sssss" />
    <path
       style="fill:#78c043;fill-opacity:1;fill-rule:evenodd;stroke:#000000;stroke-width:10;stroke-linecap:round;stroke-linejoin:round;stroke-miterlimit:4;stroke-dasharray:none;stroke-opacity:1"
       d="m 199.36658,595.35645 c -4.86925,20.28357 -25.00596,32.73058 -38.24684,45.20079 -32.01539,30.43139 -34.58597,67.7214 -17.57933,82.04335 10.40827,8.73168 29.97246,7.49565 52.0293,-3.28711 1.10898,17.67391 8.3165,31.51385 20.21875,38.82422 20.70958,12.60576 51.81067,3.47334 77.16407,-22.6582 3.73335,20.02243 13.21113,33.25829 25.5449,35.67383 18.20144,3.48426 38.5243,-17.12086 48.9375,-49.61719 10.41286,32.49691 30.7358,53.10292 48.9375,49.61914 12.33465,-2.41443 32.92495,-14.64028 36.65858,-34.66368 25.35311,26.13007 45.34141,34.25147 66.05042,21.6461 11.90315,-7.30985 19.1114,-21.14985 20.2207,-38.82422 22.0563,10.78287 41.62037,12.01963 52.0293,3.28907 17.00664,-14.32196 14.85445,-57.2299 -18.5895,-86.08397 -17.55338,-15.14433 -31.02795,-19.83043 -41.9476,-41.16213 z"
       id="path5395"
       inkscape:connector-curvature="0"
       sodipodi:nodetypes="cccccccccccccscc" />
    <path
       inkscape:connector-curvature="0"
       id="path5417"
       d="m 247.82846,472.42369 c -6.7634,21.12636 -28.45882,41.17506 -41.98136,53.91057 -26.95761,25.62385 -40.05963,66.17222 -25.7397,78.2316 8.76397,7.35226 25.23742,6.3115 43.80974,-2.76781 0.93378,14.88179 7.00266,26.5353 17.0246,32.69078 17.43789,10.6143 43.62564,2.92462 64.97372,-19.07867 3.14356,16.85931 11.12405,28.00417 21.50934,30.0381 15.32598,2.93382 32.43824,-14.41611 41.20637,-41.77868 8.76785,27.36306 25.88017,44.71373 41.20637,41.78032 10.38603,-2.033 18.36722,-13.17798 21.51101,-30.03809 21.34783,22.00205 47.53465,29.69099 64.97206,19.07702 10.02269,-6.15504 16.09218,-17.8086 17.02624,-32.69078 18.57186,9.0794 35.0452,10.12077 43.80973,2.76946 14.31993,-12.05938 8.13504,-53.93589 -20.02543,-78.23161 -14.78028,-12.75183 -31.03919,-35.23622 -40.23376,-53.19792 z"
       style="fill:#78c043;fill-opacity:1;fill-rule:evenodd;stroke:#000000;stroke-width:10;stroke-linecap:round;stroke-linejoin:round;stroke-miterlimit:4;stroke-dasharray:none;stroke-opacity:1"
       sodipodi:nodetypes="cccccccccccccscc" />
    <path
       style="fill:#78c043;fill-opacity:1;fill-rule:evenodd;stroke:#000000;stroke-width:10;stroke-linecap:round;stroke-linejoin:round;stroke-miterlimit:4;stroke-dasharray:none;stroke-opacity:1"
       d="m 1064.8368,-68.887544 c -21.1207,20.07577 -24.1474,31.86695 -12.928,41.31523 6.8664,5.760349 19.773,4.944929 34.324,-2.16852 11.8556,59.33092 99.848,36.6093397 113.3806,1.4663 30.353,62.95722 104.4479,0.47068 110.5174,-10.20677 0,0 29.2556,15.193159 37.1885,10.91028 11.4436,-12.51099 -1.8074,-21.23946 -22.9281,-41.31523 -63.1253,-51.489886 -128.0422,-185.153806 -128.0542,-185.133806 -7.3083,-6.08301 -82.3974,150.40522 -131.5002,185.132516 z"
       id="path5419"
       inkscape:connector-curvature="0"
       sodipodi:nodetypes="ccccscccc" />
    <path
       sodipodi:nodetypes="cccc"
       inkscape:connector-curvature="0"
       id="path5423"
       d="m 1012.7578,801.06705 c 39.4424,-5.52307 131.5993,-1.86892 198.1582,10e-4 -38.9228,-61.8995 -97.7637,-186.36705 -97.7637,-186.36705 -35.3104,65.88728 -64.0723,130.93862 -100.3945,186.36605 z"
       style="fill:#78c043;fill-opacity:1;fill-rule:evenodd;stroke:#000000;stroke-width:8.76664543;stroke-linecap:round;stroke-linejoin:round;stroke-miterlimit:4;stroke-dasharray:none;stroke-opacity:1" />
    <ellipse
       style="opacity:1;fill:#78c043;fill-opacity:1;fill-rule:nonzero;stroke:#000000;stroke-width:11.45866108;stroke-linecap:round;stroke-linejoin:round;stroke-miterlimit:4;stroke-dasharray:none;stroke-opacity:1"
       id="path5427"
       cx="713.33392"
       cy="1161.5417"
       rx="109.88869"
       ry="31.273468"
       transform="matrix(0.91800977,-0.39655776,0.3622666,0.93207452,0,0)" />
    <ellipse
       style="opacity:1;fill:#78c043;fill-opacity:1;fill-rule:nonzero;stroke:#000000;stroke-width:9.48008537;stroke-linecap:round;stroke-linejoin:round;stroke-miterlimit:4;stroke-dasharray:none;stroke-opacity:1"
       id="path5429"
       cx="1083.926"
       cy="801.12103"
       rx="45.043098"
       ry="55.215355" />
    <ellipse
       transform="matrix(-0.91800977,-0.39655776,-0.3622666,0.93207452,0,0)"
       ry="30.177286"
       rx="106.03693"
       cy="277.78757"
       cx="-1369.0017"
       id="ellipse5431"
       style="opacity:1;fill:#78c043;fill-opacity:1;fill-rule:nonzero;stroke:#000000;stroke-width:11.05701733;stroke-linecap:round;stroke-linejoin:round;stroke-miterlimit:4;stroke-dasharray:none;stroke-opacity:1" />
    <ellipse
       ry="53.759911"
       rx="45.102886"
       cy="802.63629"
       cx="-1144.074"
       id="ellipse5433"
       style="opacity:1;fill:#78c043;fill-opacity:1;fill-rule:nonzero;stroke:#000000;stroke-width:9.36051273;stroke-linecap:round;stroke-linejoin:round;stroke-miterlimit:4;stroke-dasharray:none;stroke-opacity:1"
       transform="scale(-1,1)" />
    <path
       style="fill:#78c043;fill-opacity:1;fill-rule:evenodd;stroke:#000000;stroke-width:8.76664543;stroke-linecap:round;stroke-linejoin:round;stroke-miterlimit:4;stroke-dasharray:none;stroke-opacity:1"
       d="M 1584.5801 463.27148 C 1550.3604 527.12362 1522.2919 590.1912 1487.5312 644.47461 A 31.250097 109.89534 66.449893 0 0 1446.1855 691.91406 A 31.250097 109.89534 66.449893 0 0 1524.7461 690.10742 A 45.043098 55.215355 0 0 0 1555.3555 704.9082 A 45.043098 55.215355 0 0 0 1585.2031 690.95117 A 45.102886 53.759911 0 0 0 1615.502 704.9668 A 45.102886 53.759911 0 0 0 1646.709 689.9375 A 106.04334 30.154734 23.550107 0 0 1724.8945 692.42773 A 106.04334 30.154734 23.550107 0 0 1677.7637 642.20703 C 1638.9765 578.32762 1584.5801 463.27148 1584.5801 463.27148 z "
       id="path5452" />
    <path
       inkscape:connector-curvature="0"
       id="path5471"
       d="m -317.67767,52.845507 50,-2.85715 15.35714,-45.7142773 0.71429,97.8571403 -40,24.99999 10,-44.999993 z"
       style="fill:none;fill-rule:evenodd;stroke:#000000;stroke-width:10;stroke-linecap:butt;stroke-linejoin:round;stroke-miterlimit:4;stroke-dasharray:none;stroke-opacity:1"
       sodipodi:nodetypes="ccccccc" />
    <path
       style="fill:none;fill-rule:evenodd;stroke:#000000;stroke-width:10;stroke-linecap:round;stroke-linejoin:round;stroke-miterlimit:4;stroke-dasharray:none;stroke-opacity:1"
       d="m -156.96429,215.04077 c -10.82308,10.94844 -16.53032,24.88112 -19.28571,40.53572 -16.85631,-1.65247 -33.27199,-1.88515 -47.13388,6.11104 7.40423,13.3758 19.1691,24.13521 34.99102,32.46039 -9.10721,15.87304 -9.58365,28.86915 -10.89285,42.14285 16.90304,-0.94137 31.16296,-7.82975 42.67857,-20.89285"
       id="path5480"
       inkscape:connector-curvature="0"
       sodipodi:nodetypes="cccccc" />
    <path
       id="path6434"
       d="m 372.91989,264.3869 c -10.5408,65.42883 -148.38909,193.62229 -126.19344,233.35117 9.7051,12.14084 34.09582,11.20396 64.48291,-2.47688 6.73965,13.84321 16.5147,21.80889 26.84788,21.87831 11.52751,0.0171 22.42236,-9.78761 29.31811,-26.3844 6.67211,16.51719 17.38491,26.31218 28.85669,26.3844 11.11519,0.0105 21.66543,-9.11377 28.59771,-24.73239 33.04515,16.31241 60.22442,18.36457 70.60452,5.33096 C 518.52354,467.66482 415.39934,353.85896 372.91989,264.3869 Z"
       style="fill:#78c043;fill-opacity:1;fill-rule:evenodd;stroke:#000000;stroke-width:11.63449574;stroke-linecap:round;stroke-linejoin:round;stroke-miterlimit:4;stroke-dasharray:none;stroke-opacity:1"
       inkscape:connector-curvature="0"
       sodipodi:nodetypes="ccccccccc" />
    <path
       id="path5486"
       style="fill:#f7f06b;fill-opacity:1;fill-rule:evenodd;stroke:#000000;stroke-width:10;stroke-linecap:round;stroke-linejoin:round;stroke-miterlimit:4;stroke-dasharray:none;stroke-opacity:1"
       d="m 394.2399,253.02392 c 16.85631,-1.65247 33.27199,-1.88515 47.13388,6.11104 -7.40423,13.3758 -19.1691,24.13521 -34.99102,32.46039 9.10721,15.87304 9.58365,28.86915 10.89285,42.14285 -16.90304,-0.94137 -31.16296,-7.82975 -42.8675,-20.89285 -11.70453,13.0631 -25.96445,19.95148 -42.86749,20.89285 1.3092,-13.2737 1.78564,-26.26981 10.89285,-42.14285 -15.82192,-8.32518 -27.58679,-19.08459 -34.99102,-32.46039 13.86189,-7.99619 30.27757,-7.76351 47.13388,-6.11104 2.75539,-15.6546 8.46263,-29.58728 19.83178,-40.53572 11.36916,10.94844 17.0764,24.88112 19.83179,40.53572 z"
       inkscape:connector-curvature="0"
       sodipodi:nodetypes="ccccccccccc" />
    <circle
       style="opacity:1;fill:#000000;fill-opacity:1;fill-rule:nonzero;stroke:none;stroke-width:10;stroke-linecap:round;stroke-linejoin:round;stroke-miterlimit:4;stroke-dasharray:none;stroke-opacity:1"
       id="path5494"
       cx="353.50247"
       cy="268.97064"
       r="6.5659914" />
    <circle
       r="6.5659914"
       cy="268.59183"
       cx="-391.93771"
       id="circle5509"
       style="opacity:1;fill:#000000;fill-opacity:1;fill-rule:nonzero;stroke:none;stroke-width:10;stroke-linecap:round;stroke-linejoin:round;stroke-miterlimit:4;stroke-dasharray:none;stroke-opacity:1"
       transform="scale(-1,1)" />
    <path
       style="fill:none;fill-opacity:1;fill-rule:evenodd;stroke:#000000;stroke-width:5;stroke-linecap:round;stroke-linejoin:miter;stroke-miterlimit:4;stroke-dasharray:none;stroke-opacity:1"
       d="m 363.86969,276.67304 c 5.00668,4.05295 10.2982,5.96958 16.64122,0"
       id="path5521"
       inkscape:connector-curvature="0"
       sodipodi:nodetypes="cc" />
    <path
       sodipodi:nodetypes="sssscsssssss"
       inkscape:connector-curvature="0"
       id="path5537"
       d="m 900.79059,248.56666 c 4.90947,19.3624 38.60712,-1.00363 44.72482,9.90464 30.11866,53.7036 73.22629,6.59999 75.12659,10.47763 10.162,20.73609 18.6294,24.17308 27.0919,23.52667 11.6729,-0.89165 30.0813,-31.74724 30.0813,-31.74724 0,0 21.4246,29.51834 31.5916,29.34705 12.143,-0.20458 30.8148,-19.75398 30.8148,-19.75398 36.8297,18.77959 64.8864,15.86618 75.1513,-11.13986 1.3547,-3.56419 29.842,7.87142 44.0814,-6.70791 16.9882,-17.39384 -14.171,-57.65424 -48.0563,-84.00074 -72.9422,-56.71397 -217.54673,-33.09089 -266.45819,1.56281 -36.75329,26.03964 -52.22758,46.67076 -44.14922,78.53093 z"
       style="fill:#78c043;fill-rule:evenodd;stroke:#000000;stroke-width:10;stroke-linecap:butt;stroke-linejoin:round;stroke-miterlimit:4;stroke-dasharray:none;stroke-opacity:1;fill-opacity:1" />
    <path
       style="fill:#78c043;fill-rule:evenodd;stroke:#000000;stroke-width:10;stroke-linecap:butt;stroke-linejoin:round;stroke-miterlimit:4;stroke-dasharray:none;stroke-opacity:1;fill-opacity:1"
       d="m 951.28972,179.85193 c 3.49406,13.78018 27.4766,-0.71428 31.83055,7.04911 21.43543,38.22073 52.11503,4.6972 53.46743,7.45691 7.2323,14.75782 13.2585,17.20392 19.2812,16.74387 8.3076,-0.63458 21.4088,-22.59443 21.4088,-22.59443 0,0 15.2478,21.00813 22.4837,20.88622 8.6421,-0.1456 21.9308,-14.05886 21.9308,-14.05886 26.2116,13.36539 46.1795,11.29193 53.485,-7.92821 0.9641,-2.53663 21.2385,5.60207 31.3726,-4.774 12.0905,-12.37916 -10.0855,-41.03239 -34.2015,-59.78314 -51.9128,-40.3632 -154.8275,-23.55071 -189.63768,1.11225 -26.15723,18.53235 -37.17025,33.21548 -31.4209,55.89028 z"
       id="path5539"
       inkscape:connector-curvature="0"
       sodipodi:nodetypes="sssscsssssss" />
    <g
       id="g6311"
       transform="translate(368.57143,134.28571)">
      <circle
         style="opacity:1;fill:#5191e6;fill-opacity:1;fill-rule:nonzero;stroke:#000000;stroke-width:5;stroke-linecap:round;stroke-linejoin:round;stroke-miterlimit:4;stroke-dasharray:none;stroke-opacity:1"
         id="circle5551"
         cx="-663.21429"
         cy="349.86224"
         r="21.208113" />
      <path
         sodipodi:nodetypes="sssss"
         inkscape:connector-curvature="0"
         id="path5555"
         d="m -646.37293,341.29142 c 1.07106,2.18192 -9.53571,-2.58023 -16.78382,-2.58023 -7.24812,0 -18.40791,6.21974 -17.16897,3.21923 2.72961,-6.61065 10.16573,-10.87237 17.41385,-10.87237 7.24811,0 13.98208,5.02462 16.53894,10.23337 z"
         style="opacity:1;fill:#ffffff;fill-opacity:0.29411765;fill-rule:nonzero;stroke:none;stroke-width:5;stroke-linecap:round;stroke-linejoin:round;stroke-miterlimit:4;stroke-dasharray:none;stroke-opacity:1" />
    </g>
    <g
       id="g6289"
       transform="translate(368.57143,134.28571)">
      <circle
         r="21.208113"
         cy="349.86224"
         cx="-592.75616"
         id="circle6171"
         style="opacity:1;fill:#ea5a4d;fill-opacity:1;fill-rule:nonzero;stroke:#000000;stroke-width:5;stroke-linecap:round;stroke-linejoin:round;stroke-miterlimit:4;stroke-dasharray:none;stroke-opacity:1" />
      <path
         style="opacity:1;fill:#ffffff;fill-opacity:0.29411765;fill-rule:nonzero;stroke:none;stroke-width:5;stroke-linecap:round;stroke-linejoin:round;stroke-miterlimit:4;stroke-dasharray:none;stroke-opacity:1"
         d="m -575.91479,341.29142 c 1.07106,2.18192 -9.53571,-2.58023 -16.78382,-2.58023 -7.24812,0 -18.40791,6.21974 -17.16897,3.21923 2.72961,-6.61065 10.16573,-10.87237 17.41385,-10.87237 7.24811,0 13.98208,5.02462 16.53894,10.23337 z"
         id="path6173"
         inkscape:connector-curvature="0"
         sodipodi:nodetypes="sssss" />
    </g>
    <g
       id="g6321"
       transform="translate(368.57143,134.28571)">
      <circle
         style="opacity:1;fill:#ead74d;fill-opacity:1;fill-rule:nonzero;stroke:#000000;stroke-width:5;stroke-linecap:round;stroke-linejoin:round;stroke-miterlimit:4;stroke-dasharray:none;stroke-opacity:1"
         id="circle6177"
         cx="-528.86401"
         cy="349.60971"
         r="21.208113" />
      <path
         sodipodi:nodetypes="sssss"
         inkscape:connector-curvature="0"
         id="path6179"
         d="m -512.02264,341.03888 c 1.07106,2.18192 -9.53571,-2.58023 -16.78382,-2.58023 -7.24812,0 -18.40791,6.21974 -17.16897,3.21923 2.72961,-6.61065 10.16573,-10.87237 17.41385,-10.87237 7.24811,0 13.98208,5.02462 16.53894,10.23337 z"
         style="opacity:1;fill:#ffffff;fill-opacity:0.29411765;fill-rule:nonzero;stroke:none;stroke-width:5;stroke-linecap:round;stroke-linejoin:round;stroke-miterlimit:4;stroke-dasharray:none;stroke-opacity:1" />
    </g>
    <g
       id="g6337"
       transform="translate(368.57143,134.28571)">
      <circle
         r="21.208113"
         cy="422.3407"
         cx="-629.37421"
         id="circle6191"
         style="opacity:1;fill:#e6517e;fill-opacity:1;fill-rule:nonzero;stroke:#000000;stroke-width:5;stroke-linecap:round;stroke-linejoin:round;stroke-miterlimit:4;stroke-dasharray:none;stroke-opacity:1" />
      <path
         style="opacity:1;fill:#ffffff;fill-opacity:0.29411765;fill-rule:nonzero;stroke:none;stroke-width:5;stroke-linecap:round;stroke-linejoin:round;stroke-miterlimit:4;stroke-dasharray:none;stroke-opacity:1"
         d="m -612.53282,413.76987 c 1.07106,2.18192 -9.53571,-2.58023 -16.78382,-2.58023 -7.24812,0 -18.40791,6.21974 -17.16897,3.21923 2.72961,-6.61065 10.16573,-10.87237 17.41385,-10.87237 7.24811,0 13.98208,5.02462 16.53894,10.23337 z"
         id="path6193"
         inkscape:connector-curvature="0"
         sodipodi:nodetypes="sssss" />
    </g>
    <g
       id="g6347"
       transform="translate(368.57143,134.28571)">
      <circle
         r="21.208113"
         cy="423.85593"
         cx="-544.77393"
         id="circle6207"
         style="opacity:1;fill:#3b8627;fill-opacity:1;fill-rule:nonzero;stroke:#000000;stroke-width:5;stroke-linecap:round;stroke-linejoin:round;stroke-miterlimit:4;stroke-dasharray:none;stroke-opacity:1" />
      <path
         style="opacity:1;fill:#ffffff;fill-opacity:0.29411765;fill-rule:nonzero;stroke:none;stroke-width:5;stroke-linecap:round;stroke-linejoin:round;stroke-miterlimit:4;stroke-dasharray:none;stroke-opacity:1"
         d="m -527.93254,415.28509 c 1.07106,2.18192 -9.53571,-2.58023 -16.78382,-2.58023 -7.24812,0 -18.40791,6.21974 -17.16897,3.21923 2.72961,-6.61065 10.16573,-10.87237 17.41385,-10.87237 7.24811,0 13.98208,5.02462 16.53894,10.23337 z"
         id="path6209"
         inkscape:connector-curvature="0"
         sodipodi:nodetypes="sssss" />
    </g>
    <g
       id="g6301"
       transform="translate(368.57143,134.28571)">
      <circle
         style="opacity:1;fill:#c52617;fill-opacity:1;fill-rule:nonzero;stroke:#000000;stroke-width:5;stroke-linecap:round;stroke-linejoin:round;stroke-miterlimit:4;stroke-dasharray:none;stroke-opacity:1"
         id="circle6295"
         cx="-592.75616"
         cy="349.86224"
         r="21.208113" />
      <path
         sodipodi:nodetypes="sssss"
         inkscape:connector-curvature="0"
         id="path6297"
         d="m -575.91479,341.29142 c 1.07106,2.18192 -9.53571,-2.58023 -16.78382,-2.58023 -7.24812,0 -18.40791,6.21974 -17.16897,3.21923 2.72961,-6.61065 10.16573,-10.87237 17.41385,-10.87237 7.24811,0 13.98208,5.02462 16.53894,10.23337 z"
         style="opacity:1;fill:#ffffff;fill-opacity:0.29411765;fill-rule:nonzero;stroke:none;stroke-width:5;stroke-linecap:round;stroke-linejoin:round;stroke-miterlimit:4;stroke-dasharray:none;stroke-opacity:1" />
    </g>
    <g
       id="g6305"
       transform="translate(1005.0631,47.645383)">
      <circle
         r="21.208113"
         cy="349.86224"
         cx="-592.75616"
         id="circle6307"
         style="opacity:1;fill:#c52617;fill-opacity:1;fill-rule:nonzero;stroke:#000000;stroke-width:5;stroke-linecap:round;stroke-linejoin:round;stroke-miterlimit:4;stroke-dasharray:none;stroke-opacity:1" />
      <path
         style="opacity:1;fill:#ffffff;fill-opacity:0.29411765;fill-rule:nonzero;stroke:none;stroke-width:5;stroke-linecap:round;stroke-linejoin:round;stroke-miterlimit:4;stroke-dasharray:none;stroke-opacity:1"
         d="m -575.91479,341.29142 c 1.07106,2.18192 -9.53571,-2.58023 -16.78382,-2.58023 -7.24812,0 -18.40791,6.21974 -17.16897,3.21923 2.72961,-6.61065 10.16573,-10.87237 17.41385,-10.87237 7.24811,0 13.98208,5.02462 16.53894,10.23337 z"
         id="path6309"
         inkscape:connector-curvature="0"
         sodipodi:nodetypes="sssss" />
    </g>
    <g
       id="g6315"
       transform="translate(994.22878,51.730596)">
      <circle
         r="21.208113"
         cy="349.86224"
         cx="-663.21429"
         id="circle6317"
         style="opacity:1;fill:#5191e6;fill-opacity:1;fill-rule:nonzero;stroke:#000000;stroke-width:5;stroke-linecap:round;stroke-linejoin:round;stroke-miterlimit:4;stroke-dasharray:none;stroke-opacity:1" />
      <path
         style="opacity:1;fill:#ffffff;fill-opacity:0.29411765;fill-rule:nonzero;stroke:none;stroke-width:5;stroke-linecap:round;stroke-linejoin:round;stroke-miterlimit:4;stroke-dasharray:none;stroke-opacity:1"
         d="m -646.37293,341.29142 c 1.07106,2.18192 -9.53571,-2.58023 -16.78382,-2.58023 -7.24812,0 -18.40791,6.21974 -17.16897,3.21923 2.72961,-6.61065 10.16573,-10.87237 17.41385,-10.87237 7.24811,0 13.98208,5.02462 16.53894,10.23337 z"
         id="path6319"
         inkscape:connector-curvature="0"
         sodipodi:nodetypes="sssss" />
    </g>
    <g
       id="g6325"
       transform="translate(890.98042,105.20921)">
      <circle
         r="21.208113"
         cy="349.60971"
         cx="-528.86401"
         id="circle6327"
         style="opacity:1;fill:#ead74d;fill-opacity:1;fill-rule:nonzero;stroke:#000000;stroke-width:5;stroke-linecap:round;stroke-linejoin:round;stroke-miterlimit:4;stroke-dasharray:none;stroke-opacity:1" />
      <path
         style="opacity:1;fill:#ffffff;fill-opacity:0.29411765;fill-rule:nonzero;stroke:none;stroke-width:5;stroke-linecap:round;stroke-linejoin:round;stroke-miterlimit:4;stroke-dasharray:none;stroke-opacity:1"
         d="m -512.02264,341.03888 c 1.07106,2.18192 -9.53571,-2.58023 -16.78382,-2.58023 -7.24812,0 -18.40791,6.21974 -17.16897,3.21923 2.72961,-6.61065 10.16573,-10.87237 17.41385,-10.87237 7.24811,0 13.98208,5.02462 16.53894,10.23337 z"
         id="path6329"
         inkscape:connector-curvature="0"
         sodipodi:nodetypes="sssss" />
    </g>
    <g
       id="g6331"
       transform="translate(977.14286,347.85714)">
      <circle
         r="21.208113"
         cy="349.86224"
         cx="-663.21429"
         id="circle6333"
         style="opacity:1;fill:#5191e6;fill-opacity:1;fill-rule:nonzero;stroke:#000000;stroke-width:5;stroke-linecap:round;stroke-linejoin:round;stroke-miterlimit:4;stroke-dasharray:none;stroke-opacity:1" />
      <path
         style="opacity:1;fill:#ffffff;fill-opacity:0.29411765;fill-rule:nonzero;stroke:none;stroke-width:5;stroke-linecap:round;stroke-linejoin:round;stroke-miterlimit:4;stroke-dasharray:none;stroke-opacity:1"
         d="m -646.37293,341.29142 c 1.07106,2.18192 -9.53571,-2.58023 -16.78382,-2.58023 -7.24812,0 -18.40791,6.21974 -17.16897,3.21923 2.72961,-6.61065 10.16573,-10.87237 17.41385,-10.87237 7.24811,0 13.98208,5.02462 16.53894,10.23337 z"
         id="path6335"
         inkscape:connector-curvature="0"
         sodipodi:nodetypes="sssss" />
    </g>
    <g
       id="g6341"
       transform="translate(1129.7252,277.22336)">
      <circle
         style="opacity:1;fill:#e6517e;fill-opacity:1;fill-rule:nonzero;stroke:#000000;stroke-width:5;stroke-linecap:round;stroke-linejoin:round;stroke-miterlimit:4;stroke-dasharray:none;stroke-opacity:1"
         id="circle6343"
         cx="-629.37421"
         cy="422.3407"
         r="21.208113" />
      <path
         sodipodi:nodetypes="sssss"
         inkscape:connector-curvature="0"
         id="path6345"
         d="m -612.53282,413.76987 c 1.07106,2.18192 -9.53571,-2.58023 -16.78382,-2.58023 -7.24812,0 -18.40791,6.21974 -17.16897,3.21923 2.72961,-6.61065 10.16573,-10.87237 17.41385,-10.87237 7.24811,0 13.98208,5.02462 16.53894,10.23337 z"
         style="opacity:1;fill:#ffffff;fill-opacity:0.29411765;fill-rule:nonzero;stroke:none;stroke-width:5;stroke-linecap:round;stroke-linejoin:round;stroke-miterlimit:4;stroke-dasharray:none;stroke-opacity:1" />
    </g>
    <g
       id="g6351"
       transform="translate(957.14286,254.28571)">
      <circle
         style="opacity:1;fill:#3b8627;fill-opacity:1;fill-rule:nonzero;stroke:#000000;stroke-width:5;stroke-linecap:round;stroke-linejoin:round;stroke-miterlimit:4;stroke-dasharray:none;stroke-opacity:1"
         id="circle6353"
         cx="-544.77393"
         cy="423.85593"
         r="21.208113" />
      <path
         sodipodi:nodetypes="sssss"
         inkscape:connector-curvature="0"
         id="path6355"
         d="m -527.93254,415.28509 c 1.07106,2.18192 -9.53571,-2.58023 -16.78382,-2.58023 -7.24812,0 -18.40791,6.21974 -17.16897,3.21923 2.72961,-6.61065 10.16573,-10.87237 17.41385,-10.87237 7.24811,0 13.98208,5.02462 16.53894,10.23337 z"
         style="opacity:1;fill:#ffffff;fill-opacity:0.29411765;fill-rule:nonzero;stroke:none;stroke-width:5;stroke-linecap:round;stroke-linejoin:round;stroke-miterlimit:4;stroke-dasharray:none;stroke-opacity:1" />
    </g>
    <g
       id="g6357"
       transform="translate(745.71429,314.28571)">
      <circle
         r="21.208113"
         cy="349.60971"
         cx="-528.86401"
         id="circle6359"
         style="opacity:1;fill:#ead74d;fill-opacity:1;fill-rule:nonzero;stroke:#000000;stroke-width:5;stroke-linecap:round;stroke-linejoin:round;stroke-miterlimit:4;stroke-dasharray:none;stroke-opacity:1" />
      <path
         style="opacity:1;fill:#ffffff;fill-opacity:0.29411765;fill-rule:nonzero;stroke:none;stroke-width:5;stroke-linecap:round;stroke-linejoin:round;stroke-miterlimit:4;stroke-dasharray:none;stroke-opacity:1"
         d="m -512.02264,341.03888 c 1.07106,2.18192 -9.53571,-2.58023 -16.78382,-2.58023 -7.24812,0 -18.40791,6.21974 -17.16897,3.21923 2.72961,-6.61065 10.16573,-10.87237 17.41385,-10.87237 7.24811,0 13.98208,5.02462 16.53894,10.23337 z"
         id="path6361"
         inkscape:connector-curvature="0"
         sodipodi:nodetypes="sssss" />
    </g>
    <path
       style="opacity:1;fill:#000000;fill-opacity:1;fill-rule:nonzero;stroke:none;stroke-width:5;stroke-linecap:round;stroke-linejoin:round;stroke-miterlimit:4;stroke-dasharray:none;stroke-opacity:1"
       d="m 339.26568,561.67401 a 32.577419,20.834396 0 0 0 -0.0254,0.31445 32.577419,20.834396 0 0 0 32.57617,20.83399 32.577419,20.834396 0 0 0 32.57813,-20.83399 32.577419,20.834396 0 0 0 -0.0176,-0.31445 l -65.11133,0 z"
       id="path6373"
       inkscape:connector-curvature="0" />
    <ellipse
       ry="20.834396"
       rx="32.577419"
       cy="626.88245"
       cx="926.77136"
       id="ellipse6375"
       style="opacity:1;fill:#000000;fill-opacity:1;fill-rule:nonzero;stroke:none;stroke-width:5;stroke-linecap:round;stroke-linejoin:round;stroke-miterlimit:4;stroke-dasharray:none;stroke-opacity:1" />
    <ellipse
       style="opacity:1;fill:#ff0000;fill-opacity:1;fill-rule:nonzero;stroke:none;stroke-width:5;stroke-linecap:round;stroke-linejoin:round;stroke-miterlimit:4;stroke-dasharray:none;stroke-opacity:1"
       id="path6384"
       cx="371.39694"
       cy="574.61572"
       rx="16.036171"
       ry="3.7249374" />
    <circle
       style="opacity:1;fill:#000000;fill-opacity:1;fill-rule:nonzero;stroke:none;stroke-width:5;stroke-linecap:round;stroke-linejoin:round;stroke-miterlimit:4;stroke-dasharray:none;stroke-opacity:1"
       id="path6386"
       cx="311.31653"
       cy="548.49493"
       r="13.571428" />
    <circle
       r="13.571428"
       cy="548.49493"
       cx="428.81653"
       id="circle6388"
       style="opacity:1;fill:#000000;fill-opacity:1;fill-rule:nonzero;stroke:none;stroke-width:5;stroke-linecap:round;stroke-linejoin:round;stroke-miterlimit:4;stroke-dasharray:none;stroke-opacity:1" />
    <path
       style="fill:#78c043;fill-opacity:1;fill-rule:evenodd;stroke:#000000;stroke-width:8.76664543;stroke-linecap:round;stroke-linejoin:round;stroke-miterlimit:4;stroke-dasharray:none;stroke-opacity:1"
       d="m 1467.0435,192.49562 c 39.4424,-5.52307 131.5993,-1.86892 198.1582,0.001 C 1626.2789,130.59712 1567.438,6.1295711 1567.438,6.1295711 1532.1276,72.016851 1503.3657,137.06819 1467.0435,192.49562 Z"
       id="path6406"
       inkscape:connector-curvature="0"
       sodipodi:nodetypes="cccc" />
    <ellipse
       style="opacity:1;fill:none;fill-opacity:1;fill-rule:nonzero;stroke:#000000;stroke-width:10.00000003;stroke-linecap:round;stroke-linejoin:round;stroke-miterlimit:4;stroke-dasharray:none;stroke-opacity:1"
       id="path6410"
       cx="1068.7421"
       cy="-1108.7688"
       rx="38.600723"
       ry="94.31501"
       transform="matrix(0.62154666,0.78337714,-0.78337714,0.62154666,0,0)" />
    <ellipse
       transform="matrix(0.99999621,0.00275151,-0.00928258,0.99995692,0,0)"
       ry="54.667976"
       rx="41.094952"
       cy="174.59393"
       cx="1528.0552"
       id="ellipse6412"
       style="opacity:1;fill:none;fill-opacity:1;fill-rule:nonzero;stroke:#000000;stroke-width:10.00010664;stroke-linecap:round;stroke-linejoin:round;stroke-miterlimit:4;stroke-dasharray:none;stroke-opacity:1" />
    <ellipse
       transform="matrix(-0.62154666,0.78337714,0.78337714,0.62154666,0,0)"
       ry="94.31501"
       rx="38.600723"
       cy="1344.5453"
       cx="-877.76489"
       id="ellipse6414"
       style="opacity:1;fill:none;fill-opacity:1;fill-rule:nonzero;stroke:#000000;stroke-width:10;stroke-linecap:round;stroke-linejoin:round;stroke-miterlimit:4;stroke-dasharray:none;stroke-opacity:1" />
    <ellipse
       style="opacity:1;fill:none;fill-opacity:1;fill-rule:nonzero;stroke:#000000;stroke-width:10.00010681;stroke-linecap:round;stroke-linejoin:round;stroke-miterlimit:4;stroke-dasharray:none;stroke-opacity:1"
       id="ellipse6416"
       cx="-1603.5925"
       cy="183.21124"
       rx="41.094952"
       ry="54.667976"
       transform="matrix(-0.99999621,0.00275151,0.00928258,0.99995692,0,0)" />
    <path
       style="fill:#78c043;fill-opacity:1;fill-rule:evenodd;stroke:#000000;stroke-width:8.76664543;stroke-linecap:round;stroke-linejoin:round;stroke-miterlimit:4;stroke-dasharray:none;stroke-opacity:1"
       d="M 1840.1797 177.85547 C 1820.0531 215.41061 1802.0507 252.68769 1783.5664 288.07227 A 38.600723 94.31501 51.570832 0 0 1781.6055 289.56445 A 38.600723 94.31501 51.570832 0 0 1731.7148 378.42383 A 38.600723 94.31501 51.570832 0 0 1787.1387 376.29492 A 31.012741 55.298511 0.48190591 0 0 1810.2148 395.09961 A 31.012741 55.298511 0.48190591 0 0 1835.4141 372.42188 A 31.012741 55.298511 0.48190591 0 0 1860.2168 395.09961 A 31.012741 55.298511 0.48190591 0 0 1884.7969 373.8418 A 94.31501 38.600723 38.429168 0 0 1945.4824 378.42383 A 94.31501 38.600723 38.429168 0 0 1896.1777 290.04297 C 1866.8682 234.28119 1840.1797 177.85547 1840.1797 177.85547 z "
       id="path6421" />
    <g
       transform="translate(368.57143,134.28571)"
       id="g6508">
      <circle
         r="21.208113"
         cy="349.86224"
         cx="-663.21429"
         id="circle6510"
         style="opacity:1;fill:#5191e6;fill-opacity:1;fill-rule:nonzero;stroke:#000000;stroke-width:5;stroke-linecap:round;stroke-linejoin:round;stroke-miterlimit:4;stroke-dasharray:none;stroke-opacity:1" />
      <path
         style="opacity:1;fill:#ffffff;fill-opacity:0.29411765;fill-rule:nonzero;stroke:none;stroke-width:5;stroke-linecap:round;stroke-linejoin:round;stroke-miterlimit:4;stroke-dasharray:none;stroke-opacity:1"
         d="m -646.37293,341.29142 c 1.07106,2.18192 -9.53571,-2.58023 -16.78382,-2.58023 -7.24812,0 -18.40791,6.21974 -17.16897,3.21923 2.72961,-6.61065 10.16573,-10.87237 17.41385,-10.87237 7.24811,0 13.98208,5.02462 16.53894,10.23337 z"
         id="path6512"
         inkscape:connector-curvature="0"
         sodipodi:nodetypes="sssss" />
    </g>
    <circle
       r="21.208113"
       cy="385.57654"
       cx="-315.35715"
       id="circle6518"
       style="opacity:1;fill:#5191e6;fill-opacity:1;fill-rule:nonzero;stroke:#000000;stroke-width:5;stroke-linecap:round;stroke-linejoin:round;stroke-miterlimit:4;stroke-dasharray:none;stroke-opacity:1" />
    <path
       style="opacity:1;fill:#ffffff;fill-opacity:0.29411765;fill-rule:nonzero;stroke:none;stroke-width:5;stroke-linecap:round;stroke-linejoin:round;stroke-miterlimit:4;stroke-dasharray:none;stroke-opacity:1"
       d="m -298.51579,377.0057 c 1.07106,2.18192 -9.53571,-2.58023 -16.78382,-2.58023 -7.24812,0 -18.40791,6.21974 -17.16897,3.21923 2.72961,-6.61065 10.16573,-10.87237 17.41385,-10.87237 7.24811,0 13.98208,5.02462 16.53894,10.23337 z"
       id="path6520"
       inkscape:connector-curvature="0"
       sodipodi:nodetypes="sssss" />
  </g>
</svg>
