<?xml version="1.0" encoding="UTF-8" standalone="no"?>
<!-- Created with Inkscape (http://www.inkscape.org/) -->

<svg
   xmlns:dc="http://purl.org/dc/elements/1.1/"
   xmlns:cc="http://creativecommons.org/ns#"
   xmlns:rdf="http://www.w3.org/1999/02/22-rdf-syntax-ns#"
   xmlns:svg="http://www.w3.org/2000/svg"
   xmlns="http://www.w3.org/2000/svg"
   xmlns:xlink="http://www.w3.org/1999/xlink"
   xmlns:sodipodi="http://sodipodi.sourceforge.net/DTD/sodipodi-0.dtd"
   xmlns:inkscape="http://www.inkscape.org/namespaces/inkscape"
   width="210mm"
   height="297mm"
   viewBox="0 0 744.09448819 1052.3622047"
   id="svg4161"
   version="1.1"
   inkscape:version="0.92.2 (5c3e80d, 2017-08-06)"
   sodipodi:docname="xmas-santa.svg">
  <defs
     id="defs4163">
    <radialGradient
       inkscape:collect="always"
       xlink:href="#linearGradient2228"
       id="radialGradient1460"
       gradientUnits="userSpaceOnUse"
       gradientTransform="matrix(15.086343,-4.3177505e-7,3.3466805e-7,19.063242,-2649.8016,-2570.9076)"
       cx="105.83873"
       cy="148.93266"
       fx="105.83873"
       fy="148.93266"
       r="107.87327" />
    <linearGradient
       inkscape:collect="always"
       id="linearGradient2228">
      <stop
         style="stop-color:#eaf9fd;stop-opacity:1"
         offset="0"
         id="stop2224" />
      <stop
         style="stop-color:#b7e5f2;stop-opacity:0"
         offset="1"
         id="stop2226" />
    </linearGradient>
  </defs>
  <sodipodi:namedview
     id="base"
     pagecolor="#ffffff"
     bordercolor="#666666"
     borderopacity="1.0"
     inkscape:pageopacity="0.0"
     inkscape:pageshadow="2"
     inkscape:zoom="0.7"
     inkscape:cx="-2181.0897"
     inkscape:cy="1181.5602"
     inkscape:document-units="px"
     inkscape:current-layer="layer1"
     showgrid="false"
     inkscape:window-width="1920"
     inkscape:window-height="1027"
     inkscape:window-x="1912"
     inkscape:window-y="-8"
     inkscape:window-maximized="1" />
  <metadata
     id="metadata4166">
    <rdf:RDF>
      <cc:Work
         rdf:about="">
        <dc:format>image/svg+xml</dc:format>
        <dc:type
           rdf:resource="http://purl.org/dc/dcmitype/StillImage" />
        <dc:title />
      </cc:Work>
    </rdf:RDF>
  </metadata>
  <g
     inkscape:label="Calque 1"
     inkscape:groupmode="layer"
     id="layer1">
    <g
       id="g7919"
       transform="matrix(-1,0,0,1,361.68964,9.7400354)">
      <ellipse
         transform="matrix(0.55947418,0.82884778,-0.82884778,0.55947418,0,0)"
         style="opacity:1;fill:#000000;fill-opacity:1;fill-rule:nonzero;stroke:#000000;stroke-width:9.23167419;stroke-linecap:round;stroke-linejoin:round;stroke-miterlimit:4;stroke-dasharray:none;stroke-opacity:1"
         id="ellipse7921"
         cx="514.31281"
         cy="570.43665"
         rx="25.608749"
         ry="27.936817" />
      <path
         sodipodi:nodetypes="caacc"
         inkscape:connector-curvature="0"
         id="path7923"
         d="m -186.44564,699.84684 c 33.32081,-36.02213 83.74443,-70.46418 128.247226,-56.33556 12.167093,3.86277 21.941833,20.22915 19.757727,32.80646 -7.854742,45.23218 -62.637163,70.63931 -106.672213,87.11981 z"
         style="fill:#d32218;fill-opacity:1;fill-rule:evenodd;stroke:#000000;stroke-width:9.23167419;stroke-linecap:round;stroke-linejoin:round;stroke-miterlimit:4;stroke-dasharray:none;stroke-opacity:1" />
      <path
         sodipodi:nodetypes="sssss"
         inkscape:connector-curvature="0"
         id="path7925"
         d="m -168.88727,700.56864 28.41289,44.20245 c 15.24036,23.70969 -15.84194,44.22377 -31.4267,19.9783 l -28.41289,-44.20246 c -14.34106,-22.31065 17.1596,-42.17388 31.4267,-19.97829 z"
         style="opacity:1;fill:#ffffff;fill-opacity:1;fill-rule:nonzero;stroke:#000000;stroke-width:10;stroke-linecap:round;stroke-linejoin:round;stroke-miterlimit:4;stroke-dasharray:none;stroke-opacity:1" />
    </g>
    <ellipse
       style="opacity:1;fill:#f1c6a6;fill-opacity:1;fill-rule:nonzero;stroke:#000000;stroke-width:9.37500002;stroke-linecap:round;stroke-linejoin:round;stroke-miterlimit:4;stroke-dasharray:none;stroke-opacity:1"
       id="path7768"
       cx="386.08261"
       cy="597.95386"
       rx="140.32422"
       ry="69.470879" />
    <ellipse
       style="opacity:1;fill:#000000;fill-opacity:1;fill-rule:nonzero;stroke:#000000;stroke-width:10;stroke-linecap:round;stroke-linejoin:round;stroke-miterlimit:4;stroke-dasharray:none;stroke-opacity:1"
       id="path7849"
       cx="339.89713"
       cy="861.91431"
       rx="27.740091"
       ry="30.261917" />
    <ellipse
       ry="30.261917"
       rx="27.740091"
       cy="858.4129"
       cx="432.85391"
       id="ellipse7851"
       style="opacity:1;fill:#000000;fill-opacity:1;fill-rule:nonzero;stroke:#000000;stroke-width:10;stroke-linecap:round;stroke-linejoin:round;stroke-miterlimit:4;stroke-dasharray:none;stroke-opacity:1" />
    <path
       style="fill:#ffffff;fill-opacity:1;fill-rule:evenodd;stroke:#000000;stroke-width:10;stroke-linecap:round;stroke-linejoin:round;stroke-miterlimit:4;stroke-dasharray:none;stroke-opacity:1"
       d="m 280.31733,801.84438 c -9.14122,-0.77033 -17.61665,11.09218 -18.68782,20.20305 -1.08266,9.20854 5.02286,20.81365 13.63706,24.24366 71.43843,28.4454 208.58078,7.12728 225.26402,-2.0203 6.80032,-3.72868 13.44888,-13.50142 12.6269,-21.21321 -1.01444,-9.5174 -5.92188,-23.48429 -22.22336,-22.72844 -34.36222,1.59329 -33.21647,16.46471 -210.6168,1.51524 z"
       id="path7847"
       inkscape:connector-curvature="0"
       sodipodi:nodetypes="sssssss" />
    <g
       id="g7906"
       transform="translate(405.71428,12.857143)">
      <ellipse
         transform="matrix(0.55947418,0.82884778,-0.82884778,0.55947418,0,0)"
         style="opacity:1;fill:#000000;fill-opacity:1;fill-rule:nonzero;stroke:#000000;stroke-width:9.23167419;stroke-linecap:round;stroke-linejoin:round;stroke-miterlimit:4;stroke-dasharray:none;stroke-opacity:1"
         id="ellipse7897"
         cx="514.31281"
         cy="570.43665"
         rx="25.608749"
         ry="27.936817" />
      <path
         sodipodi:nodetypes="caacc"
         inkscape:connector-curvature="0"
         id="path7899"
         d="m -186.44564,699.84684 c 33.32081,-36.02213 83.74443,-70.46418 128.247226,-56.33556 12.167093,3.86277 21.941833,20.22915 19.757727,32.80646 -7.854742,45.23218 -62.637163,70.63931 -106.672213,87.11981 z"
         style="fill:#d32218;fill-opacity:1;fill-rule:evenodd;stroke:#000000;stroke-width:9.23167419;stroke-linecap:round;stroke-linejoin:round;stroke-miterlimit:4;stroke-dasharray:none;stroke-opacity:1" />
      <path
         sodipodi:nodetypes="sssss"
         inkscape:connector-curvature="0"
         id="path7901"
         d="m -168.88727,700.56864 28.41289,44.20245 c 15.24036,23.70969 -15.84194,44.22377 -31.4267,19.9783 l -28.41289,-44.20246 c -14.34106,-22.31065 17.1596,-42.17388 31.4267,-19.97829 z"
         style="opacity:1;fill:#ffffff;fill-opacity:1;fill-rule:nonzero;stroke:#000000;stroke-width:10;stroke-linecap:round;stroke-linejoin:round;stroke-miterlimit:4;stroke-dasharray:none;stroke-opacity:1" />
    </g>
    <g
       id="g7883">
      <path
         sodipodi:nodetypes="ccccc"
         inkscape:connector-curvature="0"
         id="path7843"
         d="m 309.28571,651.64792 c -40.94929,45.86348 -45.05083,96.33293 -40.71428,147.85714 74.96976,12.27391 152.88752,11.77314 233.57143,-0.71428 2.49871,-50.70587 -8.68962,-93.81797 -32.85715,-146.42857 z"
         style="fill:#df2020;fill-rule:evenodd;stroke:#000000;stroke-width:10;stroke-linecap:round;stroke-linejoin:round;stroke-miterlimit:4;stroke-dasharray:none;stroke-opacity:1;fill-opacity:1;opacity:1" />
      <path
         sodipodi:nodetypes="ccccc"
         inkscape:connector-curvature="0"
         id="path7845"
         d="m 270.71429,738.43363 c 75.42183,16.60139 152.31375,22.21433 226.78571,-3.92856 l 1.42857,26.42857 c -76.19048,18.80613 -152.38096,19.04803 -228.57143,0.71428 z"
         style="fill:#000000;fill-opacity:1;fill-rule:evenodd;stroke:#000000;stroke-width:10;stroke-linecap:round;stroke-linejoin:round;stroke-miterlimit:4;stroke-dasharray:none;stroke-opacity:1" />
    </g>
    <path
       style="fill:#ffffff;fill-opacity:1;fill-rule:evenodd;stroke:#000000;stroke-width:9.37500002;stroke-linecap:butt;stroke-linejoin:round;stroke-miterlimit:4;stroke-dasharray:none;stroke-opacity:1"
       d="m 488.05283,638.36282 c -31.91633,-0.11197 -61.84742,-23.17847 -97.09948,-23.6544 -35.8686,-0.48425 -59.81355,23.71514 -99.13612,25.21728 -18.46174,-1.78888 -50.35817,-39.29282 -53.4256,-5.80743 0.008,8.47729 5.71503,15.83092 13.77252,17.74651 0.17844,0.22733 0.37022,0.45585 0.55369,0.68383 -2.38999,3.17953 -3.68973,7.07836 -3.69772,11.09199 -1.2e-4,10.07116 7.96558,18.23567 17.79218,18.23626 3.28008,-0.005 6.49492,-0.93962 9.28937,-2.69993 -0.5345,1.75624 -0.80663,3.58528 -0.80713,5.42498 4.9e-4,10.07117 7.96671,18.23519 17.79331,18.23512 7.50215,-0.0103 14.19202,-4.84205 15.69829,-6.75196 1.50627,-1.9099 0.75405,1.10175 0.75362,4.16276 -1.2e-4,10.07162 7.96627,18.23633 17.79331,18.23626 6.48931,-5.8e-4 12.46359,-3.62227 15.58999,-9.45034 1.00556,11.24734 10.20484,19.8583 21.22502,19.86764 11.78122,-2.6e-4 22.21721,-18.055 23.31647,-17.4642 1.09927,0.59079 9.76445,18.64503 21.54567,18.64464 11.78078,-2.6e-4 23.10534,-14.38066 23.1056,-26.45463 -10e-4,-1.43138 1.7391,-3.90294 3.0415,-0.37429 1.19803,2.90239 8.13195,11.97499 15.68648,11.98441 9.8266,-5.8e-4 17.79229,-8.1651 17.79217,-18.23626 -0.007,-2.10237 -0.36913,-4.18763 1.60549,-2.40801 1.97463,1.77962 8.2456,5.8738 15.14324,5.88311 9.82704,6e-5 17.79343,-8.16464 17.79331,-18.23626 -0.002,-4.33355 -1.50942,-8.5248 -0.78911,-9.19601 0.72031,-0.67121 4.77873,0.85519 8.97453,0.86217 15.00463,0.47075 19.42499,-16.12151 16.02198,-26.50249 7.14899,-8.289 10.84109,-10.92679 11.58159,-18.64241 -0.80148,-32.03152 -36.3232,8.95134 -50.91417,9.60166 z"
       id="path7770"
       inkscape:connector-curvature="0"
       sodipodi:nodetypes="cscccccccccccccccccccccccccccc" />
    <circle
       style="opacity:1;fill:#000000;fill-opacity:1;fill-rule:nonzero;stroke:none;stroke-width:5.84510183;stroke-linecap:round;stroke-linejoin:round;stroke-miterlimit:4;stroke-dasharray:none;stroke-opacity:1"
       id="path7804"
       cx="69.188637"
       cy="441.51187"
       r="15.941998" />
    <circle
       r="15.941998"
       cy="443.40591"
       cx="125.16135"
       id="circle7808"
       style="opacity:1;fill:#000000;fill-opacity:1;fill-rule:nonzero;stroke:none;stroke-width:5.84510183;stroke-linecap:round;stroke-linejoin:round;stroke-miterlimit:4;stroke-dasharray:none;stroke-opacity:1" />
    <ellipse
       style="opacity:1;fill:#ea6fc4;fill-opacity:1;fill-rule:nonzero;stroke:none;stroke-width:5.84510183;stroke-linecap:round;stroke-linejoin:round;stroke-miterlimit:4;stroke-dasharray:none;stroke-opacity:1"
       id="path7812"
       cx="349.87778"
       cy="608.3028"
       rx="12.034015"
       ry="5.1574349" />
    <ellipse
       ry="5.1574349"
       rx="12.034015"
       cy="607.27454"
       cx="437.90515"
       id="ellipse7814"
       style="opacity:1;fill:#ea6fc4;fill-opacity:1;fill-rule:nonzero;stroke:none;stroke-width:5.84510183;stroke-linecap:round;stroke-linejoin:round;stroke-miterlimit:4;stroke-dasharray:none;stroke-opacity:1" />
    <path
       id="path7831"
       style="fill:none;fill-rule:evenodd;stroke:#000000;stroke-width:5.84510183;stroke-linecap:round;stroke-linejoin:round;stroke-miterlimit:4;stroke-dasharray:none;stroke-opacity:1"
       d="m 116.16401,483.09322 c 0,0 1.20204,10.31922 -10.15984,10.31922 -10.256172,0 -9.162552,-10.67559 -9.162552,-10.67559 0,0 1.09356,10.67559 -9.1626,10.67559 -11.36189,0 -10.15984,-10.31922 -10.15984,-10.31922"
       inkscape:connector-curvature="0"
       sodipodi:nodetypes="cscsc" />
    <g
       transform="translate(-191.96429,6.6071453)"
       id="g7911">
      <ellipse
         ry="27.936817"
         rx="25.608749"
         cy="570.43665"
         cx="514.31281"
         id="ellipse7913"
         style="opacity:1;fill:#000000;fill-opacity:1;fill-rule:nonzero;stroke:#000000;stroke-width:9.23167419;stroke-linecap:round;stroke-linejoin:round;stroke-miterlimit:4;stroke-dasharray:none;stroke-opacity:1"
         transform="rotate(55.980558)" />
      <path
         style="fill:#d32218;fill-opacity:1;fill-rule:evenodd;stroke:#000000;stroke-width:9.23167419;stroke-linecap:round;stroke-linejoin:round;stroke-miterlimit:4;stroke-dasharray:none;stroke-opacity:1"
         d="m -186.44564,699.84684 c 33.32081,-36.02213 83.74443,-70.46418 128.247226,-56.33556 12.167093,3.86277 21.941833,20.22915 19.757727,32.80646 -7.854742,45.23218 -62.637163,70.63931 -106.672213,87.11981 z"
         id="path7915"
         inkscape:connector-curvature="0"
         sodipodi:nodetypes="caacc" />
      <path
         style="opacity:1;fill:#ffffff;fill-opacity:1;fill-rule:nonzero;stroke:#000000;stroke-width:10;stroke-linecap:round;stroke-linejoin:round;stroke-miterlimit:4;stroke-dasharray:none;stroke-opacity:1"
         d="m -168.88727,700.56864 28.41289,44.20245 c 15.24036,23.70969 -15.84194,44.22377 -31.4267,19.9783 l -28.41289,-44.20246 c -14.34106,-22.31065 17.1596,-42.17388 31.4267,-19.97829 z"
         id="path7917"
         inkscape:connector-curvature="0"
         sodipodi:nodetypes="sssss" />
    </g>
    <path
       style="opacity:1;fill:#e90505;fill-opacity:1;fill-rule:evenodd;stroke:#000000;stroke-width:9.37500002;stroke-linecap:round;stroke-linejoin:round;stroke-miterlimit:4;stroke-dasharray:none;stroke-opacity:1"
       d="m 259.46107,520.51652 c 10.86017,-49.88182 88.4357,-153.2924 204.52791,-100.83415 6.34541,39.46891 31.67572,74.4331 63.51176,115.4469 z"
       id="path7929"
       inkscape:connector-curvature="0"
       sodipodi:nodetypes="cccc" />
    <path
       style="fill:#ffffff;fill-opacity:1;fill-rule:evenodd;stroke:#000000;stroke-width:9.37500002;stroke-linecap:round;stroke-linejoin:round;stroke-miterlimit:4;stroke-dasharray:none;stroke-opacity:1"
       d="m 245.55683,581.71664 c -6.02825,-15.60966 -7.61402,-34.09587 6.79011,-55.20656 43.43625,-25.69091 90.98864,-37.38695 142.29711,-36.31233 56.80341,-0.0901 104.44589,11.46052 126.94556,34.24578 17.36737,23.36882 16.32768,54.65398 -0.18269,52.48661 -50.17354,-6.58642 -70.84689,-24.87964 -131.78165,-24.14528 -105.1771,1.26757 -116.49666,17.63623 -144.06844,28.93178 z"
       id="path7927"
       inkscape:connector-curvature="0"
       sodipodi:nodetypes="ccccssc" />
    <path
       style="opacity:1;fill:#ffffff;fill-opacity:1;fill-rule:nonzero;stroke:#000000;stroke-width:6.80589819;stroke-linecap:round;stroke-linejoin:round;stroke-miterlimit:4;stroke-dasharray:none;stroke-opacity:1"
       d="m 468.95663,374.63026 c -1.63426,0.0774 -2.98514,0.82009 -3.99313,1.92354 -1.42887,-1.2302 -3.35381,-1.93577 -5.2944,-1.81789 -3.02612,-0.0407 -5.13114,2.12812 -5.97182,4.77466 -1.13764,-0.55204 -2.41168,-0.83501 -3.67384,-0.7559 -4.08921,-0.0547 -6.47007,3.89757 -6.35793,7.63279 -0.14137,-0.006 -0.28265,-0.009 -0.42418,-0.007 -5.44471,-0.28367 -8.23953,6.78493 -5.67972,11.05724 -4.31381,1.73116 -5.59982,8.6169 -2.23972,11.91725 -1.76214,3.04467 -1.56867,7.47877 1.43489,9.65731 0.58601,0.49939 1.22965,0.85503 1.90178,1.08762 -0.64143,2.14997 -0.44762,4.5818 0.83824,6.40687 1.27564,1.94629 3.50856,2.90356 5.71314,2.83948 0.3194,1.52343 1.10912,2.91683 2.44948,3.8634 2.0178,1.67646 4.69325,1.71713 6.91339,0.6883 0.40352,1.18468 1.12677,2.24507 2.20943,3.01427 2.8073,2.34966 6.91142,1.53482 9.26966,-0.96099 0.35938,0.36882 0.77137,0.69869 1.24533,0.97265 3.75954,2.71142 8.87137,0.10417 10.41943,-3.84863 3.70677,0.48685 7.5465,-2.64924 8.13776,-6.41776 2.3748,-0.0531 4.76132,-1.32361 6.0262,-3.43689 1.56927,-2.01404 1.62427,-4.71222 0.59198,-6.88776 1.10259,-0.54159 2.07713,-1.35383 2.76567,-2.40287 2.05472,-2.4643 1.79514,-6.10832 -0.0785,-8.49045 0.33413,-0.43414 0.62016,-0.90565 0.84368,-1.41003 2.07883,-3.56856 -0.0984,-8.29818 -3.86416,-9.51515 0.63059,-1.11216 0.98409,-2.36886 0.93146,-3.6614 -7.3e-4,-3.73017 -3.40919,-6.47473 -6.95923,-6.57546 -0.21909,-2.71627 -2.03181,-5.32033 -4.82284,-6.05107 -0.79145,-0.25656 -1.62523,-0.38211 -2.45724,-0.36358 -1.00293,-0.0585 -1.91129,0.13091 -2.7144,0.5003 -0.83733,-1.6654 -2.32269,-2.996 -4.25494,-3.42522 -0.75263,-0.21893 -1.53825,-0.32481 -2.32208,-0.30688 -0.1982,-0.009 -0.39273,-0.01 -0.58343,-7.2e-4 z"
       id="path7931"
       inkscape:connector-curvature="0" />
    <ellipse
       id="path287"
       cx="390.72592"
       cy="654.91931"
       rx="26.094707"
       ry="13.047354"
       style="fill:#190000;fill-opacity:1;stroke:#000000;stroke-width:7.96553898;stroke-miterlimit:4;stroke-dasharray:none;stroke-opacity:1" />
    <g
       id="g1124">
      <ellipse
         ry="18.446384"
         rx="6.1487951"
         cy="583.08868"
         cx="377.8819"
         id="path1094"
         style="fill:#000070;fill-opacity:1;stroke:#000000;stroke-width:4.68750001;stroke-miterlimit:4;stroke-dasharray:none;stroke-opacity:1" />
      <ellipse
         ry="4.8311963"
         rx="3.0194976"
         cy="571.7793"
         cx="378.0466"
         id="path1096"
         style="fill:#ffffff;fill-opacity:1;stroke:none;stroke-width:2.17392731;stroke-miterlimit:4;stroke-dasharray:none;stroke-opacity:1" />
    </g>
    <g
       id="g1130"
       transform="translate(32.8125)">
      <ellipse
         style="fill:#000070;fill-opacity:1;stroke:#000000;stroke-width:4.6875;stroke-miterlimit:4;stroke-dasharray:none;stroke-opacity:1"
         id="ellipse1126"
         cx="377.8819"
         cy="583.08868"
         rx="6.1487951"
         ry="18.446384" />
      <ellipse
         style="fill:#ffffff;fill-opacity:1;stroke:none;stroke-width:2.17392731;stroke-miterlimit:4;stroke-dasharray:none;stroke-opacity:1"
         id="ellipse1128"
         cx="378.0466"
         cy="571.7793"
         rx="3.0194976"
         ry="4.8311963" />
    </g>
    <ellipse
       style="fill:#b60000;fill-opacity:1;stroke:none;stroke-width:7.86290312;stroke-miterlimit:4;stroke-dasharray:none;stroke-opacity:1"
       id="path1132"
       cx="390.90616"
       cy="660.05994"
       rx="14.939996"
       ry="9.2334251" />
    <g
       id="g15908">
      <g
         style="fill:#000000;fill-opacity:1"
         id="g15827"
         transform="matrix(-1,0,0,1,983.11821,4.3828926)">
        <ellipse
           transform="rotate(55.980558)"
           style="opacity:1;fill:#000000;fill-opacity:1;fill-rule:nonzero;stroke:#000000;stroke-width:9.23167419;stroke-linecap:round;stroke-linejoin:round;stroke-miterlimit:4;stroke-dasharray:none;stroke-opacity:1"
           id="ellipse15821"
           cx="514.31281"
           cy="570.43665"
           rx="25.608749"
           ry="27.936817" />
        <path
           sodipodi:nodetypes="caacc"
           inkscape:connector-curvature="0"
           id="path15823"
           d="m -186.44564,699.84684 c 33.32081,-36.02213 83.74443,-70.46418 128.247226,-56.33556 12.167093,3.86277 21.941833,20.22915 19.757727,32.80646 -7.854742,45.23218 -62.637163,70.63931 -106.672213,87.11981 z"
           style="fill:#000000;fill-opacity:1;fill-rule:evenodd;stroke:#000000;stroke-width:9.23167419;stroke-linecap:round;stroke-linejoin:round;stroke-miterlimit:4;stroke-dasharray:none;stroke-opacity:1" />
        <path
           sodipodi:nodetypes="sssss"
           inkscape:connector-curvature="0"
           id="path15825"
           d="m -168.88727,700.56864 28.41289,44.20245 c 15.24036,23.70969 -15.84194,44.22377 -31.4267,19.9783 l -28.41289,-44.20246 c -14.34106,-22.31065 17.1596,-42.17388 31.4267,-19.97829 z"
           style="opacity:1;fill:#000000;fill-opacity:1;fill-rule:nonzero;stroke:#000000;stroke-width:10;stroke-linecap:round;stroke-linejoin:round;stroke-miterlimit:4;stroke-dasharray:none;stroke-opacity:1" />
      </g>
      <ellipse
         style="opacity:1;fill:#000000;fill-opacity:1;fill-rule:nonzero;stroke:#000000;stroke-width:9.375;stroke-linecap:round;stroke-linejoin:round;stroke-miterlimit:4;stroke-dasharray:none;stroke-opacity:1"
         id="ellipse15829"
         cx="1007.5112"
         cy="592.59674"
         rx="140.32422"
         ry="69.470879" />
      <ellipse
         style="opacity:1;fill:#000000;fill-opacity:1;fill-rule:nonzero;stroke:#000000;stroke-width:10;stroke-linecap:round;stroke-linejoin:round;stroke-miterlimit:4;stroke-dasharray:none;stroke-opacity:1"
         id="ellipse15831"
         cx="957.30786"
         cy="850.5304"
         rx="27.740091"
         ry="30.261917" />
      <ellipse
         ry="30.261917"
         rx="27.740091"
         cy="853.05579"
         cx="1054.2825"
         id="ellipse15833"
         style="opacity:1;fill:#000000;fill-opacity:1;fill-rule:nonzero;stroke:#000000;stroke-width:10;stroke-linecap:round;stroke-linejoin:round;stroke-miterlimit:4;stroke-dasharray:none;stroke-opacity:1" />
      <path
         style="fill:#000000;fill-opacity:1;fill-rule:evenodd;stroke:#000000;stroke-width:10;stroke-linecap:round;stroke-linejoin:round;stroke-miterlimit:4;stroke-dasharray:none;stroke-opacity:1"
         d="m 901.7459,796.48724 c -9.14122,-0.77033 -17.61665,11.09218 -18.68782,20.20305 -1.08266,9.20854 5.02286,20.81365 13.63706,24.24366 71.43843,28.4454 208.58076,7.12728 225.26406,-2.0203 6.8003,-3.72868 13.4488,-13.50142 12.6269,-21.21321 -1.0145,-9.5174 -5.9219,-23.48429 -22.2234,-22.72844 -34.3622,1.59329 -33.2165,16.46471 -210.6168,1.51524 z"
         id="path15835"
         inkscape:connector-curvature="0"
         sodipodi:nodetypes="sssssss" />
      <g
         style="fill:#000000;fill-opacity:1"
         id="g15843"
         transform="translate(1027.1428,7.5000002)">
        <ellipse
           transform="rotate(55.980558)"
           style="opacity:1;fill:#000000;fill-opacity:1;fill-rule:nonzero;stroke:#000000;stroke-width:9.23167419;stroke-linecap:round;stroke-linejoin:round;stroke-miterlimit:4;stroke-dasharray:none;stroke-opacity:1"
           id="ellipse15837"
           cx="514.31281"
           cy="570.43665"
           rx="25.608749"
           ry="27.936817" />
        <path
           sodipodi:nodetypes="caacc"
           inkscape:connector-curvature="0"
           id="path15839"
           d="m -186.44564,699.84684 c 33.32081,-36.02213 83.74443,-70.46418 128.247226,-56.33556 12.167093,3.86277 21.941833,20.22915 19.757727,32.80646 -7.854742,45.23218 -62.637163,70.63931 -106.672213,87.11981 z"
           style="fill:#000000;fill-opacity:1;fill-rule:evenodd;stroke:#000000;stroke-width:9.23167419;stroke-linecap:round;stroke-linejoin:round;stroke-miterlimit:4;stroke-dasharray:none;stroke-opacity:1" />
        <path
           sodipodi:nodetypes="sssss"
           inkscape:connector-curvature="0"
           id="path15841"
           d="m -168.88727,700.56864 28.41289,44.20245 c 15.24036,23.70969 -15.84194,44.22377 -31.4267,19.9783 l -28.41289,-44.20246 c -14.34106,-22.31065 17.1596,-42.17388 31.4267,-19.97829 z"
           style="opacity:1;fill:#000000;fill-opacity:1;fill-rule:nonzero;stroke:#000000;stroke-width:10;stroke-linecap:round;stroke-linejoin:round;stroke-miterlimit:4;stroke-dasharray:none;stroke-opacity:1" />
      </g>
      <g
         style="fill:#000000;fill-opacity:1"
         transform="translate(621.42857,-5.3571428)"
         id="g15849">
        <path
           sodipodi:nodetypes="ccccc"
           inkscape:connector-curvature="0"
           id="path15845"
           d="m 309.28571,651.64792 c -40.94929,45.86348 -45.05083,96.33293 -40.71428,147.85714 74.96976,12.27391 152.88752,11.77314 233.57143,-0.71428 2.49871,-50.70587 -8.68962,-93.81797 -32.85715,-146.42857 z"
           style="opacity:1;fill:#000000;fill-opacity:1;fill-rule:evenodd;stroke:#000000;stroke-width:10;stroke-linecap:round;stroke-linejoin:round;stroke-miterlimit:4;stroke-dasharray:none;stroke-opacity:1" />
        <path
           sodipodi:nodetypes="ccccc"
           inkscape:connector-curvature="0"
           id="path15847"
           d="m 270.71429,738.43363 c 75.42183,16.60139 152.31375,22.21433 226.78571,-3.92856 l 1.42857,26.42857 c -76.19048,18.80613 -152.38096,19.04803 -228.57143,0.71428 z"
           style="fill:#000000;fill-opacity:1;fill-rule:evenodd;stroke:#000000;stroke-width:10;stroke-linecap:round;stroke-linejoin:round;stroke-miterlimit:4;stroke-dasharray:none;stroke-opacity:1" />
      </g>
      <path
         style="fill:#000000;fill-opacity:1;fill-rule:evenodd;stroke:#000000;stroke-width:9.375;stroke-linecap:butt;stroke-linejoin:round;stroke-miterlimit:4;stroke-dasharray:none;stroke-opacity:1"
         d="m 1109.4814,633.00568 c -31.9163,-0.11197 -61.8474,-23.17847 -97.0995,-23.6544 -35.86858,-0.48425 -59.81353,23.71514 -99.1361,25.21728 -18.46174,-1.78888 -50.35817,-39.29282 -53.4256,-5.80743 0.008,8.47729 5.71503,15.83092 13.77252,17.74651 0.17844,0.22733 0.37022,0.45585 0.55369,0.68383 -2.38999,3.17953 -3.68973,7.07836 -3.69772,11.09199 -1.2e-4,10.07116 7.96558,18.23567 17.79218,18.23626 3.28008,-0.005 6.49492,-0.93962 9.28937,-2.69993 -0.5345,1.75624 -0.80663,3.58528 -0.80713,5.42498 4.9e-4,10.07117 7.96671,18.23519 17.79331,18.23512 7.50215,-0.0103 14.19202,-4.84205 15.69829,-6.75196 1.50627,-1.9099 0.75405,1.10175 0.75362,4.16276 -1.2e-4,10.07162 7.96627,18.23633 17.79331,18.23626 6.48931,-5.8e-4 12.46359,-3.62227 15.58999,-9.45034 1.00556,11.24734 10.20484,19.8583 21.22502,19.86764 11.78122,-2.6e-4 22.21725,-18.055 23.31645,-17.4642 1.0993,0.59079 9.7645,18.64503 21.5457,18.64464 11.7808,-2.6e-4 23.1053,-14.38066 23.1056,-26.45463 -10e-4,-1.43138 1.7391,-3.90294 3.0415,-0.37429 1.198,2.90239 8.1319,11.97499 15.6865,11.98441 9.8266,-5.8e-4 17.7923,-8.1651 17.7921,-18.23626 -0.01,-2.10237 -0.3691,-4.18763 1.6055,-2.40801 1.9747,1.77962 8.2456,5.8738 15.1433,5.88311 9.827,6e-5 17.7934,-8.16464 17.7933,-18.23626 -0,-4.33355 -1.5094,-8.5248 -0.7891,-9.19601 0.7203,-0.67121 4.7787,0.85519 8.9745,0.86217 15.0046,0.47075 19.425,-16.12151 16.022,-26.50249 7.149,-8.289 10.8411,-10.92679 11.5816,-18.64241 -0.8015,-32.03152 -36.3232,8.95134 -50.9142,9.60166 z"
         id="path15851"
         inkscape:connector-curvature="0"
         sodipodi:nodetypes="cscccccccccccccccccccccccccccc" />
      <ellipse
         style="opacity:1;fill:#000000;fill-opacity:1;fill-rule:nonzero;stroke:none;stroke-width:5.84510183;stroke-linecap:round;stroke-linejoin:round;stroke-miterlimit:4;stroke-dasharray:none;stroke-opacity:1"
         id="ellipse15853"
         cx="971.30634"
         cy="602.94568"
         rx="12.034015"
         ry="5.1574349" />
      <ellipse
         ry="5.1574349"
         rx="12.034015"
         cy="601.91742"
         cx="1059.3337"
         id="ellipse15855"
         style="opacity:1;fill:#000000;fill-opacity:1;fill-rule:nonzero;stroke:none;stroke-width:5.84510183;stroke-linecap:round;stroke-linejoin:round;stroke-miterlimit:4;stroke-dasharray:none;stroke-opacity:1" />
      <path
         style="opacity:1;fill:#000000;fill-opacity:1;fill-rule:evenodd;stroke:#000000;stroke-width:9.375;stroke-linecap:round;stroke-linejoin:round;stroke-miterlimit:4;stroke-dasharray:none;stroke-opacity:1"
         d="m 880.88964,515.15938 c 10.86017,-49.88182 88.4357,-153.2924 204.52786,-100.83415 6.3455,39.46891 31.6758,74.4331 63.5118,115.4469 z"
         id="path15857"
         inkscape:connector-curvature="0"
         sodipodi:nodetypes="cccc" />
      <path
         style="fill:#000000;fill-opacity:1;fill-rule:evenodd;stroke:#000000;stroke-width:9.375;stroke-linecap:round;stroke-linejoin:round;stroke-miterlimit:4;stroke-dasharray:none;stroke-opacity:1"
         d="m 866.9854,576.3595 c -6.02825,-15.60966 -7.61402,-34.09587 6.79011,-55.20656 43.43625,-25.69091 90.98864,-37.38695 142.29709,-36.31233 56.8034,-0.0901 104.4459,11.46052 126.9456,34.24578 17.3673,23.36882 16.3277,54.65398 -0.1827,52.48661 -50.1736,-6.58642 -70.8469,-24.87964 -131.7817,-24.14528 -105.17706,1.26757 -116.49662,17.63623 -144.0684,28.93178 z"
         id="path15859"
         inkscape:connector-curvature="0"
         sodipodi:nodetypes="ccccssc" />
      <path
         style="opacity:1;fill:#000000;fill-opacity:1;fill-rule:nonzero;stroke:#000000;stroke-width:6.80589819;stroke-linecap:round;stroke-linejoin:round;stroke-miterlimit:4;stroke-dasharray:none;stroke-opacity:1"
         d="m 1090.3852,369.27312 c -1.6343,0.0774 -2.9851,0.82009 -3.9931,1.92354 -1.4289,-1.2302 -3.3538,-1.93577 -5.2944,-1.81789 -3.0262,-0.0407 -5.1312,2.12812 -5.9719,4.77466 -1.1376,-0.55204 -2.4116,-0.83501 -3.6738,-0.7559 -4.0892,-0.0547 -6.4701,3.89757 -6.3579,7.63279 -0.1414,-0.006 -0.2827,-0.009 -0.4242,-0.007 -5.4447,-0.28367 -8.2395,6.78493 -5.6797,11.05724 -4.3138,1.73116 -5.5998,8.6169 -2.2397,11.91725 -1.7622,3.04467 -1.5687,7.47877 1.4348,9.65731 0.5861,0.49939 1.2297,0.85503 1.9018,1.08762 -0.6414,2.14997 -0.4476,4.5818 0.8383,6.40687 1.2756,1.94629 3.5085,2.90356 5.7131,2.83948 0.3194,1.52343 1.1091,2.91683 2.4495,3.8634 2.0178,1.67646 4.6932,1.71713 6.9134,0.6883 0.4035,1.18468 1.1267,2.24507 2.2094,3.01427 2.8073,2.34966 6.9114,1.53482 9.2697,-0.96099 0.3593,0.36882 0.7713,0.69869 1.2453,0.97265 3.7595,2.71142 8.8714,0.10417 10.4194,-3.84863 3.7068,0.48685 7.5465,-2.64924 8.1378,-6.41776 2.3748,-0.0531 4.7613,-1.32361 6.0262,-3.43689 1.5693,-2.01404 1.6243,-4.71222 0.592,-6.88776 1.1026,-0.54159 2.0771,-1.35383 2.7656,-2.40287 2.0548,-2.4643 1.7952,-6.10832 -0.079,-8.49045 0.3342,-0.43414 0.6202,-0.90565 0.8437,-1.41003 2.0788,-3.56856 -0.098,-8.29818 -3.8641,-9.51515 0.6305,-1.11216 0.984,-2.36886 0.9314,-3.6614 -7e-4,-3.73017 -3.4092,-6.47473 -6.9592,-6.57546 -0.2191,-2.71627 -2.0318,-5.32033 -4.8229,-6.05107 -0.7914,-0.25656 -1.6252,-0.38211 -2.4572,-0.36358 -1.0029,-0.0585 -1.9113,0.13091 -2.7144,0.5003 -0.8373,-1.6654 -2.3227,-2.996 -4.2549,-3.42522 -0.7527,-0.21893 -1.5383,-0.32481 -2.3221,-0.30688 -0.1982,-0.009 -0.3927,-0.01 -0.5834,-7.2e-4 z"
         id="path15861"
         inkscape:connector-curvature="0" />
      <ellipse
         id="ellipse15863"
         cx="1012.1545"
         cy="649.56219"
         rx="26.094707"
         ry="13.047354"
         style="fill:#000000;fill-opacity:1;stroke:#000000;stroke-width:7.96553898;stroke-miterlimit:4;stroke-dasharray:none;stroke-opacity:1" />
      <g
         style="fill:#000000;fill-opacity:1"
         transform="translate(621.42857,-5.3571428)"
         id="g15869">
        <ellipse
           ry="18.446384"
           rx="6.1487951"
           cy="583.08868"
           cx="377.8819"
           id="ellipse15865"
           style="fill:#000000;fill-opacity:1;stroke:#000000;stroke-width:4.6875;stroke-miterlimit:4;stroke-dasharray:none;stroke-opacity:1" />
        <ellipse
           ry="4.8311963"
           rx="3.0194976"
           cy="571.7793"
           cx="378.0466"
           id="ellipse15867"
           style="fill:#000000;fill-opacity:1;stroke:none;stroke-width:2.17392731;stroke-miterlimit:4;stroke-dasharray:none;stroke-opacity:1" />
      </g>
      <g
         style="fill:#000000;fill-opacity:1"
         id="g15875"
         transform="translate(654.24107,-5.3571428)">
        <ellipse
           style="fill:#000000;fill-opacity:1;stroke:#000000;stroke-width:4.6875;stroke-miterlimit:4;stroke-dasharray:none;stroke-opacity:1"
           id="ellipse15871"
           cx="377.8819"
           cy="583.08868"
           rx="6.1487951"
           ry="18.446384" />
        <ellipse
           style="fill:#000000;fill-opacity:1;stroke:none;stroke-width:2.17392731;stroke-miterlimit:4;stroke-dasharray:none;stroke-opacity:1"
           id="ellipse15873"
           cx="378.0466"
           cy="571.7793"
           rx="3.0194976"
           ry="4.8311963" />
      </g>
      <ellipse
         style="fill:#000000;fill-opacity:1;stroke:none;stroke-width:7.86290312;stroke-miterlimit:4;stroke-dasharray:none;stroke-opacity:1"
         id="ellipse15877"
         cx="1012.3347"
         cy="654.70282"
         rx="14.939996"
         ry="9.2334251" />
    </g>
    <rect
       y="-588.34406"
       x="-1531.5892"
       height="1713.1508"
       width="957.01031"
       id="rect1458"
       style="display:inline;opacity:1;fill:url(#radialGradient1460);fill-opacity:1;stroke:#000000;stroke-width:15.24892521;stroke-linecap:round;stroke-linejoin:round;stroke-miterlimit:4;stroke-dasharray:none;stroke-opacity:1" />
    <g
       transform="matrix(-0.75554691,0,0,0.75554691,-1065.1657,-803.99444)"
       id="g8793">
      <ellipse
         ry="27.936817"
         rx="25.608749"
         cy="570.43665"
         cx="514.31281"
         id="ellipse8787"
         style="opacity:1;fill:#000000;fill-opacity:1;fill-rule:nonzero;stroke:#000000;stroke-width:9.23167419;stroke-linecap:round;stroke-linejoin:round;stroke-miterlimit:4;stroke-dasharray:none;stroke-opacity:1"
         transform="rotate(55.980558)" />
      <path
         style="fill:#d32218;fill-opacity:1;fill-rule:evenodd;stroke:#000000;stroke-width:9.23167419;stroke-linecap:round;stroke-linejoin:round;stroke-miterlimit:4;stroke-dasharray:none;stroke-opacity:1"
         d="m -186.44564,699.84684 c 33.32081,-36.02213 83.74443,-70.46418 128.247226,-56.33556 12.167093,3.86277 21.941833,20.22915 19.757727,32.80646 -7.854742,45.23218 -62.637163,70.63931 -106.672213,87.11981 z"
         id="path8789"
         inkscape:connector-curvature="0"
         sodipodi:nodetypes="caacc" />
      <path
         style="opacity:1;fill:#ffffff;fill-opacity:1;fill-rule:nonzero;stroke:#000000;stroke-width:10;stroke-linecap:round;stroke-linejoin:round;stroke-miterlimit:4;stroke-dasharray:none;stroke-opacity:1"
         d="m -168.88727,700.56864 28.41289,44.20245 c 15.24036,23.70969 -15.84194,44.22377 -31.4267,19.9783 l -28.41289,-44.20246 c -14.34106,-22.31065 17.1596,-42.17388 31.4267,-19.97829 z"
         id="path8791"
         inkscape:connector-curvature="0"
         sodipodi:nodetypes="sssss" />
    </g>
    <ellipse
       ry="52.488506"
       rx="106.02153"
       cy="-359.57132"
       cx="-1046.7357"
       id="ellipse8795"
       style="opacity:1;fill:#f1c6a6;fill-opacity:1;fill-rule:nonzero;stroke:#000000;stroke-width:7.08325243;stroke-linecap:round;stroke-linejoin:round;stroke-miterlimit:4;stroke-dasharray:none;stroke-opacity:1" />
    <ellipse
       ry="22.864298"
       rx="20.958941"
       cy="-160.1368"
       cx="-1081.631"
       id="ellipse8797"
       style="opacity:1;fill:#000000;fill-opacity:1;fill-rule:nonzero;stroke:#000000;stroke-width:7.55546904;stroke-linecap:round;stroke-linejoin:round;stroke-miterlimit:4;stroke-dasharray:none;stroke-opacity:1" />
    <ellipse
       style="opacity:1;fill:#000000;fill-opacity:1;fill-rule:nonzero;stroke:#000000;stroke-width:7.55546904;stroke-linecap:round;stroke-linejoin:round;stroke-miterlimit:4;stroke-dasharray:none;stroke-opacity:1"
       id="ellipse8799"
       cx="-1011.3978"
       cy="-162.78227"
       rx="20.958941"
       ry="22.864298" />
    <path
       sodipodi:nodetypes="sssssss"
       inkscape:connector-curvature="0"
       id="path8801"
       d="m -1126.6463,-205.52245 c -6.9066,-0.58202 -13.3102,8.38067 -14.1195,15.26436 -0.818,6.95748 3.795,15.72568 10.3034,18.31722 53.9752,21.49183 157.59256,5.38499 170.19754,-1.52643 5.13796,-2.8172 10.16126,-10.20096 9.54021,-16.02758 -0.76645,-7.19084 -4.47425,-17.74348 -16.79079,-17.1724 -25.9623,1.2038 -25.0966,12.43986 -159.13086,1.14483 z"
       style="fill:#ffffff;fill-opacity:1;fill-rule:evenodd;stroke:#000000;stroke-width:7.55546904;stroke-linecap:round;stroke-linejoin:round;stroke-miterlimit:4;stroke-dasharray:none;stroke-opacity:1" />
    <g
       transform="matrix(0.75554691,0,0,0.75554691,-1031.903,-801.63932)"
       id="g8809">
      <ellipse
         ry="27.936817"
         rx="25.608749"
         cy="570.43665"
         cx="514.31281"
         id="ellipse8803"
         style="opacity:1;fill:#000000;fill-opacity:1;fill-rule:nonzero;stroke:#000000;stroke-width:9.23167419;stroke-linecap:round;stroke-linejoin:round;stroke-miterlimit:4;stroke-dasharray:none;stroke-opacity:1"
         transform="rotate(55.980558)" />
      <path
         style="fill:#d32218;fill-opacity:1;fill-rule:evenodd;stroke:#000000;stroke-width:9.23167419;stroke-linecap:round;stroke-linejoin:round;stroke-miterlimit:4;stroke-dasharray:none;stroke-opacity:1"
         d="m -186.44564,699.84684 c 33.32081,-36.02213 83.74443,-70.46418 128.247226,-56.33556 12.167093,3.86277 21.941833,20.22915 19.757727,32.80646 -7.854742,45.23218 -62.637163,70.63931 -106.672213,87.11981 z"
         id="path8805"
         inkscape:connector-curvature="0"
         sodipodi:nodetypes="caacc" />
      <path
         style="opacity:1;fill:#ffffff;fill-opacity:1;fill-rule:nonzero;stroke:#000000;stroke-width:10;stroke-linecap:round;stroke-linejoin:round;stroke-miterlimit:4;stroke-dasharray:none;stroke-opacity:1"
         d="m -168.88727,700.56864 28.41289,44.20245 c 15.24036,23.70969 -15.84194,44.22377 -31.4267,19.9783 l -28.41289,-44.20246 c -14.34106,-22.31065 17.1596,-42.17388 31.4267,-19.97829 z"
         id="path8807"
         inkscape:connector-curvature="0"
         sodipodi:nodetypes="sssss" />
    </g>
    <g
       id="g8815"
       transform="matrix(0.75554691,0,0,0.75554691,-1338.4391,-811.35349)">
      <path
         style="opacity:1;fill:#df2020;fill-opacity:1;fill-rule:evenodd;stroke:#000000;stroke-width:10;stroke-linecap:round;stroke-linejoin:round;stroke-miterlimit:4;stroke-dasharray:none;stroke-opacity:1"
         d="m 309.28571,651.64792 c -40.94929,45.86348 -45.05083,96.33293 -40.71428,147.85714 74.96976,12.27391 152.88752,11.77314 233.57143,-0.71428 2.49871,-50.70587 -8.68962,-93.81797 -32.85715,-146.42857 z"
         id="path8811"
         inkscape:connector-curvature="0"
         sodipodi:nodetypes="ccccc" />
      <path
         style="fill:#000000;fill-opacity:1;fill-rule:evenodd;stroke:#000000;stroke-width:10;stroke-linecap:round;stroke-linejoin:round;stroke-miterlimit:4;stroke-dasharray:none;stroke-opacity:1"
         d="m 270.71429,738.43363 c 75.42183,16.60139 152.31375,22.21433 226.78571,-3.92856 l 1.42857,26.42857 c -76.19048,18.80613 -152.38096,19.04803 -228.57143,0.71428 z"
         id="path8813"
         inkscape:connector-curvature="0"
         sodipodi:nodetypes="ccccc" />
    </g>
    <path
       sodipodi:nodetypes="cscccccccccccccccccccccccccccc"
       inkscape:connector-curvature="0"
       id="path8817"
       d="m -969.69244,-329.04043 c -24.1142,-0.0846 -46.72856,-17.51243 -73.36316,-17.87201 -27.1004,-0.36588 -45.1919,17.9179 -74.9019,19.05283 -13.9487,-1.35158 -38.048,-29.68756 -40.3656,-4.38778 0.01,6.40499 4.318,11.961 10.4058,13.40832 0.1348,0.17176 0.2797,0.34442 0.4183,0.51667 -1.8057,2.40228 -2.7877,5.34803 -2.7938,8.38051 0,7.60924 6.0184,13.77791 13.4429,13.77835 2.4782,-0.004 4.9072,-0.70992 7.0185,-2.03992 -0.4039,1.32692 -0.6094,2.70885 -0.6098,4.09883 4e-4,7.60924 6.0192,13.77754 13.4436,13.77749 5.6683,-0.008 10.7228,-3.6584 11.8609,-5.10143 1.138,-1.44302 0.5697,0.83243 0.5693,3.14516 0,7.60959 6.0189,13.77841 13.4437,13.77836 4.903,-4.4e-4 9.4168,-2.7368 11.779,-7.14018 0.7598,8.49789 7.7103,15.00388 16.0365,15.01094 8.9013,-2e-4 16.7862,-13.6414 17.6167,-13.19503 0.8305,0.44637 7.3775,14.0872 16.2788,14.0869 8.9009,-1.9e-4 17.4571,-10.86526 17.4573,-19.98771 -7e-4,-1.08148 1.314,-2.94886 2.298,-0.28279 0.9052,2.19289 6.1441,9.04766 11.85186,9.05478 7.4244,-4.4e-4 13.4429,-6.16912 13.4428,-13.77835 -0.01,-1.58844 -0.2789,-3.16395 1.213,-1.81937 1.4919,1.34459 6.23,4.43794 11.4414,4.44497 7.42484,5e-5 13.44382,-6.16877 13.44373,-13.77835 -0.002,-3.2742 -1.14044,-6.44089 -0.59621,-6.94802 0.54423,-0.50713 3.61055,0.64614 6.78068,0.65141 11.3367,0.35567 14.67649,-12.18056 12.10535,-20.02387 5.4014,-6.26273 8.19096,-8.25571 8.75044,-14.08522 -0.60556,-24.20131 -27.44388,6.76316 -38.46809,7.25451 z"
       style="fill:#ffffff;fill-opacity:1;fill-rule:evenodd;stroke:#000000;stroke-width:7.08325243;stroke-linecap:butt;stroke-linejoin:round;stroke-miterlimit:4;stroke-dasharray:none;stroke-opacity:1" />
    <ellipse
       ry="3.8966839"
       rx="9.0922623"
       cy="-351.7522"
       cx="-1074.0902"
       id="ellipse8819"
       style="opacity:1;fill:#ea6fc4;fill-opacity:1;fill-rule:nonzero;stroke:none;stroke-width:4.4162488;stroke-linecap:round;stroke-linejoin:round;stroke-miterlimit:4;stroke-dasharray:none;stroke-opacity:1" />
    <ellipse
       style="opacity:1;fill:#ea6fc4;fill-opacity:1;fill-rule:nonzero;stroke:none;stroke-width:4.4162488;stroke-linecap:round;stroke-linejoin:round;stroke-miterlimit:4;stroke-dasharray:none;stroke-opacity:1"
       id="ellipse8821"
       cx="-1007.5814"
       cy="-352.52908"
       rx="9.0922623"
       ry="3.8966839" />
    <path
       sodipodi:nodetypes="cccc"
       inkscape:connector-curvature="0"
       id="path8823"
       d="m -1142.4042,-418.07884 c 8.2054,-37.68806 66.8173,-115.8196 154.53046,-76.18493 4.7942,29.82061 23.93247,56.2377 47.98609,87.22555 z"
       style="opacity:1;fill:#e90505;fill-opacity:1;fill-rule:evenodd;stroke:#000000;stroke-width:7.08325243;stroke-linecap:round;stroke-linejoin:round;stroke-miterlimit:4;stroke-dasharray:none;stroke-opacity:1" />
    <path
       sodipodi:nodetypes="ccccssc"
       inkscape:connector-curvature="0"
       id="path8825"
       d="m -1152.9095,-371.83928 c -4.5546,-11.79383 -5.7527,-25.76103 5.1303,-41.71115 32.8182,-19.41068 68.7461,-28.24759 107.5121,-27.43567 42.91766,-0.0681 78.91376,8.65897 95.91332,25.8743 13.12186,17.65624 12.33632,41.29364 -0.13804,39.65609 -37.90842,-4.97635 -53.52812,-18.79773 -99.56718,-18.24289 -79.4662,0.95771 -88.0187,13.325 -108.8505,21.85932 z"
       style="fill:#ffffff;fill-opacity:1;fill-rule:evenodd;stroke:#000000;stroke-width:7.08325243;stroke-linecap:round;stroke-linejoin:round;stroke-miterlimit:4;stroke-dasharray:none;stroke-opacity:1" />
    <path
       inkscape:connector-curvature="0"
       id="path8827"
       d="m -984.12044,-528.30276 c -1.2348,0.0585 -2.2554,0.61962 -3.017,1.45333 -1.0796,-0.92947 -2.534,-1.46257 -4.0002,-1.3735 -2.2864,-0.0308 -3.8768,1.60789 -4.512,3.60748 -0.8595,-0.41709 -1.8221,-0.63089 -2.7757,-0.57112 -3.08956,-0.0413 -4.88846,2.9448 -4.80376,5.76693 -0.1068,-0.005 -0.2135,-0.007 -0.3204,-0.005 -4.1138,-0.21432 -6.2254,5.12634 -4.2913,8.35427 -3.2593,1.30797 -4.231,6.51047 -1.6923,9.00404 -1.3313,2.30039 -1.1852,5.65056 1.0842,7.29655 0.4427,0.37731 0.929,0.64601 1.4369,0.82175 -0.4847,1.6244 -0.3382,3.46176 0.6333,4.84069 0.9638,1.47051 2.6509,2.19377 4.3165,2.14536 0.2414,1.15102 0.838,2.2038 1.8507,2.91898 1.52456,1.26664 3.54596,1.29737 5.22336,0.52004 0.3049,0.89508 0.8513,1.69626 1.6693,2.27742 2.1211,1.77528 5.2219,1.15963 7.0037,-0.72607 0.2715,0.27866 0.5828,0.52789 0.9409,0.73488 2.8405,2.04861 6.7028,0.0787 7.8724,-2.90782 2.8006,0.36784 5.7017,-2.00162 6.1484,-4.84892 1.7943,-0.0401 3.59744,-1.00005 4.55312,-2.59673 1.18566,-1.5217 1.22721,-3.5603 0.44727,-5.20402 0.83306,-0.4092 1.56937,-1.02289 2.08959,-1.81549 1.55244,-1.86189 1.35631,-4.61512 -0.0593,-6.41493 0.25245,-0.32801 0.46856,-0.68426 0.63744,-1.06534 1.57066,-2.69622 -0.0743,-6.26967 -2.91955,-7.18915 0.47644,-0.84028 0.74352,-1.78978 0.70376,-2.76635 -5.5e-4,-2.81832 -2.57583,-4.89197 -5.25803,-4.96807 -0.1655,-2.05227 -1.5351,-4.01976 -3.6439,-4.57187 -0.598,-0.19384 -1.2279,-0.2887 -1.8565,-0.2747 -0.7578,-0.0442 -1.4441,0.0989 -2.0509,0.378 -0.6326,-1.25829 -1.7549,-2.26362 -3.2148,-2.58792 -0.5687,-0.16541 -1.1622,-0.24541 -1.7545,-0.23186 -0.1497,-0.007 -0.2967,-0.008 -0.4408,-5.4e-4 z"
       style="opacity:1;fill:#ffffff;fill-opacity:1;fill-rule:nonzero;stroke:#000000;stroke-width:5.1421752;stroke-linecap:round;stroke-linejoin:round;stroke-miterlimit:4;stroke-dasharray:none;stroke-opacity:1" />
    <ellipse
       style="fill:#190000;fill-opacity:1;stroke:#000000;stroke-width:6.0183382;stroke-miterlimit:4;stroke-dasharray:none;stroke-opacity:1"
       ry="9.8578882"
       rx="19.715776"
       cy="-316.53122"
       cx="-1043.2275"
       id="ellipse8829" />
    <g
       id="g8835"
       transform="matrix(0.75554691,0,0,0.75554691,-1338.4391,-811.35349)">
      <ellipse
         style="fill:#000070;fill-opacity:1;stroke:#000000;stroke-width:4.6875;stroke-miterlimit:4;stroke-dasharray:none;stroke-opacity:1"
         id="ellipse8831"
         cx="377.8819"
         cy="583.08868"
         rx="6.1487951"
         ry="18.446384" />
      <ellipse
         style="fill:#ffffff;fill-opacity:1;stroke:none;stroke-width:2.17392731;stroke-miterlimit:4;stroke-dasharray:none;stroke-opacity:1"
         id="ellipse8833"
         cx="378.0466"
         cy="571.7793"
         rx="3.0194976"
         ry="4.8311963" />
    </g>
    <g
       transform="matrix(0.75554691,0,0,0.75554691,-1313.6477,-811.35349)"
       id="g8841">
      <ellipse
         ry="18.446384"
         rx="6.1487951"
         cy="583.08868"
         cx="377.8819"
         id="ellipse8837"
         style="fill:#000070;fill-opacity:1;stroke:#000000;stroke-width:4.6875;stroke-miterlimit:4;stroke-dasharray:none;stroke-opacity:1" />
      <ellipse
         ry="4.8311963"
         rx="3.0194976"
         cy="571.7793"
         cx="378.0466"
         id="ellipse8839"
         style="fill:#ffffff;fill-opacity:1;stroke:none;stroke-width:2.17392731;stroke-miterlimit:4;stroke-dasharray:none;stroke-opacity:1" />
    </g>
    <ellipse
       ry="6.9762859"
       rx="11.287868"
       cy="-312.64725"
       cx="-1043.0913"
       id="ellipse8843"
       style="fill:#b60000;fill-opacity:1;stroke:none;stroke-width:5.94079208;stroke-miterlimit:4;stroke-dasharray:none;stroke-opacity:1" />
    <g
       id="g8909"
       transform="matrix(-0.75554691,0,0,0.75554691,-1819.9391,-826.72287)">
      <ellipse
         transform="rotate(55.980558)"
         style="opacity:1;fill:#000000;fill-opacity:1;fill-rule:nonzero;stroke:#000000;stroke-width:9.23167419;stroke-linecap:round;stroke-linejoin:round;stroke-miterlimit:4;stroke-dasharray:none;stroke-opacity:1"
         id="ellipse8903"
         cx="514.31281"
         cy="570.43665"
         rx="25.608749"
         ry="27.936817" />
      <path
         sodipodi:nodetypes="caacc"
         inkscape:connector-curvature="0"
         id="path8905"
         d="m -186.44564,699.84684 c 33.32081,-36.02213 83.74443,-70.46418 128.247226,-56.33556 12.167093,3.86277 21.941833,20.22915 19.757727,32.80646 -7.854742,45.23218 -62.637163,70.63931 -106.672213,87.11981 z"
         style="fill:#d32218;fill-opacity:1;fill-rule:evenodd;stroke:#000000;stroke-width:9.23167419;stroke-linecap:round;stroke-linejoin:round;stroke-miterlimit:4;stroke-dasharray:none;stroke-opacity:1" />
      <path
         sodipodi:nodetypes="sssss"
         inkscape:connector-curvature="0"
         id="path8907"
         d="m -168.88727,700.56864 28.41289,44.20245 c 15.24036,23.70969 -15.84194,44.22377 -31.4267,19.9783 l -28.41289,-44.20246 c -14.34106,-22.31065 17.1596,-42.17388 31.4267,-19.97829 z"
         style="opacity:1;fill:#ffffff;fill-opacity:1;fill-rule:nonzero;stroke:#000000;stroke-width:10;stroke-linecap:round;stroke-linejoin:round;stroke-miterlimit:4;stroke-dasharray:none;stroke-opacity:1" />
    </g>
    <g
       id="g8925"
       transform="matrix(0.75554691,0,0,0.75554691,-1786.6764,-824.36775)">
      <ellipse
         transform="rotate(55.980558)"
         style="opacity:1;fill:#000000;fill-opacity:1;fill-rule:nonzero;stroke:#000000;stroke-width:9.23167419;stroke-linecap:round;stroke-linejoin:round;stroke-miterlimit:4;stroke-dasharray:none;stroke-opacity:1"
         id="ellipse8919"
         cx="514.31281"
         cy="570.43665"
         rx="25.608749"
         ry="27.936817" />
      <path
         sodipodi:nodetypes="caacc"
         inkscape:connector-curvature="0"
         id="path8921"
         d="m -186.44564,699.84684 c 33.32081,-36.02213 83.74443,-70.46418 128.247226,-56.33556 12.167093,3.86277 21.941833,20.22915 19.757727,32.80646 -7.854742,45.23218 -62.637163,70.63931 -106.672213,87.11981 z"
         style="fill:#d32218;fill-opacity:1;fill-rule:evenodd;stroke:#000000;stroke-width:9.23167419;stroke-linecap:round;stroke-linejoin:round;stroke-miterlimit:4;stroke-dasharray:none;stroke-opacity:1" />
      <path
         sodipodi:nodetypes="sssss"
         inkscape:connector-curvature="0"
         id="path8923"
         d="m -168.88727,700.56864 28.41289,44.20245 c 15.24036,23.70969 -15.84194,44.22377 -31.4267,19.9783 l -28.41289,-44.20246 c -14.34106,-22.31065 17.1596,-42.17388 31.4267,-19.97829 z"
         style="opacity:1;fill:#ffffff;fill-opacity:1;fill-rule:nonzero;stroke:#000000;stroke-width:10;stroke-linecap:round;stroke-linejoin:round;stroke-miterlimit:4;stroke-dasharray:none;stroke-opacity:1" />
    </g>
    <g
       id="g8969">
      <ellipse
         ry="52.488506"
         rx="106.02153"
         cy="-382.29974"
         cx="-1801.509"
         id="ellipse8911"
         style="opacity:1;fill:#f1c6a6;fill-opacity:1;fill-rule:nonzero;stroke:#000000;stroke-width:7.08325243;stroke-linecap:round;stroke-linejoin:round;stroke-miterlimit:4;stroke-dasharray:none;stroke-opacity:1" />
      <ellipse
         ry="22.864298"
         rx="20.958941"
         cy="-182.86523"
         cx="-1836.4043"
         id="ellipse8913"
         style="opacity:1;fill:#000000;fill-opacity:1;fill-rule:nonzero;stroke:#000000;stroke-width:7.55546904;stroke-linecap:round;stroke-linejoin:round;stroke-miterlimit:4;stroke-dasharray:none;stroke-opacity:1" />
      <ellipse
         style="opacity:1;fill:#000000;fill-opacity:1;fill-rule:nonzero;stroke:#000000;stroke-width:7.55546904;stroke-linecap:round;stroke-linejoin:round;stroke-miterlimit:4;stroke-dasharray:none;stroke-opacity:1"
         id="ellipse8915"
         cx="-1766.1711"
         cy="-185.51071"
         rx="20.958941"
         ry="22.864298" />
      <path
         sodipodi:nodetypes="sssssss"
         inkscape:connector-curvature="0"
         id="path8917"
         d="m -1881.4197,-228.25088 c -6.9066,-0.58202 -13.3102,8.38067 -14.1195,15.26436 -0.818,6.95748 3.795,15.72568 10.3034,18.31722 53.9752,21.49183 157.5926,5.38499 170.1976,-1.52643 5.1379,-2.8172 10.1612,-10.20096 9.5402,-16.02758 -0.7665,-7.19084 -4.4743,-17.74348 -16.7908,-17.1724 -25.9623,1.2038 -25.0966,12.43986 -159.1309,1.14483 z"
         style="fill:#ffffff;fill-opacity:1;fill-rule:evenodd;stroke:#000000;stroke-width:7.55546904;stroke-linecap:round;stroke-linejoin:round;stroke-miterlimit:4;stroke-dasharray:none;stroke-opacity:1" />
      <g
         id="g8931"
         transform="matrix(0.75554691,0,0,0.75554691,-2093.2125,-834.08192)">
        <path
           style="opacity:1;fill:#df2020;fill-opacity:1;fill-rule:evenodd;stroke:#000000;stroke-width:10;stroke-linecap:round;stroke-linejoin:round;stroke-miterlimit:4;stroke-dasharray:none;stroke-opacity:1"
           d="m 309.28571,651.64792 c -40.94929,45.86348 -45.05083,96.33293 -40.71428,147.85714 74.96976,12.27391 152.88752,11.77314 233.57143,-0.71428 2.49871,-50.70587 -8.68962,-93.81797 -32.85715,-146.42857 z"
           id="path8927"
           inkscape:connector-curvature="0"
           sodipodi:nodetypes="ccccc" />
        <path
           style="fill:#000000;fill-opacity:1;fill-rule:evenodd;stroke:#000000;stroke-width:10;stroke-linecap:round;stroke-linejoin:round;stroke-miterlimit:4;stroke-dasharray:none;stroke-opacity:1"
           d="m 270.71429,738.43363 c 75.42183,16.60139 152.31375,22.21433 226.78571,-3.92856 l 1.42857,26.42857 c -76.19048,18.80613 -152.38096,19.04803 -228.57143,0.71428 z"
           id="path8929"
           inkscape:connector-curvature="0"
           sodipodi:nodetypes="ccccc" />
      </g>
      <path
         sodipodi:nodetypes="cscccccccccccccccccccccccccccc"
         inkscape:connector-curvature="0"
         id="path8933"
         d="m -1724.4658,-351.76886 c -24.1142,-0.0846 -46.7286,-17.51243 -73.3632,-17.87201 -27.1004,-0.36588 -45.1919,17.9179 -74.9019,19.05283 -13.9487,-1.35158 -38.048,-29.68756 -40.3656,-4.38778 0.01,6.40499 4.318,11.961 10.4058,13.40832 0.1348,0.17176 0.2797,0.34442 0.4183,0.51667 -1.8057,2.40228 -2.7877,5.34803 -2.7938,8.38051 0,7.60924 6.0184,13.77791 13.4429,13.77835 2.4782,-0.004 4.9072,-0.70992 7.0185,-2.03992 -0.4039,1.32692 -0.6094,2.70885 -0.6098,4.09883 4e-4,7.60924 6.0192,13.77754 13.4436,13.77749 5.6683,-0.008 10.7228,-3.6584 11.8609,-5.10143 1.138,-1.44302 0.5697,0.83243 0.5693,3.14516 0,7.60959 6.0189,13.77841 13.4437,13.77836 4.903,-4.4e-4 9.4168,-2.7368 11.779,-7.14018 0.7598,8.49789 7.7103,15.00388 16.0365,15.01094 8.9013,-2e-4 16.7862,-13.6414 17.6167,-13.19503 0.8305,0.44637 7.3775,14.0872 16.2788,14.0869 8.9009,-1.9e-4 17.4571,-10.86526 17.4573,-19.98771 -7e-4,-1.08148 1.314,-2.94886 2.298,-0.28279 0.9052,2.19289 6.1441,9.04766 11.8519,9.05478 7.4244,-4.4e-4 13.4429,-6.16912 13.4428,-13.77835 -0.01,-1.58844 -0.2789,-3.16395 1.213,-1.81937 1.4919,1.34459 6.23,4.43794 11.4414,4.44497 7.4248,5e-5 13.4438,-6.16877 13.4437,-13.77835 0,-3.2742 -1.1404,-6.44089 -0.5962,-6.94802 0.5442,-0.50713 3.6106,0.64614 6.7807,0.65141 11.3367,0.35567 14.6765,-12.18056 12.1053,-20.02387 5.4014,-6.26273 8.191,-8.25571 8.7505,-14.08522 -0.6056,-24.20131 -27.4439,6.76316 -38.4681,7.25451 z"
         style="fill:#ffffff;fill-opacity:1;fill-rule:evenodd;stroke:#000000;stroke-width:7.08325243;stroke-linecap:butt;stroke-linejoin:round;stroke-miterlimit:4;stroke-dasharray:none;stroke-opacity:1" />
    </g>
    <ellipse
       style="opacity:1;fill:#ea6fc4;fill-opacity:1;fill-rule:nonzero;stroke:none;stroke-width:4.4162488;stroke-linecap:round;stroke-linejoin:round;stroke-miterlimit:4;stroke-dasharray:none;stroke-opacity:1"
       id="ellipse8935"
       cx="-1828.8635"
       cy="-374.48062"
       rx="9.0922623"
       ry="3.8966839" />
    <ellipse
       ry="3.8966839"
       rx="9.0922623"
       cy="-375.25751"
       cx="-1762.3547"
       id="ellipse8937"
       style="opacity:1;fill:#ea6fc4;fill-opacity:1;fill-rule:nonzero;stroke:none;stroke-width:4.4162488;stroke-linecap:round;stroke-linejoin:round;stroke-miterlimit:4;stroke-dasharray:none;stroke-opacity:1" />
    <path
       style="opacity:1;fill:#e90505;fill-opacity:1;fill-rule:evenodd;stroke:#000000;stroke-width:7.08325243;stroke-linecap:round;stroke-linejoin:round;stroke-miterlimit:4;stroke-dasharray:none;stroke-opacity:1"
       d="m -1897.1776,-440.80727 c 8.2054,-37.68806 66.8173,-115.8196 154.5305,-76.18493 4.7942,29.82061 23.9325,56.2377 47.9861,87.22555 z"
       id="path8939"
       inkscape:connector-curvature="0"
       sodipodi:nodetypes="cccc" />
    <path
       style="fill:#ffffff;fill-opacity:1;fill-rule:evenodd;stroke:#000000;stroke-width:7.08325243;stroke-linecap:round;stroke-linejoin:round;stroke-miterlimit:4;stroke-dasharray:none;stroke-opacity:1"
       d="m -1907.6829,-394.56771 c -4.5546,-11.79383 -5.7527,-25.76103 5.1303,-41.71115 32.8182,-19.41068 68.7461,-28.24759 107.5121,-27.43567 42.9177,-0.0681 78.9138,8.65897 95.9133,25.8743 13.1219,17.65624 12.3364,41.29364 -0.138,39.65609 -37.9084,-4.97635 -53.5281,-18.79773 -99.5672,-18.24289 -79.4662,0.95771 -88.0187,13.325 -108.8505,21.85932 z"
       id="path8941"
       inkscape:connector-curvature="0"
       sodipodi:nodetypes="ccccssc" />
    <path
       style="opacity:1;fill:#ffffff;fill-opacity:1;fill-rule:nonzero;stroke:#000000;stroke-width:5.1421752;stroke-linecap:round;stroke-linejoin:round;stroke-miterlimit:4;stroke-dasharray:none;stroke-opacity:1"
       d="m -1738.8938,-551.03119 c -1.2348,0.0585 -2.2554,0.61962 -3.017,1.45333 -1.0796,-0.92947 -2.534,-1.46257 -4.0002,-1.3735 -2.2864,-0.0308 -3.8768,1.60789 -4.512,3.60748 -0.8595,-0.41709 -1.8221,-0.63089 -2.7757,-0.57112 -3.0896,-0.0413 -4.8885,2.9448 -4.8038,5.76693 -0.1068,-0.005 -0.2135,-0.007 -0.3204,-0.005 -4.1138,-0.21432 -6.2254,5.12634 -4.2913,8.35427 -3.2593,1.30797 -4.231,6.51047 -1.6923,9.00404 -1.3313,2.30039 -1.1852,5.65056 1.0842,7.29655 0.4427,0.37731 0.929,0.64601 1.4369,0.82175 -0.4847,1.6244 -0.3382,3.46176 0.6333,4.84069 0.9638,1.47051 2.6509,2.19377 4.3165,2.14536 0.2414,1.15102 0.838,2.2038 1.8507,2.91898 1.5246,1.26664 3.546,1.29737 5.2234,0.52004 0.3049,0.89508 0.8513,1.69626 1.6693,2.27742 2.1211,1.77528 5.2219,1.15963 7.0037,-0.72607 0.2715,0.27866 0.5828,0.52789 0.9409,0.73488 2.8405,2.04861 6.7028,0.0787 7.8724,-2.90782 2.8006,0.36784 5.7017,-2.00162 6.1484,-4.84892 1.7943,-0.0401 3.5974,-1.00005 4.5531,-2.59673 1.1857,-1.5217 1.2272,-3.5603 0.4473,-5.20402 0.833,-0.4092 1.5693,-1.02289 2.0896,-1.81549 1.5524,-1.86189 1.3563,-4.61512 -0.059,-6.41493 0.2524,-0.32801 0.4685,-0.68426 0.6374,-1.06534 1.5707,-2.69622 -0.074,-6.26967 -2.9195,-7.18915 0.4764,-0.84028 0.7435,-1.78978 0.7037,-2.76635 -5e-4,-2.81832 -2.5758,-4.89197 -5.258,-4.96807 -0.1655,-2.05227 -1.5351,-4.01976 -3.6439,-4.57187 -0.598,-0.19384 -1.2279,-0.2887 -1.8565,-0.2747 -0.7578,-0.0442 -1.4441,0.0989 -2.0509,0.378 -0.6326,-1.25829 -1.7549,-2.26362 -3.2148,-2.58792 -0.5687,-0.16541 -1.1622,-0.24541 -1.7545,-0.23186 -0.1497,-0.007 -0.2967,-0.008 -0.4408,-5.4e-4 z"
       id="path8943"
       inkscape:connector-curvature="0" />
    <g
       transform="matrix(0.75554691,0,0,0.75554691,-2093.2125,-834.08192)"
       id="g8951">
      <ellipse
         ry="18.446384"
         rx="6.1487951"
         cy="583.08868"
         cx="377.8819"
         id="ellipse8947"
         style="fill:#000070;fill-opacity:1;stroke:#000000;stroke-width:4.6875;stroke-miterlimit:4;stroke-dasharray:none;stroke-opacity:1" />
      <ellipse
         ry="4.8311963"
         rx="3.0194976"
         cy="571.7793"
         cx="378.0466"
         id="ellipse8949"
         style="fill:#ffffff;fill-opacity:1;stroke:none;stroke-width:2.17392731;stroke-miterlimit:4;stroke-dasharray:none;stroke-opacity:1" />
    </g>
    <g
       id="g8957"
       transform="matrix(0.75554691,0,0,0.75554691,-2068.4211,-834.08192)">
      <ellipse
         style="fill:#000070;fill-opacity:1;stroke:#000000;stroke-width:4.6875;stroke-miterlimit:4;stroke-dasharray:none;stroke-opacity:1"
         id="ellipse8953"
         cx="377.8819"
         cy="583.08868"
         rx="6.1487951"
         ry="18.446384" />
      <ellipse
         style="fill:#ffffff;fill-opacity:1;stroke:none;stroke-width:2.17392731;stroke-miterlimit:4;stroke-dasharray:none;stroke-opacity:1"
         id="ellipse8955"
         cx="378.0466"
         cy="571.7793"
         rx="3.0194976"
         ry="4.8311963" />
    </g>
    <g
       id="g9009">
      <ellipse
         style="fill:#190000;fill-opacity:1;stroke:#000000;stroke-width:6.0183382;stroke-miterlimit:4;stroke-dasharray:none;stroke-opacity:1"
         ry="9.8578882"
         rx="19.715776"
         cy="-339.25964"
         cx="-1798.0009"
         id="ellipse8945" />
      <ellipse
         ry="6.9762859"
         rx="11.287868"
         cy="-335.37567"
         cx="-1797.8646"
         id="ellipse8959"
         style="fill:#b60000;fill-opacity:1;stroke:none;stroke-width:5.94079208;stroke-miterlimit:4;stroke-dasharray:none;stroke-opacity:1" />
    </g>
    <g
       id="g8987"
       transform="translate(-310.62191,239.59556)">
      <ellipse
         style="opacity:1;fill:#f1c6a6;fill-opacity:1;fill-rule:nonzero;stroke:#000000;stroke-width:7.08325243;stroke-linecap:round;stroke-linejoin:round;stroke-miterlimit:4;stroke-dasharray:none;stroke-opacity:1"
         id="ellipse8971"
         cx="-1801.509"
         cy="-382.29974"
         rx="106.02153"
         ry="52.488506" />
      <ellipse
         style="opacity:1;fill:#000000;fill-opacity:1;fill-rule:nonzero;stroke:#000000;stroke-width:7.55546904;stroke-linecap:round;stroke-linejoin:round;stroke-miterlimit:4;stroke-dasharray:none;stroke-opacity:1"
         id="ellipse8973"
         cx="-1836.4043"
         cy="-182.86523"
         rx="20.958941"
         ry="22.864298" />
      <ellipse
         ry="22.864298"
         rx="20.958941"
         cy="-185.51071"
         cx="-1766.1711"
         id="ellipse8975"
         style="opacity:1;fill:#000000;fill-opacity:1;fill-rule:nonzero;stroke:#000000;stroke-width:7.55546904;stroke-linecap:round;stroke-linejoin:round;stroke-miterlimit:4;stroke-dasharray:none;stroke-opacity:1" />
      <path
         style="fill:#ffffff;fill-opacity:1;fill-rule:evenodd;stroke:#000000;stroke-width:7.55546904;stroke-linecap:round;stroke-linejoin:round;stroke-miterlimit:4;stroke-dasharray:none;stroke-opacity:1"
         d="m -1881.4197,-228.25088 c -6.9066,-0.58202 -13.3102,8.38067 -14.1195,15.26436 -0.818,6.95748 3.795,15.72568 10.3034,18.31722 53.9752,21.49183 157.5926,5.38499 170.1976,-1.52643 5.1379,-2.8172 10.1612,-10.20096 9.5402,-16.02758 -0.7665,-7.19084 -4.4743,-17.74348 -16.7908,-17.1724 -25.9623,1.2038 -25.0966,12.43986 -159.1309,1.14483 z"
         id="path8977"
         inkscape:connector-curvature="0"
         sodipodi:nodetypes="sssssss" />
      <g
         transform="matrix(0.75554691,0,0,0.75554691,-2093.2125,-834.08192)"
         id="g8983">
        <path
           sodipodi:nodetypes="ccccc"
           inkscape:connector-curvature="0"
           id="path8979"
           d="m 309.28571,651.64792 c -40.94929,45.86348 -45.05083,96.33293 -40.71428,147.85714 74.96976,12.27391 152.88752,11.77314 233.57143,-0.71428 2.49871,-50.70587 -8.68962,-93.81797 -32.85715,-146.42857 z"
           style="opacity:1;fill:#df2020;fill-opacity:1;fill-rule:evenodd;stroke:#000000;stroke-width:10;stroke-linecap:round;stroke-linejoin:round;stroke-miterlimit:4;stroke-dasharray:none;stroke-opacity:1" />
        <path
           sodipodi:nodetypes="ccccc"
           inkscape:connector-curvature="0"
           id="path8981"
           d="m 270.71429,738.43363 c 75.42183,16.60139 152.31375,22.21433 226.78571,-3.92856 l 1.42857,26.42857 c -76.19048,18.80613 -152.38096,19.04803 -228.57143,0.71428 z"
           style="fill:#000000;fill-opacity:1;fill-rule:evenodd;stroke:#000000;stroke-width:10;stroke-linecap:round;stroke-linejoin:round;stroke-miterlimit:4;stroke-dasharray:none;stroke-opacity:1" />
      </g>
      <path
         style="fill:#ffffff;fill-opacity:1;fill-rule:evenodd;stroke:#000000;stroke-width:7.08325243;stroke-linecap:butt;stroke-linejoin:round;stroke-miterlimit:4;stroke-dasharray:none;stroke-opacity:1"
         d="m -1724.4658,-351.76886 c -24.1142,-0.0846 -46.7286,-17.51243 -73.3632,-17.87201 -27.1004,-0.36588 -45.1919,17.9179 -74.9019,19.05283 -13.9487,-1.35158 -38.048,-29.68756 -40.3656,-4.38778 0.01,6.40499 4.318,11.961 10.4058,13.40832 0.1348,0.17176 0.2797,0.34442 0.4183,0.51667 -1.8057,2.40228 -2.7877,5.34803 -2.7938,8.38051 0,7.60924 6.0184,13.77791 13.4429,13.77835 2.4782,-0.004 4.9072,-0.70992 7.0185,-2.03992 -0.4039,1.32692 -0.6094,2.70885 -0.6098,4.09883 4e-4,7.60924 6.0192,13.77754 13.4436,13.77749 5.6683,-0.008 10.7228,-3.6584 11.8609,-5.10143 1.138,-1.44302 0.5697,0.83243 0.5693,3.14516 0,7.60959 6.0189,13.77841 13.4437,13.77836 4.903,-4.4e-4 9.4168,-2.7368 11.779,-7.14018 0.7598,8.49789 7.7103,15.00388 16.0365,15.01094 8.9013,-2e-4 16.7862,-13.6414 17.6167,-13.19503 0.8305,0.44637 7.3775,14.0872 16.2788,14.0869 8.9009,-1.9e-4 17.4571,-10.86526 17.4573,-19.98771 -7e-4,-1.08148 1.314,-2.94886 2.298,-0.28279 0.9052,2.19289 6.1441,9.04766 11.8519,9.05478 7.4244,-4.4e-4 13.4429,-6.16912 13.4428,-13.77835 -0.01,-1.58844 -0.2789,-3.16395 1.213,-1.81937 1.4919,1.34459 6.23,4.43794 11.4414,4.44497 7.4248,5e-5 13.4438,-6.16877 13.4437,-13.77835 0,-3.2742 -1.1404,-6.44089 -0.5962,-6.94802 0.5442,-0.50713 3.6106,0.64614 6.7807,0.65141 11.3367,0.35567 14.6765,-12.18056 12.1053,-20.02387 5.4014,-6.26273 8.191,-8.25571 8.7505,-14.08522 -0.6056,-24.20131 -27.4439,6.76316 -38.4681,7.25451 z"
         id="path8985"
         inkscape:connector-curvature="0"
         sodipodi:nodetypes="cscccccccccccccccccccccccccccc" />
    </g>
    <g
       transform="matrix(-0.39764617,0.64243961,-0.64243961,-0.39764617,-1530.1557,338.70142)"
       id="g8995">
      <ellipse
         ry="27.936817"
         rx="25.608749"
         cy="570.43665"
         cx="514.31281"
         id="ellipse8989"
         style="opacity:1;fill:#000000;fill-opacity:1;fill-rule:nonzero;stroke:#000000;stroke-width:9.23167419;stroke-linecap:round;stroke-linejoin:round;stroke-miterlimit:4;stroke-dasharray:none;stroke-opacity:1"
         transform="rotate(55.980558)" />
      <path
         style="fill:#d32218;fill-opacity:1;fill-rule:evenodd;stroke:#000000;stroke-width:9.23167419;stroke-linecap:round;stroke-linejoin:round;stroke-miterlimit:4;stroke-dasharray:none;stroke-opacity:1"
         d="m -186.44564,699.84684 c 33.32081,-36.02213 83.74443,-70.46418 128.247226,-56.33556 12.167093,3.86277 21.941833,20.22915 19.757727,32.80646 -7.854742,45.23218 -62.637163,70.63931 -106.672213,87.11981 z"
         id="path8991"
         inkscape:connector-curvature="0"
         sodipodi:nodetypes="caacc" />
      <path
         style="opacity:1;fill:#ffffff;fill-opacity:1;fill-rule:nonzero;stroke:#000000;stroke-width:10;stroke-linecap:round;stroke-linejoin:round;stroke-miterlimit:4;stroke-dasharray:none;stroke-opacity:1"
         d="m -168.88727,700.56864 28.41289,44.20245 c 15.24036,23.70969 -15.84194,44.22377 -31.4267,19.9783 l -28.41289,-44.20246 c -14.34106,-22.31065 17.1596,-42.17388 31.4267,-19.97829 z"
         id="path8993"
         inkscape:connector-curvature="0"
         sodipodi:nodetypes="sssss" />
    </g>
    <g
       id="g9001"
       transform="matrix(0.75554691,0,0,0.75554691,-2105.5237,-471.37402)">
      <ellipse
         style="fill:#000070;fill-opacity:1;stroke:#000000;stroke-width:4.6875;stroke-miterlimit:4;stroke-dasharray:none;stroke-opacity:1"
         id="ellipse8997"
         cx="377.8819"
         cy="583.08868"
         rx="6.1487951"
         ry="18.446384" />
      <ellipse
         style="fill:#ffffff;fill-opacity:1;stroke:none;stroke-width:2.17392731;stroke-miterlimit:4;stroke-dasharray:none;stroke-opacity:1"
         id="ellipse8999"
         cx="378.0466"
         cy="571.7793"
         rx="3.0194976"
         ry="4.8311963" />
    </g>
    <ellipse
       style="opacity:1;fill:#ea6fc4;fill-opacity:1;fill-rule:nonzero;stroke:none;stroke-width:4.4162488;stroke-linecap:round;stroke-linejoin:round;stroke-miterlimit:4;stroke-dasharray:none;stroke-opacity:1"
       id="ellipse9003"
       cx="-1769.9309"
       cy="-17.2847"
       rx="9.0922623"
       ry="3.8966839" />
    <g
       id="g9021">
      <ellipse
         id="ellipse9011"
         cx="-1798.0009"
         cy="-339.25964"
         rx="19.715776"
         ry="9.8578882"
         style="fill:#190000;fill-opacity:1;stroke:#000000;stroke-width:6.0183382;stroke-miterlimit:4;stroke-dasharray:none;stroke-opacity:1" />
      <ellipse
         style="fill:#b60000;fill-opacity:1;stroke:none;stroke-width:4.47752905;stroke-miterlimit:4;stroke-dasharray:none;stroke-opacity:1"
         id="ellipse9013"
         cx="-1797.8646"
         cy="-332.36227"
         rx="11.287868"
         ry="3.962893" />
    </g>
    <g
       id="g9027"
       transform="translate(36.830357,281.25)">
      <ellipse
         style="fill:#190000;fill-opacity:1;stroke:#000000;stroke-width:6.0183382;stroke-miterlimit:4;stroke-dasharray:none;stroke-opacity:1"
         ry="9.8578882"
         rx="19.715776"
         cy="-339.25964"
         cx="-1798.0009"
         id="ellipse9023" />
      <ellipse
         ry="3.962893"
         rx="11.287868"
         cy="-332.36227"
         cx="-1797.8646"
         id="ellipse9025"
         style="fill:#b60000;fill-opacity:1;stroke:none;stroke-width:4.47752905;stroke-miterlimit:4;stroke-dasharray:none;stroke-opacity:1" />
    </g>
  </g>
</svg>
