<?xml version="1.0" encoding="UTF-8" standalone="no"?>
<!-- Created with Inkscape (http://www.inkscape.org/) -->

<svg
   xmlns:dc="http://purl.org/dc/elements/1.1/"
   xmlns:cc="http://creativecommons.org/ns#"
   xmlns:rdf="http://www.w3.org/1999/02/22-rdf-syntax-ns#"
   xmlns:svg="http://www.w3.org/2000/svg"
   xmlns="http://www.w3.org/2000/svg"
   xmlns:sodipodi="http://sodipodi.sourceforge.net/DTD/sodipodi-0.dtd"
   xmlns:inkscape="http://www.inkscape.org/namespaces/inkscape"
   width="210mm"
   height="297mm"
   viewBox="0 0 744.09448819 1052.3622047"
   id="svg4161"
   version="1.1"
   inkscape:version="0.91 r13725"
   sodipodi:docname="xmas-santa.svg">
  <defs
     id="defs4163" />
  <sodipodi:namedview
     id="base"
     pagecolor="#ffffff"
     bordercolor="#666666"
     borderopacity="1.0"
     inkscape:pageopacity="0.0"
     inkscape:pageshadow="2"
     inkscape:zoom="0.7"
     inkscape:cx="358.10396"
     inkscape:cy="452.10665"
     inkscape:document-units="px"
     inkscape:current-layer="layer1"
     showgrid="false"
     inkscape:window-width="1920"
     inkscape:window-height="1027"
     inkscape:window-x="1912"
     inkscape:window-y="-8"
     inkscape:window-maximized="1" />
  <metadata
     id="metadata4166">
    <rdf:RDF>
      <cc:Work
         rdf:about="">
        <dc:format>image/svg+xml</dc:format>
        <dc:type
           rdf:resource="http://purl.org/dc/dcmitype/StillImage" />
        <dc:title />
      </cc:Work>
    </rdf:RDF>
  </metadata>
  <g
     inkscape:label="Calque 1"
     inkscape:groupmode="layer"
     id="layer1">
    <g
       id="g7919"
       transform="matrix(-1,0,0,1,361.68964,9.7400354)">
      <ellipse
         transform="matrix(0.55947418,0.82884778,-0.82884778,0.55947418,0,0)"
         style="opacity:1;fill:#000000;fill-opacity:1;fill-rule:nonzero;stroke:#000000;stroke-width:9.23167419;stroke-linecap:round;stroke-linejoin:round;stroke-miterlimit:4;stroke-dasharray:none;stroke-opacity:1"
         id="ellipse7921"
         cx="514.31281"
         cy="570.43665"
         rx="25.608749"
         ry="27.936817" />
      <path
         sodipodi:nodetypes="caacc"
         inkscape:connector-curvature="0"
         id="path7923"
         d="m -186.44564,699.84684 c 33.32081,-36.02213 83.74443,-70.46418 128.247226,-56.33556 12.167093,3.86277 21.941833,20.22915 19.757727,32.80646 -7.854742,45.23218 -62.637163,70.63931 -106.672213,87.11981 z"
         style="fill:#d32218;fill-opacity:1;fill-rule:evenodd;stroke:#000000;stroke-width:9.23167419;stroke-linecap:round;stroke-linejoin:round;stroke-miterlimit:4;stroke-dasharray:none;stroke-opacity:1" />
      <path
         sodipodi:nodetypes="sssss"
         inkscape:connector-curvature="0"
         id="path7925"
         d="m -168.88727,700.56864 28.41289,44.20245 c 15.24036,23.70969 -15.84194,44.22377 -31.4267,19.9783 l -28.41289,-44.20246 c -14.34106,-22.31065 17.1596,-42.17388 31.4267,-19.97829 z"
         style="opacity:1;fill:#ffffff;fill-opacity:1;fill-rule:nonzero;stroke:#000000;stroke-width:10;stroke-linecap:round;stroke-linejoin:round;stroke-miterlimit:4;stroke-dasharray:none;stroke-opacity:1" />
    </g>
    <ellipse
       style="opacity:1;fill:#f1c6a6;fill-opacity:1;fill-rule:nonzero;stroke:#000000;stroke-width:9.67950058;stroke-linecap:round;stroke-linejoin:round;stroke-miterlimit:4;stroke-dasharray:none;stroke-opacity:1"
       id="path7768"
       cx="382.34271"
       cy="496.27322"
       rx="240.07147"
       ry="118.85316" />
    <ellipse
       style="opacity:1;fill:#000000;fill-opacity:1;fill-rule:nonzero;stroke:#000000;stroke-width:10;stroke-linecap:round;stroke-linejoin:round;stroke-miterlimit:4;stroke-dasharray:none;stroke-opacity:1"
       id="path7849"
       cx="335.87927"
       cy="855.88751"
       rx="27.740091"
       ry="30.261917" />
    <ellipse
       ry="30.261917"
       rx="27.740091"
       cy="858.4129"
       cx="432.85391"
       id="ellipse7851"
       style="opacity:1;fill:#000000;fill-opacity:1;fill-rule:nonzero;stroke:#000000;stroke-width:10;stroke-linecap:round;stroke-linejoin:round;stroke-miterlimit:4;stroke-dasharray:none;stroke-opacity:1" />
    <path
       style="fill:#ffffff;fill-opacity:1;fill-rule:evenodd;stroke:#000000;stroke-width:10;stroke-linecap:round;stroke-linejoin:round;stroke-miterlimit:4;stroke-dasharray:none;stroke-opacity:1"
       d="m 280.31733,801.84438 c -9.14122,-0.77033 -17.61665,11.09218 -18.68782,20.20305 -1.08266,9.20854 5.02286,20.81365 13.63706,24.24366 71.43843,28.4454 208.58078,7.12728 225.26402,-2.0203 6.80032,-3.72868 13.44888,-13.50142 12.6269,-21.21321 -1.01444,-9.5174 -5.92188,-23.48429 -22.22336,-22.72844 -34.36222,1.59329 -33.21647,16.46471 -210.6168,1.51524 z"
       id="path7847"
       inkscape:connector-curvature="0"
       sodipodi:nodetypes="sssssss" />
    <g
       id="g7906"
       transform="translate(405.71428,12.857143)">
      <ellipse
         transform="matrix(0.55947418,0.82884778,-0.82884778,0.55947418,0,0)"
         style="opacity:1;fill:#000000;fill-opacity:1;fill-rule:nonzero;stroke:#000000;stroke-width:9.23167419;stroke-linecap:round;stroke-linejoin:round;stroke-miterlimit:4;stroke-dasharray:none;stroke-opacity:1"
         id="ellipse7897"
         cx="514.31281"
         cy="570.43665"
         rx="25.608749"
         ry="27.936817" />
      <path
         sodipodi:nodetypes="caacc"
         inkscape:connector-curvature="0"
         id="path7899"
         d="m -186.44564,699.84684 c 33.32081,-36.02213 83.74443,-70.46418 128.247226,-56.33556 12.167093,3.86277 21.941833,20.22915 19.757727,32.80646 -7.854742,45.23218 -62.637163,70.63931 -106.672213,87.11981 z"
         style="fill:#d32218;fill-opacity:1;fill-rule:evenodd;stroke:#000000;stroke-width:9.23167419;stroke-linecap:round;stroke-linejoin:round;stroke-miterlimit:4;stroke-dasharray:none;stroke-opacity:1" />
      <path
         sodipodi:nodetypes="sssss"
         inkscape:connector-curvature="0"
         id="path7901"
         d="m -168.88727,700.56864 28.41289,44.20245 c 15.24036,23.70969 -15.84194,44.22377 -31.4267,19.9783 l -28.41289,-44.20246 c -14.34106,-22.31065 17.1596,-42.17388 31.4267,-19.97829 z"
         style="opacity:1;fill:#ffffff;fill-opacity:1;fill-rule:nonzero;stroke:#000000;stroke-width:10;stroke-linecap:round;stroke-linejoin:round;stroke-miterlimit:4;stroke-dasharray:none;stroke-opacity:1" />
    </g>
    <g
       id="g7883">
      <path
         sodipodi:nodetypes="ccccc"
         inkscape:connector-curvature="0"
         id="path7843"
         d="m 309.28571,651.64792 c -40.94929,45.86348 -45.05083,96.33293 -40.71428,147.85714 74.96976,12.27391 152.88752,11.77314 233.57143,-0.71428 2.49871,-50.70587 -8.68962,-93.81797 -32.85715,-146.42857 z"
         style="fill:#df2020;fill-rule:evenodd;stroke:#000000;stroke-width:10;stroke-linecap:round;stroke-linejoin:round;stroke-miterlimit:4;stroke-dasharray:none;stroke-opacity:1;fill-opacity:1;opacity:1" />
      <path
         sodipodi:nodetypes="ccccc"
         inkscape:connector-curvature="0"
         id="path7845"
         d="m 270.71429,738.43363 c 75.42183,16.60139 152.31375,22.21433 226.78571,-3.92856 l 1.42857,26.42857 c -76.19048,18.80613 -152.38096,19.04803 -228.57143,0.71428 z"
         style="fill:#000000;fill-opacity:1;fill-rule:evenodd;stroke:#000000;stroke-width:10;stroke-linecap:round;stroke-linejoin:round;stroke-miterlimit:4;stroke-dasharray:none;stroke-opacity:1" />
    </g>
    <path
       style="fill:#ffffff;fill-rule:evenodd;stroke:#000000;stroke-width:10;stroke-linecap:butt;stroke-linejoin:round;stroke-miterlimit:4;stroke-dasharray:none;stroke-opacity:1;fill-opacity:1"
       d="m 556.79688,565.40625 c -54.60355,-0.19156 -105.81067,-39.65451 -166.1211,-40.46875 -61.36524,-0.82848 -102.33108,40.57267 -169.60547,43.14258 -31.58497,-3.06048 -86.15447,-67.22349 -91.40234,-9.93555 0.0138,14.50324 9.77746,27.08408 23.5625,30.36133 0.30527,0.38893 0.63339,0.77989 0.94726,1.16992 -4.08887,5.43966 -6.31251,12.1099 -6.32617,18.97656 -2.1e-4,17.23009 13.62778,31.19822 30.43946,31.19922 5.61168,-0.009 11.11173,-1.60754 15.89257,-4.61914 -0.91444,3.00465 -1.38,6.13382 -1.38086,9.28125 8.4e-4,17.23011 13.62971,31.19738 30.44141,31.19727 12.83493,-0.0176 24.28018,-8.28395 26.85716,-11.55148 2.57698,-3.26753 1.29005,1.88491 1.28932,7.12179 -2.1e-4,17.23087 13.62897,31.19933 30.44141,31.19922 11.10213,-10e-4 21.32313,-6.19711 26.67188,-16.16797 1.72035,19.24233 17.45879,33.97426 36.3125,33.99023 20.1557,-4.4e-4 38.00996,-30.8891 39.89061,-29.87835 1.88066,1.01075 16.70535,31.89856 36.86107,31.89789 20.15496,-4.4e-4 39.5294,-24.60292 39.52985,-45.25949 -0.002,-2.44885 2.97531,-6.67728 5.2035,-0.64034 2.04963,4.96551 13.91242,20.48722 26.83696,20.50334 16.81168,-10e-4 30.43966,-13.96914 30.43945,-31.19922 -0.0124,-3.59681 -0.63152,-7.16434 2.74674,-4.11971 3.37826,3.04463 14.10684,10.0491 25.90756,10.06503 16.81244,1.1e-4 30.44162,-13.96835 30.44141,-31.19922 -0.003,-7.41399 -2.58237,-14.58451 -1.35003,-15.73285 1.23233,-1.14833 8.17561,1.46309 15.35393,1.47503 25.67043,0.80538 33.23294,-27.58123 27.41095,-45.34136 12.23073,-14.1811 18.5473,-18.69392 19.81417,-31.89407 -1.37119,-54.80063 -62.14297,15.31425 -87.1057,16.42684 z"
       id="path7770"
       inkscape:connector-curvature="0"
       sodipodi:nodetypes="cscccccccccccccccccccccccccccc" />
    <circle
       style="opacity:1;fill:#000000;fill-opacity:1;fill-rule:nonzero;stroke:none;stroke-width:10;stroke-linecap:round;stroke-linejoin:round;stroke-miterlimit:4;stroke-dasharray:none;stroke-opacity:1"
       id="path7804"
       cx="256.57874"
       cy="500.81894"
       r="27.274117" />
    <circle
       r="27.274117"
       cy="500.81894"
       cx="519.21838"
       id="circle7808"
       style="opacity:1;fill:#000000;fill-opacity:1;fill-rule:nonzero;stroke:none;stroke-width:10;stroke-linecap:round;stroke-linejoin:round;stroke-miterlimit:4;stroke-dasharray:none;stroke-opacity:1" />
    <ellipse
       style="opacity:1;fill:#ea6fc4;fill-opacity:1;fill-rule:nonzero;stroke:none;stroke-width:10;stroke-linecap:round;stroke-linejoin:round;stroke-miterlimit:4;stroke-dasharray:none;stroke-opacity:1"
       id="path7812"
       cx="226.12361"
       cy="538.56921"
       rx="20.588203"
       ry="8.8235159" />
    <ellipse
       ry="8.8235159"
       rx="20.588203"
       cy="538.56921"
       cx="550.05219"
       id="ellipse7814"
       style="opacity:1;fill:#ea6fc4;fill-opacity:1;fill-rule:nonzero;stroke:none;stroke-width:10;stroke-linecap:round;stroke-linejoin:round;stroke-miterlimit:4;stroke-dasharray:none;stroke-opacity:1" />
    <path
       id="path7831"
       style="fill:none;fill-rule:evenodd;stroke:#000000;stroke-width:10;stroke-linecap:round;stroke-linejoin:round;stroke-miterlimit:4;stroke-dasharray:none;stroke-opacity:1"
       d="m 424.43611,565.47701 c 0,0 2.0565,17.65447 -17.3818,17.65447 -17.5466,0 -15.6756,-18.26415 -15.6756,-18.26415 0,0 1.8709,18.26415 -15.6757,18.26415 -19.4383,0 -17.3818,-17.65447 -17.3818,-17.65447"
       inkscape:connector-curvature="0"
       sodipodi:nodetypes="cscsc" />
    <g
       transform="translate(-200.00001,41.428574)"
       id="g7911">
      <ellipse
         ry="27.936817"
         rx="25.608749"
         cy="570.43665"
         cx="514.31281"
         id="ellipse7913"
         style="opacity:1;fill:#000000;fill-opacity:1;fill-rule:nonzero;stroke:#000000;stroke-width:9.23167419;stroke-linecap:round;stroke-linejoin:round;stroke-miterlimit:4;stroke-dasharray:none;stroke-opacity:1"
         transform="matrix(0.55947418,0.82884778,-0.82884778,0.55947418,0,0)" />
      <path
         style="fill:#d32218;fill-opacity:1;fill-rule:evenodd;stroke:#000000;stroke-width:9.23167419;stroke-linecap:round;stroke-linejoin:round;stroke-miterlimit:4;stroke-dasharray:none;stroke-opacity:1"
         d="m -186.44564,699.84684 c 33.32081,-36.02213 83.74443,-70.46418 128.247226,-56.33556 12.167093,3.86277 21.941833,20.22915 19.757727,32.80646 -7.854742,45.23218 -62.637163,70.63931 -106.672213,87.11981 z"
         id="path7915"
         inkscape:connector-curvature="0"
         sodipodi:nodetypes="caacc" />
      <path
         style="opacity:1;fill:#ffffff;fill-opacity:1;fill-rule:nonzero;stroke:#000000;stroke-width:10;stroke-linecap:round;stroke-linejoin:round;stroke-miterlimit:4;stroke-dasharray:none;stroke-opacity:1"
         d="m -168.88727,700.56864 28.41289,44.20245 c 15.24036,23.70969 -15.84194,44.22377 -31.4267,19.9783 l -28.41289,-44.20246 c -14.34106,-22.31065 17.1596,-42.17388 31.4267,-19.97829 z"
         id="path7917"
         inkscape:connector-curvature="0"
         sodipodi:nodetypes="sssss" />
    </g>
    <path
       style="opacity:1;fill:#e90505;fill-opacity:1;fill-rule:evenodd;stroke:#000000;stroke-width:10;stroke-linecap:round;stroke-linejoin:round;stroke-miterlimit:4;stroke-dasharray:none;stroke-opacity:1"
       d="M 165.71429,363.79078 C 184.29424,278.45126 317.0131,101.5329 515.62762,191.28027 c 10.85596,67.52476 54.19192,127.34269 108.65809,197.5105 z"
       id="path7929"
       inkscape:connector-curvature="0"
       sodipodi:nodetypes="cccc" />
    <path
       style="fill:#ffffff;fill-opacity:1;fill-rule:evenodd;stroke:#000000;stroke-width:10;stroke-linecap:round;stroke-linejoin:round;stroke-miterlimit:4;stroke-dasharray:none;stroke-opacity:1"
       d="m 141.92643,468.49404 c -10.31333,-26.70554 -13.02631,-58.33239 11.61676,-94.44927 74.31222,-43.95289 155.66648,-63.96288 243.44676,-62.12438 97.18122,-0.15414 178.6896,19.60704 217.1828,58.58885 29.71269,39.98018 27.93396,93.50389 -0.31254,89.79589 -85.83861,-11.26828 -121.20729,-42.56494 -225.45656,-41.30857 -179.94057,2.16859 -199.30647,30.17266 -246.47722,49.49748 z"
       id="path7927"
       inkscape:connector-curvature="0"
       sodipodi:nodetypes="ccccssc" />
    <path
       style="opacity:1;fill:#ffffff;fill-opacity:1;fill-rule:nonzero;stroke:#000000;stroke-width:8.67105865;stroke-linecap:round;stroke-linejoin:round;stroke-miterlimit:4;stroke-dasharray:none;stroke-opacity:1"
       d="m 499.69413,104.67868 c -3.85138,0.18235 -7.0349,1.93265 -9.41037,4.5331 -3.36735,-2.89913 -7.90373,-4.56191 -12.47701,-4.28411 -7.13149,-0.0959 -12.09227,5.01523 -14.07346,11.25218 -2.68101,-1.30098 -5.68346,-1.96785 -8.65792,-1.78139 -9.6368,-0.12889 -15.24765,9.18516 -14.98337,17.98775 -0.33317,-0.0144 -0.6661,-0.021 -0.99963,-0.0164 -12.83126,-0.66849 -19.41764,15.98967 -13.38508,26.05797 -10.16611,4.07972 -13.19677,20.30695 -5.27823,28.08469 -4.15272,7.17521 -3.69679,17.62479 3.38151,22.75884 1.38102,1.17688 2.89787,2.015 4.48184,2.56313 -1.51161,5.06671 -1.05488,10.79766 1.97544,15.09872 3.00623,4.58669 8.2684,6.84263 13.46381,6.69164 0.7527,3.59016 2.6138,6.87392 5.77255,9.10464 4.75523,3.95081 11.06032,4.04668 16.2924,1.62208 0.95094,2.79186 2.6554,5.29084 5.20684,7.10356 6.61579,5.53731 16.28775,3.61703 21.84527,-2.26471 0.84693,0.86917 1.81784,1.64656 2.9348,2.29218 8.85989,6.38985 20.90665,0.24549 24.55487,-9.06985 8.73553,1.14735 17.78439,-6.24329 19.17778,-15.12436 5.59658,-0.125 11.22073,-3.11928 14.20163,-8.09951 3.69818,-4.74639 3.82782,-11.10502 1.39507,-16.232 2.5984,-1.27632 4.89507,-3.19049 6.5177,-5.66271 4.84225,-5.80746 4.23051,-14.39511 -0.18491,-20.00896 0.78743,-1.0231 1.46151,-2.13428 1.98825,-3.32293 4.89908,-8.40982 -0.23183,-19.55584 -9.10645,-22.42381 1.48608,-2.62096 2.31917,-5.58255 2.19513,-8.62861 -0.002,-8.79068 -8.03424,-15.25864 -16.40042,-15.49602 -0.51631,-6.40127 -4.78824,-12.53811 -11.3657,-14.2602 -1.86517,-0.60462 -3.8301,-0.9005 -5.79086,-0.85683 -2.36355,-0.13792 -4.50421,0.30851 -6.39686,1.17905 -1.97328,-3.92477 -5.47375,-7.06051 -10.02737,-8.07205 -1.77369,-0.51592 -3.6251,-0.76545 -5.4723,-0.72319 -0.46711,-0.0223 -0.92554,-0.0231 -1.37495,-0.002 z"
       id="path7931"
       inkscape:connector-curvature="0" />
  </g>
</svg>
