<?xml version="1.0" encoding="UTF-8" standalone="no"?>
<!-- Created with Inkscape (http://www.inkscape.org/) -->

<svg
   xmlns:dc="http://purl.org/dc/elements/1.1/"
   xmlns:cc="http://creativecommons.org/ns#"
   xmlns:rdf="http://www.w3.org/1999/02/22-rdf-syntax-ns#"
   xmlns:svg="http://www.w3.org/2000/svg"
   xmlns="http://www.w3.org/2000/svg"
   xmlns:sodipodi="http://sodipodi.sourceforge.net/DTD/sodipodi-0.dtd"
   xmlns:inkscape="http://www.inkscape.org/namespaces/inkscape"
   width="210mm"
   height="297mm"
   viewBox="0 0 744.09448819 1052.3622047"
   id="svg4161"
   version="1.1"
   inkscape:version="0.92.2 (5c3e80d, 2017-08-06)"
   sodipodi:docname="xmas-santa.svg">
  <defs
     id="defs4163" />
  <sodipodi:namedview
     id="base"
     pagecolor="#ffffff"
     bordercolor="#666666"
     borderopacity="1.0"
     inkscape:pageopacity="0.0"
     inkscape:pageshadow="2"
     inkscape:zoom="0.49497475"
     inkscape:cx="746.1817"
     inkscape:cy="627.02023"
     inkscape:document-units="px"
     inkscape:current-layer="layer1"
     showgrid="false"
     inkscape:window-width="1920"
     inkscape:window-height="1027"
     inkscape:window-x="1912"
     inkscape:window-y="-8"
     inkscape:window-maximized="1" />
  <metadata
     id="metadata4166">
    <rdf:RDF>
      <cc:Work
         rdf:about="">
        <dc:format>image/svg+xml</dc:format>
        <dc:type
           rdf:resource="http://purl.org/dc/dcmitype/StillImage" />
        <dc:title />
      </cc:Work>
    </rdf:RDF>
  </metadata>
  <g
     inkscape:label="Calque 1"
     inkscape:groupmode="layer"
     id="layer1">
    <g
       id="g7919"
       transform="matrix(-1,0,0,1,361.68964,9.7400354)">
      <ellipse
         transform="matrix(0.55947418,0.82884778,-0.82884778,0.55947418,0,0)"
         style="opacity:1;fill:#000000;fill-opacity:1;fill-rule:nonzero;stroke:#000000;stroke-width:9.23167419;stroke-linecap:round;stroke-linejoin:round;stroke-miterlimit:4;stroke-dasharray:none;stroke-opacity:1"
         id="ellipse7921"
         cx="514.31281"
         cy="570.43665"
         rx="25.608749"
         ry="27.936817" />
      <path
         sodipodi:nodetypes="caacc"
         inkscape:connector-curvature="0"
         id="path7923"
         d="m -186.44564,699.84684 c 33.32081,-36.02213 83.74443,-70.46418 128.247226,-56.33556 12.167093,3.86277 21.941833,20.22915 19.757727,32.80646 -7.854742,45.23218 -62.637163,70.63931 -106.672213,87.11981 z"
         style="fill:#d32218;fill-opacity:1;fill-rule:evenodd;stroke:#000000;stroke-width:9.23167419;stroke-linecap:round;stroke-linejoin:round;stroke-miterlimit:4;stroke-dasharray:none;stroke-opacity:1" />
      <path
         sodipodi:nodetypes="sssss"
         inkscape:connector-curvature="0"
         id="path7925"
         d="m -168.88727,700.56864 28.41289,44.20245 c 15.24036,23.70969 -15.84194,44.22377 -31.4267,19.9783 l -28.41289,-44.20246 c -14.34106,-22.31065 17.1596,-42.17388 31.4267,-19.97829 z"
         style="opacity:1;fill:#ffffff;fill-opacity:1;fill-rule:nonzero;stroke:#000000;stroke-width:10;stroke-linecap:round;stroke-linejoin:round;stroke-miterlimit:4;stroke-dasharray:none;stroke-opacity:1" />
    </g>
    <ellipse
       style="opacity:1;fill:#f1c6a6;fill-opacity:1;fill-rule:nonzero;stroke:#000000;stroke-width:9.37500002;stroke-linecap:round;stroke-linejoin:round;stroke-miterlimit:4;stroke-dasharray:none;stroke-opacity:1"
       id="path7768"
       cx="386.08261"
       cy="597.95386"
       rx="140.32422"
       ry="69.470879" />
    <ellipse
       style="opacity:1;fill:#000000;fill-opacity:1;fill-rule:nonzero;stroke:#000000;stroke-width:10;stroke-linecap:round;stroke-linejoin:round;stroke-miterlimit:4;stroke-dasharray:none;stroke-opacity:1"
       id="path7849"
       cx="335.87927"
       cy="855.88751"
       rx="27.740091"
       ry="30.261917" />
    <ellipse
       ry="30.261917"
       rx="27.740091"
       cy="858.4129"
       cx="432.85391"
       id="ellipse7851"
       style="opacity:1;fill:#000000;fill-opacity:1;fill-rule:nonzero;stroke:#000000;stroke-width:10;stroke-linecap:round;stroke-linejoin:round;stroke-miterlimit:4;stroke-dasharray:none;stroke-opacity:1" />
    <path
       style="fill:#ffffff;fill-opacity:1;fill-rule:evenodd;stroke:#000000;stroke-width:10;stroke-linecap:round;stroke-linejoin:round;stroke-miterlimit:4;stroke-dasharray:none;stroke-opacity:1"
       d="m 280.31733,801.84438 c -9.14122,-0.77033 -17.61665,11.09218 -18.68782,20.20305 -1.08266,9.20854 5.02286,20.81365 13.63706,24.24366 71.43843,28.4454 208.58078,7.12728 225.26402,-2.0203 6.80032,-3.72868 13.44888,-13.50142 12.6269,-21.21321 -1.01444,-9.5174 -5.92188,-23.48429 -22.22336,-22.72844 -34.36222,1.59329 -33.21647,16.46471 -210.6168,1.51524 z"
       id="path7847"
       inkscape:connector-curvature="0"
       sodipodi:nodetypes="sssssss" />
    <g
       id="g7906"
       transform="translate(405.71428,12.857143)">
      <ellipse
         transform="matrix(0.55947418,0.82884778,-0.82884778,0.55947418,0,0)"
         style="opacity:1;fill:#000000;fill-opacity:1;fill-rule:nonzero;stroke:#000000;stroke-width:9.23167419;stroke-linecap:round;stroke-linejoin:round;stroke-miterlimit:4;stroke-dasharray:none;stroke-opacity:1"
         id="ellipse7897"
         cx="514.31281"
         cy="570.43665"
         rx="25.608749"
         ry="27.936817" />
      <path
         sodipodi:nodetypes="caacc"
         inkscape:connector-curvature="0"
         id="path7899"
         d="m -186.44564,699.84684 c 33.32081,-36.02213 83.74443,-70.46418 128.247226,-56.33556 12.167093,3.86277 21.941833,20.22915 19.757727,32.80646 -7.854742,45.23218 -62.637163,70.63931 -106.672213,87.11981 z"
         style="fill:#d32218;fill-opacity:1;fill-rule:evenodd;stroke:#000000;stroke-width:9.23167419;stroke-linecap:round;stroke-linejoin:round;stroke-miterlimit:4;stroke-dasharray:none;stroke-opacity:1" />
      <path
         sodipodi:nodetypes="sssss"
         inkscape:connector-curvature="0"
         id="path7901"
         d="m -168.88727,700.56864 28.41289,44.20245 c 15.24036,23.70969 -15.84194,44.22377 -31.4267,19.9783 l -28.41289,-44.20246 c -14.34106,-22.31065 17.1596,-42.17388 31.4267,-19.97829 z"
         style="opacity:1;fill:#ffffff;fill-opacity:1;fill-rule:nonzero;stroke:#000000;stroke-width:10;stroke-linecap:round;stroke-linejoin:round;stroke-miterlimit:4;stroke-dasharray:none;stroke-opacity:1" />
    </g>
    <g
       id="g7883">
      <path
         sodipodi:nodetypes="ccccc"
         inkscape:connector-curvature="0"
         id="path7843"
         d="m 309.28571,651.64792 c -40.94929,45.86348 -45.05083,96.33293 -40.71428,147.85714 74.96976,12.27391 152.88752,11.77314 233.57143,-0.71428 2.49871,-50.70587 -8.68962,-93.81797 -32.85715,-146.42857 z"
         style="fill:#df2020;fill-rule:evenodd;stroke:#000000;stroke-width:10;stroke-linecap:round;stroke-linejoin:round;stroke-miterlimit:4;stroke-dasharray:none;stroke-opacity:1;fill-opacity:1;opacity:1" />
      <path
         sodipodi:nodetypes="ccccc"
         inkscape:connector-curvature="0"
         id="path7845"
         d="m 270.71429,738.43363 c 75.42183,16.60139 152.31375,22.21433 226.78571,-3.92856 l 1.42857,26.42857 c -76.19048,18.80613 -152.38096,19.04803 -228.57143,0.71428 z"
         style="fill:#000000;fill-opacity:1;fill-rule:evenodd;stroke:#000000;stroke-width:10;stroke-linecap:round;stroke-linejoin:round;stroke-miterlimit:4;stroke-dasharray:none;stroke-opacity:1" />
    </g>
    <path
       style="fill:#ffffff;fill-opacity:1;fill-rule:evenodd;stroke:#000000;stroke-width:9.37500002;stroke-linecap:butt;stroke-linejoin:round;stroke-miterlimit:4;stroke-dasharray:none;stroke-opacity:1"
       d="m 488.05283,638.36282 c -31.91633,-0.11197 -61.84742,-23.17847 -97.09948,-23.6544 -35.8686,-0.48425 -59.81355,23.71514 -99.13612,25.21728 -18.46174,-1.78888 -50.35817,-39.29282 -53.4256,-5.80743 0.008,8.47729 5.71503,15.83092 13.77252,17.74651 0.17844,0.22733 0.37022,0.45585 0.55369,0.68383 -2.38999,3.17953 -3.68973,7.07836 -3.69772,11.09199 -1.2e-4,10.07116 7.96558,18.23567 17.79218,18.23626 3.28008,-0.005 6.49492,-0.93962 9.28937,-2.69993 -0.5345,1.75624 -0.80663,3.58528 -0.80713,5.42498 4.9e-4,10.07117 7.96671,18.23519 17.79331,18.23512 7.50215,-0.0103 14.19202,-4.84205 15.69829,-6.75196 1.50627,-1.9099 0.75405,1.10175 0.75362,4.16276 -1.2e-4,10.07162 7.96627,18.23633 17.79331,18.23626 6.48931,-5.8e-4 12.46359,-3.62227 15.58999,-9.45034 1.00556,11.24734 10.20484,19.8583 21.22502,19.86764 11.78122,-2.6e-4 22.21721,-18.055 23.31647,-17.4642 1.09927,0.59079 9.76445,18.64503 21.54567,18.64464 11.78078,-2.6e-4 23.10534,-14.38066 23.1056,-26.45463 -10e-4,-1.43138 1.7391,-3.90294 3.0415,-0.37429 1.19803,2.90239 8.13195,11.97499 15.68648,11.98441 9.8266,-5.8e-4 17.79229,-8.1651 17.79217,-18.23626 -0.007,-2.10237 -0.36913,-4.18763 1.60549,-2.40801 1.97463,1.77962 8.2456,5.8738 15.14324,5.88311 9.82704,6e-5 17.79343,-8.16464 17.79331,-18.23626 -0.002,-4.33355 -1.50942,-8.5248 -0.78911,-9.19601 0.72031,-0.67121 4.77873,0.85519 8.97453,0.86217 15.00463,0.47075 19.42499,-16.12151 16.02198,-26.50249 7.14899,-8.289 10.84109,-10.92679 11.58159,-18.64241 -0.80148,-32.03152 -36.3232,8.95134 -50.91417,9.60166 z"
       id="path7770"
       inkscape:connector-curvature="0"
       sodipodi:nodetypes="cscccccccccccccccccccccccccccc" />
    <circle
       style="opacity:1;fill:#000000;fill-opacity:1;fill-rule:nonzero;stroke:none;stroke-width:5.84510183;stroke-linecap:round;stroke-linejoin:round;stroke-miterlimit:4;stroke-dasharray:none;stroke-opacity:1"
       id="path7804"
       cx="69.188637"
       cy="441.51187"
       r="15.941998" />
    <circle
       r="15.941998"
       cy="443.40591"
       cx="125.16135"
       id="circle7808"
       style="opacity:1;fill:#000000;fill-opacity:1;fill-rule:nonzero;stroke:none;stroke-width:5.84510183;stroke-linecap:round;stroke-linejoin:round;stroke-miterlimit:4;stroke-dasharray:none;stroke-opacity:1" />
    <ellipse
       style="opacity:1;fill:#ea6fc4;fill-opacity:1;fill-rule:nonzero;stroke:none;stroke-width:5.84510183;stroke-linecap:round;stroke-linejoin:round;stroke-miterlimit:4;stroke-dasharray:none;stroke-opacity:1"
       id="path7812"
       cx="349.87778"
       cy="608.3028"
       rx="12.034015"
       ry="5.1574349" />
    <ellipse
       ry="5.1574349"
       rx="12.034015"
       cy="607.27454"
       cx="437.90515"
       id="ellipse7814"
       style="opacity:1;fill:#ea6fc4;fill-opacity:1;fill-rule:nonzero;stroke:none;stroke-width:5.84510183;stroke-linecap:round;stroke-linejoin:round;stroke-miterlimit:4;stroke-dasharray:none;stroke-opacity:1" />
    <path
       id="path7831"
       style="fill:none;fill-rule:evenodd;stroke:#000000;stroke-width:5.84510183;stroke-linecap:round;stroke-linejoin:round;stroke-miterlimit:4;stroke-dasharray:none;stroke-opacity:1"
       d="m 116.16401,483.09322 c 0,0 1.20204,10.31922 -10.15984,10.31922 -10.256172,0 -9.162552,-10.67559 -9.162552,-10.67559 0,0 1.09356,10.67559 -9.1626,10.67559 -11.36189,0 -10.15984,-10.31922 -10.15984,-10.31922"
       inkscape:connector-curvature="0"
       sodipodi:nodetypes="cscsc" />
    <g
       transform="translate(-191.96429,6.6071453)"
       id="g7911">
      <ellipse
         ry="27.936817"
         rx="25.608749"
         cy="570.43665"
         cx="514.31281"
         id="ellipse7913"
         style="opacity:1;fill:#000000;fill-opacity:1;fill-rule:nonzero;stroke:#000000;stroke-width:9.23167419;stroke-linecap:round;stroke-linejoin:round;stroke-miterlimit:4;stroke-dasharray:none;stroke-opacity:1"
         transform="rotate(55.980558)" />
      <path
         style="fill:#d32218;fill-opacity:1;fill-rule:evenodd;stroke:#000000;stroke-width:9.23167419;stroke-linecap:round;stroke-linejoin:round;stroke-miterlimit:4;stroke-dasharray:none;stroke-opacity:1"
         d="m -186.44564,699.84684 c 33.32081,-36.02213 83.74443,-70.46418 128.247226,-56.33556 12.167093,3.86277 21.941833,20.22915 19.757727,32.80646 -7.854742,45.23218 -62.637163,70.63931 -106.672213,87.11981 z"
         id="path7915"
         inkscape:connector-curvature="0"
         sodipodi:nodetypes="caacc" />
      <path
         style="opacity:1;fill:#ffffff;fill-opacity:1;fill-rule:nonzero;stroke:#000000;stroke-width:10;stroke-linecap:round;stroke-linejoin:round;stroke-miterlimit:4;stroke-dasharray:none;stroke-opacity:1"
         d="m -168.88727,700.56864 28.41289,44.20245 c 15.24036,23.70969 -15.84194,44.22377 -31.4267,19.9783 l -28.41289,-44.20246 c -14.34106,-22.31065 17.1596,-42.17388 31.4267,-19.97829 z"
         id="path7917"
         inkscape:connector-curvature="0"
         sodipodi:nodetypes="sssss" />
    </g>
    <path
       style="opacity:1;fill:#e90505;fill-opacity:1;fill-rule:evenodd;stroke:#000000;stroke-width:9.37500002;stroke-linecap:round;stroke-linejoin:round;stroke-miterlimit:4;stroke-dasharray:none;stroke-opacity:1"
       d="m 259.46107,520.51652 c 10.86017,-49.88182 88.4357,-153.2924 204.52791,-100.83415 6.34541,39.46891 31.67572,74.4331 63.51176,115.4469 z"
       id="path7929"
       inkscape:connector-curvature="0"
       sodipodi:nodetypes="cccc" />
    <path
       style="fill:#ffffff;fill-opacity:1;fill-rule:evenodd;stroke:#000000;stroke-width:9.37500002;stroke-linecap:round;stroke-linejoin:round;stroke-miterlimit:4;stroke-dasharray:none;stroke-opacity:1"
       d="m 245.55683,581.71664 c -6.02825,-15.60966 -7.61402,-34.09587 6.79011,-55.20656 43.43625,-25.69091 90.98864,-37.38695 142.29711,-36.31233 56.80341,-0.0901 104.44589,11.46052 126.94556,34.24578 17.36737,23.36882 16.32768,54.65398 -0.18269,52.48661 -50.17354,-6.58642 -70.84689,-24.87964 -131.78165,-24.14528 -105.1771,1.26757 -116.49666,17.63623 -144.06844,28.93178 z"
       id="path7927"
       inkscape:connector-curvature="0"
       sodipodi:nodetypes="ccccssc" />
    <path
       style="opacity:1;fill:#ffffff;fill-opacity:1;fill-rule:nonzero;stroke:#000000;stroke-width:6.80589819;stroke-linecap:round;stroke-linejoin:round;stroke-miterlimit:4;stroke-dasharray:none;stroke-opacity:1"
       d="m 468.95663,374.63026 c -1.63426,0.0774 -2.98514,0.82009 -3.99313,1.92354 -1.42887,-1.2302 -3.35381,-1.93577 -5.2944,-1.81789 -3.02612,-0.0407 -5.13114,2.12812 -5.97182,4.77466 -1.13764,-0.55204 -2.41168,-0.83501 -3.67384,-0.7559 -4.08921,-0.0547 -6.47007,3.89757 -6.35793,7.63279 -0.14137,-0.006 -0.28265,-0.009 -0.42418,-0.007 -5.44471,-0.28367 -8.23953,6.78493 -5.67972,11.05724 -4.31381,1.73116 -5.59982,8.6169 -2.23972,11.91725 -1.76214,3.04467 -1.56867,7.47877 1.43489,9.65731 0.58601,0.49939 1.22965,0.85503 1.90178,1.08762 -0.64143,2.14997 -0.44762,4.5818 0.83824,6.40687 1.27564,1.94629 3.50856,2.90356 5.71314,2.83948 0.3194,1.52343 1.10912,2.91683 2.44948,3.8634 2.0178,1.67646 4.69325,1.71713 6.91339,0.6883 0.40352,1.18468 1.12677,2.24507 2.20943,3.01427 2.8073,2.34966 6.91142,1.53482 9.26966,-0.96099 0.35938,0.36882 0.77137,0.69869 1.24533,0.97265 3.75954,2.71142 8.87137,0.10417 10.41943,-3.84863 3.70677,0.48685 7.5465,-2.64924 8.13776,-6.41776 2.3748,-0.0531 4.76132,-1.32361 6.0262,-3.43689 1.56927,-2.01404 1.62427,-4.71222 0.59198,-6.88776 1.10259,-0.54159 2.07713,-1.35383 2.76567,-2.40287 2.05472,-2.4643 1.79514,-6.10832 -0.0785,-8.49045 0.33413,-0.43414 0.62016,-0.90565 0.84368,-1.41003 2.07883,-3.56856 -0.0984,-8.29818 -3.86416,-9.51515 0.63059,-1.11216 0.98409,-2.36886 0.93146,-3.6614 -7.3e-4,-3.73017 -3.40919,-6.47473 -6.95923,-6.57546 -0.21909,-2.71627 -2.03181,-5.32033 -4.82284,-6.05107 -0.79145,-0.25656 -1.62523,-0.38211 -2.45724,-0.36358 -1.00293,-0.0585 -1.91129,0.13091 -2.7144,0.5003 -0.83733,-1.6654 -2.32269,-2.996 -4.25494,-3.42522 -0.75263,-0.21893 -1.53825,-0.32481 -2.32208,-0.30688 -0.1982,-0.009 -0.39273,-0.01 -0.58343,-7.2e-4 z"
       id="path7931"
       inkscape:connector-curvature="0" />
    <ellipse
       id="path287"
       cx="390.72592"
       cy="654.91931"
       rx="26.094707"
       ry="13.047354"
       style="fill:#190000;fill-opacity:1;stroke:#000000;stroke-width:7.96553898;stroke-miterlimit:4;stroke-dasharray:none;stroke-opacity:1" />
    <g
       id="g1124">
      <ellipse
         ry="18.446384"
         rx="6.1487951"
         cy="583.08868"
         cx="377.8819"
         id="path1094"
         style="fill:#000070;fill-opacity:1;stroke:#000000;stroke-width:4.68750001;stroke-miterlimit:4;stroke-dasharray:none;stroke-opacity:1" />
      <ellipse
         ry="4.8311963"
         rx="3.0194976"
         cy="571.7793"
         cx="378.0466"
         id="path1096"
         style="fill:#ffffff;fill-opacity:1;stroke:none;stroke-width:2.17392731;stroke-miterlimit:4;stroke-dasharray:none;stroke-opacity:1" />
    </g>
    <g
       id="g1130"
       transform="translate(32.8125)">
      <ellipse
         style="fill:#000070;fill-opacity:1;stroke:#000000;stroke-width:4.6875;stroke-miterlimit:4;stroke-dasharray:none;stroke-opacity:1"
         id="ellipse1126"
         cx="377.8819"
         cy="583.08868"
         rx="6.1487951"
         ry="18.446384" />
      <ellipse
         style="fill:#ffffff;fill-opacity:1;stroke:none;stroke-width:2.17392731;stroke-miterlimit:4;stroke-dasharray:none;stroke-opacity:1"
         id="ellipse1128"
         cx="378.0466"
         cy="571.7793"
         rx="3.0194976"
         ry="4.8311963" />
    </g>
    <ellipse
       style="fill:#b60000;fill-opacity:1;stroke:none;stroke-width:7.86290312;stroke-miterlimit:4;stroke-dasharray:none;stroke-opacity:1"
       id="path1132"
       cx="390.90616"
       cy="660.05994"
       rx="14.939996"
       ry="9.2334251" />
    <g
       id="g15908">
      <g
         style="fill:#000000;fill-opacity:1"
         id="g15827"
         transform="matrix(-1,0,0,1,983.11821,4.3828926)">
        <ellipse
           transform="rotate(55.980558)"
           style="opacity:1;fill:#000000;fill-opacity:1;fill-rule:nonzero;stroke:#000000;stroke-width:9.23167419;stroke-linecap:round;stroke-linejoin:round;stroke-miterlimit:4;stroke-dasharray:none;stroke-opacity:1"
           id="ellipse15821"
           cx="514.31281"
           cy="570.43665"
           rx="25.608749"
           ry="27.936817" />
        <path
           sodipodi:nodetypes="caacc"
           inkscape:connector-curvature="0"
           id="path15823"
           d="m -186.44564,699.84684 c 33.32081,-36.02213 83.74443,-70.46418 128.247226,-56.33556 12.167093,3.86277 21.941833,20.22915 19.757727,32.80646 -7.854742,45.23218 -62.637163,70.63931 -106.672213,87.11981 z"
           style="fill:#000000;fill-opacity:1;fill-rule:evenodd;stroke:#000000;stroke-width:9.23167419;stroke-linecap:round;stroke-linejoin:round;stroke-miterlimit:4;stroke-dasharray:none;stroke-opacity:1" />
        <path
           sodipodi:nodetypes="sssss"
           inkscape:connector-curvature="0"
           id="path15825"
           d="m -168.88727,700.56864 28.41289,44.20245 c 15.24036,23.70969 -15.84194,44.22377 -31.4267,19.9783 l -28.41289,-44.20246 c -14.34106,-22.31065 17.1596,-42.17388 31.4267,-19.97829 z"
           style="opacity:1;fill:#000000;fill-opacity:1;fill-rule:nonzero;stroke:#000000;stroke-width:10;stroke-linecap:round;stroke-linejoin:round;stroke-miterlimit:4;stroke-dasharray:none;stroke-opacity:1" />
      </g>
      <ellipse
         style="opacity:1;fill:#000000;fill-opacity:1;fill-rule:nonzero;stroke:#000000;stroke-width:9.375;stroke-linecap:round;stroke-linejoin:round;stroke-miterlimit:4;stroke-dasharray:none;stroke-opacity:1"
         id="ellipse15829"
         cx="1007.5112"
         cy="592.59674"
         rx="140.32422"
         ry="69.470879" />
      <ellipse
         style="opacity:1;fill:#000000;fill-opacity:1;fill-rule:nonzero;stroke:#000000;stroke-width:10;stroke-linecap:round;stroke-linejoin:round;stroke-miterlimit:4;stroke-dasharray:none;stroke-opacity:1"
         id="ellipse15831"
         cx="957.30786"
         cy="850.5304"
         rx="27.740091"
         ry="30.261917" />
      <ellipse
         ry="30.261917"
         rx="27.740091"
         cy="853.05579"
         cx="1054.2825"
         id="ellipse15833"
         style="opacity:1;fill:#000000;fill-opacity:1;fill-rule:nonzero;stroke:#000000;stroke-width:10;stroke-linecap:round;stroke-linejoin:round;stroke-miterlimit:4;stroke-dasharray:none;stroke-opacity:1" />
      <path
         style="fill:#000000;fill-opacity:1;fill-rule:evenodd;stroke:#000000;stroke-width:10;stroke-linecap:round;stroke-linejoin:round;stroke-miterlimit:4;stroke-dasharray:none;stroke-opacity:1"
         d="m 901.7459,796.48724 c -9.14122,-0.77033 -17.61665,11.09218 -18.68782,20.20305 -1.08266,9.20854 5.02286,20.81365 13.63706,24.24366 71.43843,28.4454 208.58076,7.12728 225.26406,-2.0203 6.8003,-3.72868 13.4488,-13.50142 12.6269,-21.21321 -1.0145,-9.5174 -5.9219,-23.48429 -22.2234,-22.72844 -34.3622,1.59329 -33.2165,16.46471 -210.6168,1.51524 z"
         id="path15835"
         inkscape:connector-curvature="0"
         sodipodi:nodetypes="sssssss" />
      <g
         style="fill:#000000;fill-opacity:1"
         id="g15843"
         transform="translate(1027.1428,7.5000002)">
        <ellipse
           transform="rotate(55.980558)"
           style="opacity:1;fill:#000000;fill-opacity:1;fill-rule:nonzero;stroke:#000000;stroke-width:9.23167419;stroke-linecap:round;stroke-linejoin:round;stroke-miterlimit:4;stroke-dasharray:none;stroke-opacity:1"
           id="ellipse15837"
           cx="514.31281"
           cy="570.43665"
           rx="25.608749"
           ry="27.936817" />
        <path
           sodipodi:nodetypes="caacc"
           inkscape:connector-curvature="0"
           id="path15839"
           d="m -186.44564,699.84684 c 33.32081,-36.02213 83.74443,-70.46418 128.247226,-56.33556 12.167093,3.86277 21.941833,20.22915 19.757727,32.80646 -7.854742,45.23218 -62.637163,70.63931 -106.672213,87.11981 z"
           style="fill:#000000;fill-opacity:1;fill-rule:evenodd;stroke:#000000;stroke-width:9.23167419;stroke-linecap:round;stroke-linejoin:round;stroke-miterlimit:4;stroke-dasharray:none;stroke-opacity:1" />
        <path
           sodipodi:nodetypes="sssss"
           inkscape:connector-curvature="0"
           id="path15841"
           d="m -168.88727,700.56864 28.41289,44.20245 c 15.24036,23.70969 -15.84194,44.22377 -31.4267,19.9783 l -28.41289,-44.20246 c -14.34106,-22.31065 17.1596,-42.17388 31.4267,-19.97829 z"
           style="opacity:1;fill:#000000;fill-opacity:1;fill-rule:nonzero;stroke:#000000;stroke-width:10;stroke-linecap:round;stroke-linejoin:round;stroke-miterlimit:4;stroke-dasharray:none;stroke-opacity:1" />
      </g>
      <g
         style="fill:#000000;fill-opacity:1"
         transform="translate(621.42857,-5.3571428)"
         id="g15849">
        <path
           sodipodi:nodetypes="ccccc"
           inkscape:connector-curvature="0"
           id="path15845"
           d="m 309.28571,651.64792 c -40.94929,45.86348 -45.05083,96.33293 -40.71428,147.85714 74.96976,12.27391 152.88752,11.77314 233.57143,-0.71428 2.49871,-50.70587 -8.68962,-93.81797 -32.85715,-146.42857 z"
           style="opacity:1;fill:#000000;fill-opacity:1;fill-rule:evenodd;stroke:#000000;stroke-width:10;stroke-linecap:round;stroke-linejoin:round;stroke-miterlimit:4;stroke-dasharray:none;stroke-opacity:1" />
        <path
           sodipodi:nodetypes="ccccc"
           inkscape:connector-curvature="0"
           id="path15847"
           d="m 270.71429,738.43363 c 75.42183,16.60139 152.31375,22.21433 226.78571,-3.92856 l 1.42857,26.42857 c -76.19048,18.80613 -152.38096,19.04803 -228.57143,0.71428 z"
           style="fill:#000000;fill-opacity:1;fill-rule:evenodd;stroke:#000000;stroke-width:10;stroke-linecap:round;stroke-linejoin:round;stroke-miterlimit:4;stroke-dasharray:none;stroke-opacity:1" />
      </g>
      <path
         style="fill:#000000;fill-opacity:1;fill-rule:evenodd;stroke:#000000;stroke-width:9.375;stroke-linecap:butt;stroke-linejoin:round;stroke-miterlimit:4;stroke-dasharray:none;stroke-opacity:1"
         d="m 1109.4814,633.00568 c -31.9163,-0.11197 -61.8474,-23.17847 -97.0995,-23.6544 -35.86858,-0.48425 -59.81353,23.71514 -99.1361,25.21728 -18.46174,-1.78888 -50.35817,-39.29282 -53.4256,-5.80743 0.008,8.47729 5.71503,15.83092 13.77252,17.74651 0.17844,0.22733 0.37022,0.45585 0.55369,0.68383 -2.38999,3.17953 -3.68973,7.07836 -3.69772,11.09199 -1.2e-4,10.07116 7.96558,18.23567 17.79218,18.23626 3.28008,-0.005 6.49492,-0.93962 9.28937,-2.69993 -0.5345,1.75624 -0.80663,3.58528 -0.80713,5.42498 4.9e-4,10.07117 7.96671,18.23519 17.79331,18.23512 7.50215,-0.0103 14.19202,-4.84205 15.69829,-6.75196 1.50627,-1.9099 0.75405,1.10175 0.75362,4.16276 -1.2e-4,10.07162 7.96627,18.23633 17.79331,18.23626 6.48931,-5.8e-4 12.46359,-3.62227 15.58999,-9.45034 1.00556,11.24734 10.20484,19.8583 21.22502,19.86764 11.78122,-2.6e-4 22.21725,-18.055 23.31645,-17.4642 1.0993,0.59079 9.7645,18.64503 21.5457,18.64464 11.7808,-2.6e-4 23.1053,-14.38066 23.1056,-26.45463 -10e-4,-1.43138 1.7391,-3.90294 3.0415,-0.37429 1.198,2.90239 8.1319,11.97499 15.6865,11.98441 9.8266,-5.8e-4 17.7923,-8.1651 17.7921,-18.23626 -0.01,-2.10237 -0.3691,-4.18763 1.6055,-2.40801 1.9747,1.77962 8.2456,5.8738 15.1433,5.88311 9.827,6e-5 17.7934,-8.16464 17.7933,-18.23626 -0,-4.33355 -1.5094,-8.5248 -0.7891,-9.19601 0.7203,-0.67121 4.7787,0.85519 8.9745,0.86217 15.0046,0.47075 19.425,-16.12151 16.022,-26.50249 7.149,-8.289 10.8411,-10.92679 11.5816,-18.64241 -0.8015,-32.03152 -36.3232,8.95134 -50.9142,9.60166 z"
         id="path15851"
         inkscape:connector-curvature="0"
         sodipodi:nodetypes="cscccccccccccccccccccccccccccc" />
      <ellipse
         style="opacity:1;fill:#000000;fill-opacity:1;fill-rule:nonzero;stroke:none;stroke-width:5.84510183;stroke-linecap:round;stroke-linejoin:round;stroke-miterlimit:4;stroke-dasharray:none;stroke-opacity:1"
         id="ellipse15853"
         cx="971.30634"
         cy="602.94568"
         rx="12.034015"
         ry="5.1574349" />
      <ellipse
         ry="5.1574349"
         rx="12.034015"
         cy="601.91742"
         cx="1059.3337"
         id="ellipse15855"
         style="opacity:1;fill:#000000;fill-opacity:1;fill-rule:nonzero;stroke:none;stroke-width:5.84510183;stroke-linecap:round;stroke-linejoin:round;stroke-miterlimit:4;stroke-dasharray:none;stroke-opacity:1" />
      <path
         style="opacity:1;fill:#000000;fill-opacity:1;fill-rule:evenodd;stroke:#000000;stroke-width:9.375;stroke-linecap:round;stroke-linejoin:round;stroke-miterlimit:4;stroke-dasharray:none;stroke-opacity:1"
         d="m 880.88964,515.15938 c 10.86017,-49.88182 88.4357,-153.2924 204.52786,-100.83415 6.3455,39.46891 31.6758,74.4331 63.5118,115.4469 z"
         id="path15857"
         inkscape:connector-curvature="0"
         sodipodi:nodetypes="cccc" />
      <path
         style="fill:#000000;fill-opacity:1;fill-rule:evenodd;stroke:#000000;stroke-width:9.375;stroke-linecap:round;stroke-linejoin:round;stroke-miterlimit:4;stroke-dasharray:none;stroke-opacity:1"
         d="m 866.9854,576.3595 c -6.02825,-15.60966 -7.61402,-34.09587 6.79011,-55.20656 43.43625,-25.69091 90.98864,-37.38695 142.29709,-36.31233 56.8034,-0.0901 104.4459,11.46052 126.9456,34.24578 17.3673,23.36882 16.3277,54.65398 -0.1827,52.48661 -50.1736,-6.58642 -70.8469,-24.87964 -131.7817,-24.14528 -105.17706,1.26757 -116.49662,17.63623 -144.0684,28.93178 z"
         id="path15859"
         inkscape:connector-curvature="0"
         sodipodi:nodetypes="ccccssc" />
      <path
         style="opacity:1;fill:#000000;fill-opacity:1;fill-rule:nonzero;stroke:#000000;stroke-width:6.80589819;stroke-linecap:round;stroke-linejoin:round;stroke-miterlimit:4;stroke-dasharray:none;stroke-opacity:1"
         d="m 1090.3852,369.27312 c -1.6343,0.0774 -2.9851,0.82009 -3.9931,1.92354 -1.4289,-1.2302 -3.3538,-1.93577 -5.2944,-1.81789 -3.0262,-0.0407 -5.1312,2.12812 -5.9719,4.77466 -1.1376,-0.55204 -2.4116,-0.83501 -3.6738,-0.7559 -4.0892,-0.0547 -6.4701,3.89757 -6.3579,7.63279 -0.1414,-0.006 -0.2827,-0.009 -0.4242,-0.007 -5.4447,-0.28367 -8.2395,6.78493 -5.6797,11.05724 -4.3138,1.73116 -5.5998,8.6169 -2.2397,11.91725 -1.7622,3.04467 -1.5687,7.47877 1.4348,9.65731 0.5861,0.49939 1.2297,0.85503 1.9018,1.08762 -0.6414,2.14997 -0.4476,4.5818 0.8383,6.40687 1.2756,1.94629 3.5085,2.90356 5.7131,2.83948 0.3194,1.52343 1.1091,2.91683 2.4495,3.8634 2.0178,1.67646 4.6932,1.71713 6.9134,0.6883 0.4035,1.18468 1.1267,2.24507 2.2094,3.01427 2.8073,2.34966 6.9114,1.53482 9.2697,-0.96099 0.3593,0.36882 0.7713,0.69869 1.2453,0.97265 3.7595,2.71142 8.8714,0.10417 10.4194,-3.84863 3.7068,0.48685 7.5465,-2.64924 8.1378,-6.41776 2.3748,-0.0531 4.7613,-1.32361 6.0262,-3.43689 1.5693,-2.01404 1.6243,-4.71222 0.592,-6.88776 1.1026,-0.54159 2.0771,-1.35383 2.7656,-2.40287 2.0548,-2.4643 1.7952,-6.10832 -0.079,-8.49045 0.3342,-0.43414 0.6202,-0.90565 0.8437,-1.41003 2.0788,-3.56856 -0.098,-8.29818 -3.8641,-9.51515 0.6305,-1.11216 0.984,-2.36886 0.9314,-3.6614 -7e-4,-3.73017 -3.4092,-6.47473 -6.9592,-6.57546 -0.2191,-2.71627 -2.0318,-5.32033 -4.8229,-6.05107 -0.7914,-0.25656 -1.6252,-0.38211 -2.4572,-0.36358 -1.0029,-0.0585 -1.9113,0.13091 -2.7144,0.5003 -0.8373,-1.6654 -2.3227,-2.996 -4.2549,-3.42522 -0.7527,-0.21893 -1.5383,-0.32481 -2.3221,-0.30688 -0.1982,-0.009 -0.3927,-0.01 -0.5834,-7.2e-4 z"
         id="path15861"
         inkscape:connector-curvature="0" />
      <ellipse
         id="ellipse15863"
         cx="1012.1545"
         cy="649.56219"
         rx="26.094707"
         ry="13.047354"
         style="fill:#000000;fill-opacity:1;stroke:#000000;stroke-width:7.96553898;stroke-miterlimit:4;stroke-dasharray:none;stroke-opacity:1" />
      <g
         style="fill:#000000;fill-opacity:1"
         transform="translate(621.42857,-5.3571428)"
         id="g15869">
        <ellipse
           ry="18.446384"
           rx="6.1487951"
           cy="583.08868"
           cx="377.8819"
           id="ellipse15865"
           style="fill:#000000;fill-opacity:1;stroke:#000000;stroke-width:4.6875;stroke-miterlimit:4;stroke-dasharray:none;stroke-opacity:1" />
        <ellipse
           ry="4.8311963"
           rx="3.0194976"
           cy="571.7793"
           cx="378.0466"
           id="ellipse15867"
           style="fill:#000000;fill-opacity:1;stroke:none;stroke-width:2.17392731;stroke-miterlimit:4;stroke-dasharray:none;stroke-opacity:1" />
      </g>
      <g
         style="fill:#000000;fill-opacity:1"
         id="g15875"
         transform="translate(654.24107,-5.3571428)">
        <ellipse
           style="fill:#000000;fill-opacity:1;stroke:#000000;stroke-width:4.6875;stroke-miterlimit:4;stroke-dasharray:none;stroke-opacity:1"
           id="ellipse15871"
           cx="377.8819"
           cy="583.08868"
           rx="6.1487951"
           ry="18.446384" />
        <ellipse
           style="fill:#000000;fill-opacity:1;stroke:none;stroke-width:2.17392731;stroke-miterlimit:4;stroke-dasharray:none;stroke-opacity:1"
           id="ellipse15873"
           cx="378.0466"
           cy="571.7793"
           rx="3.0194976"
           ry="4.8311963" />
      </g>
      <ellipse
         style="fill:#000000;fill-opacity:1;stroke:none;stroke-width:7.86290312;stroke-miterlimit:4;stroke-dasharray:none;stroke-opacity:1"
         id="ellipse15877"
         cx="1012.3347"
         cy="654.70282"
         rx="14.939996"
         ry="9.2334251" />
    </g>
  </g>
</svg>
