<?xml version="1.0" encoding="UTF-8" standalone="no"?>
<!-- Created with Inkscape (http://www.inkscape.org/) -->

<svg
   xmlns:dc="http://purl.org/dc/elements/1.1/"
   xmlns:cc="http://creativecommons.org/ns#"
   xmlns:rdf="http://www.w3.org/1999/02/22-rdf-syntax-ns#"
   xmlns:svg="http://www.w3.org/2000/svg"
   xmlns="http://www.w3.org/2000/svg"
   xmlns:sodipodi="http://sodipodi.sourceforge.net/DTD/sodipodi-0.dtd"
   xmlns:inkscape="http://www.inkscape.org/namespaces/inkscape"
   width="210mm"
   height="297mm"
   viewBox="0 0 744.09448819 1052.3622047"
   id="svg4161"
   version="1.1"
   inkscape:version="0.91 r13725"
   sodipodi:docname="xmas-santa.svg">
  <defs
     id="defs4163" />
  <sodipodi:namedview
     id="base"
     pagecolor="#ffffff"
     bordercolor="#666666"
     borderopacity="1.0"
     inkscape:pageopacity="0.0"
     inkscape:pageshadow="2"
     inkscape:zoom="1.4"
     inkscape:cx="377.37657"
     inkscape:cy="926.98471"
     inkscape:document-units="px"
     inkscape:current-layer="layer1"
     showgrid="false"
     inkscape:window-width="1920"
     inkscape:window-height="1027"
     inkscape:window-x="1912"
     inkscape:window-y="-8"
     inkscape:window-maximized="1" />
  <metadata
     id="metadata4166">
    <rdf:RDF>
      <cc:Work
         rdf:about="">
        <dc:format>image/svg+xml</dc:format>
        <dc:type
           rdf:resource="http://purl.org/dc/dcmitype/StillImage" />
        <dc:title></dc:title>
      </cc:Work>
    </rdf:RDF>
  </metadata>
  <g
     inkscape:label="Calque 1"
     inkscape:groupmode="layer"
     id="layer1">
    <path
       style="fill:#f4d7d7;fill-rule:evenodd;stroke:#000000;stroke-width:5;stroke-linecap:butt;stroke-linejoin:miter;stroke-miterlimit:4;stroke-dasharray:none;stroke-opacity:1;fill-opacity:1"
       d="m 275.71429,209.50506 c 0,0 -3.20004,-42.71725 7.14285,-60 11.9396,-19.95083 34.38302,-35.24823 57.14286,-40 27.10533,-5.65901 52.09668,2.36061 70.71428,22.85714 18.66916,20.55329 15.71429,77.85715 15.71429,77.85715 z"
       id="path4711"
       inkscape:connector-curvature="0"
       sodipodi:nodetypes="cssscc" />
    <path
       style="fill:#ffffff;fill-opacity:1;fill-rule:evenodd;stroke:#000000;stroke-width:5;stroke-linecap:butt;stroke-linejoin:miter;stroke-miterlimit:4;stroke-dasharray:none;stroke-opacity:1"
       d="m 278.9241,200.60882 c 0,0 0.3402,1.6628 0.83203,3.93164 a 11.428572,8.9285717 0 0 0 -10.4707,8.89258 11.428572,8.9285717 0 0 0 6.20508,7.93359 14.285714,13.214286 0 0 0 -4.0625,9.20899 14.285714,13.214286 0 0 0 12.26953,13.0664 12.857142,11.428572 0 0 0 -3.69727,8.00586 12.857142,11.428572 0 0 0 12.44141,11.41016 12.5,11.785714 0 0 0 -0.29883,2.51758 12.5,11.785714 0 0 0 12.5,11.78711 12.5,11.785714 0 0 0 4.14648,-0.68164 9.6428576,11.785714 0 0 0 -0.21875,2.46679 9.6428576,11.785714 0 0 0 9.64454,11.78516 9.6428576,11.785714 0 0 0 9.22851,-8.38477 5.3571429,8.2142859 0 0 0 5.05664,5.52735 5.3571429,8.2142859 0 0 0 4.36914,-3.47071 11.071428,6.7857141 0 0 0 10.63086,4.9004 11.071428,6.7857141 0 0 0 8.41992,-2.38282 4.2857141,10 0 0 0 3.36524,3.81055 4.2857141,10 0 0 0 4.125,-7.32422 c 0.9906,-0.4736 1.95644,-0.93837 3.0293,-1.4668 a 5.3571429,8.5714283 0 0 0 5.3457,8.07813 5.3571429,8.5714283 0 0 0 4.35937,-3.59961 9.6428576,10.714286 0 0 0 3.49805,0.74219 9.6428576,10.714286 0 0 0 9.64258,-10.71485 9.6428576,10.714286 0 0 0 -1.82617,-6.25 c 0.19726,-0.12889 0.38054,-0.26119 0.57617,-0.39062 a 15,7.8571429 0 0 0 3.39258,0.21289 15,7.8571429 0 0 0 15,-7.85742 15,7.8571429 0 0 0 -1.66211,-3.5918 7.1428571,8.5714283 0 0 0 6.66211,-8.55078 7.1428571,8.5714283 0 0 0 -0.0391,-0.81836 11.428572,11.071428 0 0 0 1.46875,0.10352 11.428572,11.071428 0 0 0 11.42774,-11.07227 11.428572,11.071428 0 0 0 -2.71094,-7.13867 6.0714288,9.2857141 0 0 0 1.64063,0.35351 6.0714288,9.2857141 0 0 0 6.07031,-9.28515 6.0714288,9.2857141 0 0 0 -5.17774,-9.17383 c 0.1008,-0.27628 0.20309,-0.55832 0.30078,-0.82813 a 9.2857141,5.3571429 0 0 0 9.16211,-5.35546 9.2857141,5.3571429 0 0 0 -5.61718,-4.91993 c 0.24468,-0.7574 0.47461,-1.47656 0.47461,-1.47656 l -149.50391,0 z m 139.41992,27.2793 a 6.0714288,9.2857141 0 0 0 0.75195,1.28125 11.428572,11.071428 0 0 0 -1.04101,-0.58399 c 0.0996,-0.23463 0.19052,-0.46336 0.28906,-0.69726 z"
       id="path4709"
       inkscape:connector-curvature="0" />
    <circle
       style="opacity:1;fill:#000000;fill-opacity:1;fill-rule:nonzero;stroke:none;stroke-width:5;stroke-miterlimit:4;stroke-dasharray:none;stroke-opacity:1"
       id="path4719"
       cx="326.78571"
       cy="148.43364"
       r="7.5" />
    <circle
       r="7.5"
       cy="148.43364"
       cx="358.92856"
       id="circle4721"
       style="opacity:1;fill:#000000;fill-opacity:1;fill-rule:nonzero;stroke:none;stroke-width:5;stroke-miterlimit:4;stroke-dasharray:none;stroke-opacity:1" />
    <path
       style="fill:none;fill-rule:evenodd;stroke:#000000;stroke-width:5;stroke-linecap:round;stroke-linejoin:miter;stroke-miterlimit:4;stroke-dasharray:none;stroke-opacity:1"
       d="m 314.99999,163.79078 c 0,0 10.84159,31.14074 19.28572,30.71428 6.38063,-0.32225 8.57143,-17.14286 8.57143,-17.14286 0,0 6.85501,15.59542 13.57143,15 8.94964,-0.7934 16.42857,-31.42857 16.42857,-31.42857"
       id="path4723"
       inkscape:connector-curvature="0"
       sodipodi:nodetypes="cscsc" />
  </g>
</svg>
